<svg xmlns="http://www.w3.org/2000/svg" xmlns:xlink="http://www.w3.org/1999/xlink" xmlns:v="https://vecta.io/nano" viewBox="0 0 600 160"><style><![CDATA[.c{fill-rule:evenodd}.d{fill:#fff}.e{fill:#1f1a17}.f{fill:#4d4a47}.g{fill:#aba8a8}.h{fill:#171717}.i{fill:#969494}.j{fill:#737070}.k{fill:#f2c400}.l{fill:#c72e1f}.m{fill:#335296}.n{fill:#615c5c}]]></style><pattern y="155.4" width="72" height="72" patternUnits="userSpaceOnUse" id="A" viewBox="0 -72 72 72" overflow="visible"><path d="M36-36h36V0H36z"/><path d="M0-72h36v36H0z"/></pattern><path d="M337.4 109.6h94.4c6.9-.3 12.9 5.1 13.2 12.1v6.1c-.3 6.9-6.2 12.4-13.2 12.1h-94.4c-6.9.3-12.9-5.1-13.2-12.1v-6c.4-7.1 6.2-12.4 13.2-12.2z" fill="none" stroke="#1f1a17" stroke-width="3.165" stroke-miterlimit="22.93"/><path d="M391.4 126.6h3.4l-1.7-5.6-1.7 5.6zm-46-6.2l-1.2-.1v8.6h1.2c.7 0 1.5-.1 2.1-.3.5-.3.8-.7 1-1.2.3-.9.4-1.8.4-2.7a5.73 5.73 0 0 0-.8-3.4c-.7-.7-1.7-1-2.7-.9zm86.5-10.8h-94.4c-7-.2-12.9 5.1-13.2 12.2v6c.3 6.9 6.2 12.4 13.2 12.1h94.4c6.9.3 12.9-5.1 13.2-12.1v-6.1c-.4-7-6.3-12.4-13.2-12.1zm-79 19c-.3.9-.9 1.7-1.6 2.3-.6.6-1.4 1-2.2 1.2-.9.3-1.9.4-2.9.4h-6.9v-15.7h7.1c1.2 0 2.3.1 3.4.6.8.4 1.6.9 2.1 1.7.6.7 1 1.6 1.2 2.5.3 1 .4 2 .4 3a9.08 9.08 0 0 1-.6 4zm16.5 4.1h-13.2v-15.9h0 13v3.4H361v2.5h7.5v3.2H361v3.1h8.3l.1 3.7h0 0zm11.2-.1h-4.8v-11.9h-4.9v-3.9h14.7v3.9h-4.9l-.1 11.9h0 0zm15.9 0l-.6-2.6h-5.5l-.8 2.6h-4.9l5.8-15.8h5.2l5.8 15.8h-5zm19.1 0h-12.4v-15.8h4.8v11.9h7.5c.1 0 .1 3.9.1 3.9zm7.2 0H418v-15.8h4.8v15.8zm8.5 0h-4.8v-15.8h4.8v15.8z" fill="#292b6e" class="c"/><path d="M201.7,11.6h1v136.8h-1V11.6z" class="j"/><path d="M191.5 95.1c0-.1-.1-.2-.2-.3s-.2-.2-.3-.2c-.2-.1-.5-.1-.8 0-.1 0-.2.1-.3.1l-.6.3c-.2.1-.4.1-.6.2s-.4.1-.6.1c-.5.1-1 0-1.5-.1l-.9-.3-.1-.1c-.1 0-.1-.1-.2-.1l-.2-.1c-.1 0-.1-.1-.2-.1s-.2 0-.3-.1c-.3 0-.6.1-.9.3-.2.2-.3.4-.4.7 0 .3.1.5.3.7.1.2.3.3.5.4l.6.3c.2.1.3.1.4.2l1.1.3c.4.1.8.1 1.1.1.6 0 1.2-.1 1.8-.3s1.2-.5 1.8-.8c.1-.1.2-.3.3-.4s.1-.3.1-.4c.2-.1.2-.3.1-.4h0 0z" class="k"/><g fill="#292b6e"><path d="M292.7 47.4h4.9v16.5h-4.9V47.4zm23.2 12.9c.6-1.5 1-3.1.9-4.7.2-2.2-.6-4.4-2.1-6.1-1.7-1.5-3.9-2.3-6.1-2.2-2.2-.1-4.4.7-6 2.2-1.5 1.7-2.2 3.9-2.1 6.2 0 1.7.3 3.4 1.1 4.8a6.32 6.32 0 0 0 2.8 2.8c1.4.6 2.9.9 4.4.9 1.5.1 3.1-.3 4.4-1 1.2-.7 2.1-1.7 2.7-2.9h0zm-4.8-1c-.6.7-1.5 1.1-2.4 1.1s-1.8-.4-2.4-1.1a5.72 5.72 0 0 1-.9-3.6c-.1-1.2.2-2.5.9-3.6.6-.7 1.5-1.1 2.4-1.1s1.8.4 2.4 1.1c.7 1 1 2.2.9 3.4.1 1.2-.2 2.6-.9 3.8zm267.3-12H573l-5.9 16.5h5l.8-2.7h5.6l.8 2.7h4.9l-5.8-16.5zM574 57.5l1.7-5.9 1.8 5.9H574zm-291.3 6.6a6.28 6.28 0 0 0-1.9.3l-.3 1.3c.6-.1 1.2-.2 1.7-.4.3-.1.6 0 .8.2s.3.4.3.6c0 .3-.1.5-.3.7a3.08 3.08 0 0 1-1.3.3c-.8 0-1.6 0-2.4-.2v1.4c1 .2 1.9.3 2.9.3.8.1 1.5 0 2.2-.3.9-.3 1.5-1.1 1.5-2 0-.6-.3-1.1-.7-1.5-.7-.6-1.6-.8-2.5-.7h0zm-7.4-12.7h5v12.4h4.9V51.4h5v-4h-14.9v4zm287-4.1l-3.5 11.9-3.6-11.9H550l5.9 16.5h5.3l6-16.5h-4.9zm-58.8 9.2l-5.9-9.1H493v16.5h4.6v-9l5.9 9h4.6V47.4h-4.6v9.1zm-173.3-.1l-5.9-9h-4.6l-.1 16.5h4.6v-9l6 9h4.6V47.4h-4.6v9zm158.1 1.7c-.3-.4-.5-.6-.8-.9-.4-.3-.8-.5-1.3-.6.6-.1 1.2-.3 1.7-.6.6-.4 1.1-1 1.5-1.6.4-.8.6-1.6.6-2.4.1-1-.2-1.9-.7-2.7-.4-.7-1.1-1.2-1.9-1.5-1.2-.3-2.3-.4-3.5-.4h-8.1v16.5l5-.1v-6.6h.4c.4 0 .9.2 1.2.4.4.4.7.8.9 1.3l2.6 5h5.5l-2.4-4.7c-.2-.4-.4-.8-.7-1.1h0zm-3.4-4.8c-.2.2-.5.4-.8.5-.4.1-.9.2-1.3.2h-2.1l.1-3.3h2.1c.6-.1 1.3.1 1.8.4.4.3.5.7.5 1.2a1.69 1.69 0 0 1-.3 1h0zm-42.3 6.5H435V47.4h-4.9v16.4h12.6v-4zm-222.4-5.5c-1.5-.7-3-1.2-4.6-1.5-.6-.1-1.2-.3-1.7-.6-.3-.2-.4-.4-.4-.7s.1-.7.4-.9c.4-.3.8-.4 1.3-.4.6 0 1.1.1 1.6.5s.7 1 .8 1.6l4.6-.3a5.37 5.37 0 0 0-1.9-3.7 7.59 7.59 0 0 0-4.6-1.2c-1.4-.1-2.7.1-3.9.6-.8.4-1.6 1-2.1 1.8-.5.7-.7 1.6-.7 2.4 0 1.2.5 2.4 1.4 3.2 1.4 1 2.9 1.7 4.6 2 .9.2 1.7.5 2.5 1 .4.2.6.7.6 1.1 0 .5-.3.9-.6 1.2-.4.4-1 .5-1.6.5-.8 0-1.6-.3-2.1-1-.3-.5-.5-1.2-.6-1.8l-4.6.3c.1 1.5.7 3 1.7 4.1 1.6 1.2 3.6 1.8 5.6 1.6 1.3 0 2.6-.2 3.8-.7.9-.4 1.7-1.1 2.3-2 .5-.9.8-1.9.8-2.9 0-.8-.2-1.7-.6-2.4-.5-.8-1.2-1.4-2-1.8h0zm227.3 9.5h4.9V51.4h5v-4h-14.9l-.1 4h5v12.4zm128.4-17.5c.6 0 1.2-.1 1.8-.4.5-.3 1-.7 1.3-1.2.3-.6.5-1.2.5-1.8h-1.8c0 .4-.2.7-.5.9-.4.2-.8.3-1.3.3-.4 0-.8-.1-1.2-.3-.3-.2-.5-.5-.6-.9h-1.9v.2c0 1.9 1.7 3.3 3.7 3.2zM268.4 57.4c.1.8-.2 1.5-.7 2.1-1.2 1-2.9 1-4 0-.5-.6-.7-1.3-.7-2.1v-10h-4.9v9.9c.1 1 .2 1.9.5 2.8.2.7.5 1.4 1 1.9.5.6 1.1 1 1.7 1.4.7.4 1.5.6 2.3.7l2.5.2c1.2 0 2.3-.2 3.4-.6.8-.3 1.5-.8 2-1.4.7-.7 1.1-1.5 1.4-2.3.3-.9.4-1.9.4-2.8v-9.8h-4.9v10h0zm196.2-.6h7.6v-3.3h-7.6v-2.6h8.2v-3.5h-13.2v16.4H473v-3.7h-8.4v-3.3zm-215.8-9.4h-4.9v16.4h12.6v-4h-7.6V47.4zm-15.9-.2c-2.2-.1-4.4.7-6 2.2-1.5 1.7-2.2 3.9-2.1 6.2-.1 1.7.3 3.4 1.1 4.8a6.32 6.32 0 0 0 2.8 2.8c1.4.6 2.9.9 4.4.9 1.5.1 3.1-.3 4.4-1 1.2-.7 2.1-1.7 2.7-2.9.6-1.5 1-3.1.9-4.7.2-2.2-.6-4.4-2.1-6.1-1.6-1.5-3.9-2.3-6.1-2.2h0zm2.4 12.1c-.6.7-1.5 1.1-2.4 1.1s-1.8-.4-2.4-1.1a5.72 5.72 0 0 1-.9-3.6c-.1-1.2.3-2.5.9-3.6.6-.7 1.5-1.1 2.4-1.1s1.8.4 2.4 1.1c.7 1 1 2.2.9 3.4.1 1.2-.2 2.6-.9 3.8zm106.6 1.8h5.6l.7 2.7h5l-5.9-16.5H342l-5.9 16.5h5l.8-2.7h0zm2.9-9.5l1.8 5.9h-3.5l1.7-5.9zm32.4 5.2h7.6v-3.3h-7.6v-2.6h8.2v-3.5h-13.2v16.4h13.4v-3.7h-8.4v-3.3z"/><path d="M525.7 51.4h5v12.4h4.9V51.4h5v-4.1h-14.9v4.1zm-133.2-4l-5.9 16.5h5l.8-2.7h5.6l.6 2.7h5.1l-5.9-16.5h-5.3zm1 10.1l1.7-5.9 1.8 5.9h-3.5zm34.9 6.4l-5.9-16.5h-5.3l-5.9 16.5h5l.8-2.7h5.6l.6 2.7c-.1 0 5.1 0 5.1 0zm-10.3-6.4l1.7-5.9 1.8 5.9h-3.5zm97.4-10.1l-5.9 16.5h5l.8-2.7h5.6l.6 2.7h5.1l-5.9-16.5h-5.3zm1 10.1l1.7-5.9 1.8 5.9h-3.5zm-154.8 0c.4.4.7.8.9 1.3l2.6 5h5.5l-2.4-4.7c-.2-.3-.4-.7-.7-1-.3-.4-.5-.6-.8-.9-.4-.3-.8-.5-1.3-.6.6-.1 1.2-.3 1.7-.6.6-.4 1.1-1 1.5-1.6.4-.8.6-1.6.6-2.4.1-1-.2-1.9-.7-2.7-.4-.7-1.1-1.2-1.9-1.5-1.2-.3-2.3-.4-3.5-.4h-8.1v16.4h5v-6.6h.4c.4-.1.9.1 1.2.3h0zM360 54l.1-3.3h2.1c.6-.1 1.3.1 1.8.4.4.3.5.7.5 1.2a1.69 1.69 0 0 1-.3 1c-.2.2-.5.4-.8.5-.4.1-.9.2-1.3.2H360h0zm183.1-6.7h4.9v16.5h-4.9V47.3zM352.8 74.1h5v16.5h-5V74.1zm75 0h-5v16.5h12.8v-4h-7.7V74.1zm17.2-.2c-2.3-.1-4.5.7-6.1 2.2-1.5 1.7-2.3 3.9-2.2 6.2-.1 1.7.3 3.3 1 4.8.7 1.2 1.7 2.2 2.9 2.8 1.4.6 3 1 4.5.9 1.6.1 3.1-.3 4.5-1 1.1-.7 2.1-1.7 2.7-2.9.7-1.5 1.1-3.1 1-4.7.1-.5.1-1.1 0-1.6-.3-4.1-4-7.1-8.3-6.7zm2.6 12.1l-.2.2c-1.4 1.2-3.5 1.2-4.8-.2a5.72 5.72 0 0 1-.9-3.6c-.1-1.3.2-2.5 1-3.6.6-.7 1.5-1.1 2.4-1.1 1 0 1.9.4 2.5 1.1.7 1 1 2.2.9 3.4.2 1.3-.1 2.7-.9 3.8zm21.2-1.1c-.2-.4-.5-.6-.8-.9-.4-.3-.8-.5-1.3-.6.6-.1 1.2-.3 1.7-.6a4.1 4.1 0 0 0 1.6-1.6c.4-.8.6-1.6.6-2.4.1-1-.2-1.9-.7-2.7-.5-.7-1.2-1.2-2-1.5-1.1-.3-2.3-.4-3.5-.4h-8.3v16.5l5-.1V84h.5c.4 0 .8.2 1.2.4.4.4.7.8.9 1.3l2.6 5h5.6l-2.4-4.7c-.1-.4-.4-.8-.7-1.1h0zm-3.5-4.8c-.2.3-.5.4-.8.5-.4.1-.9.2-1.3.2h-2.1l-.1-3.3h2.2c.7-.1 1.3.1 1.9.4.3.3.5.7.5 1.2a1.93 1.93 0 0 1-.3 1h0zm-51.2-6h5v16.5h-5V74.1zm-53.9 4h5.1v12.5h5V78.2h5v-4.1h-15.2v4zm34.3 6.6l3.3-.1v1.7c-.5.3-1.1.6-1.7.8a4.53 4.53 0 0 1-1.6.3c-1 .1-2-.3-2.7-1.1-.8-1.1-1.1-2.5-1-3.8-.1-1.3.3-2.6 1-3.7.6-.8 1.6-1.2 2.6-1.2.6 0 1.3.2 1.8.5s.8.8 1 1.4l4.8-.9c-.2-.9-.7-1.8-1.3-2.6-.6-.7-1.3-1.2-2.2-1.5-1.3-.4-2.7-.6-4-.5-1.5-.1-3 .2-4.4.8s-2.5 1.7-3.2 3c-.8 1.5-1.1 3.1-1.1 4.7s.3 3.1 1 4.5c.6 1.3 1.6 2.3 2.8 3 1.5.7 3.1 1.1 4.7 1 1.4 0 2.7-.2 4-.6 1.4-.5 2.7-1.2 3.9-2.1v-7h-7.7v3.4h0zm-16.7-10.6h5v16.5h-5V74.1zm-35.1 0h-5v16.5h12.8v-4h-7.7V74.1zm62.6 0h5v16.5h-5V74.1zm-88.4 0l-6 16.5h5.1l.8-2.7h5.7l.6 2.7h5.2l-6-16.5h-5.4 0zm.9 10.2l1.8-5.9 1.8 5.9h-3.6 0zm-208.5 23.8c-.3 0-.5.1-.7.2s-.4.3-.6.4c-.2.2-.4.3-.6.4s-.5.2-.8.2-.5-.1-.7-.2-.4-.2-.5-.4l-.3-.6c-.1-.2-.2-.5-.2-.7l.6.3c.2.1.4.1.6.2.3.1.5.1.7.1.5 0 1-.1 1.1-.5a2.73 2.73 0 0 0 1.2-.9c.3-.4.6-.8.8-1.3.1-.5.3-1 .3-1.5.1-.5 0-1-.1-1.5s-.3-.9-.6-1.3c-.2-.3-.6-.7-1-.9-.4-.3-.9-.4-1.4-.4-.7 0-1.4.2-2 .6s-1.2.9-1.6 1.5c-.5.6-.8 1.3-1.1 2-.3.8-.4 1.5-.5 2.3 0 .8 0 1.6.2 2.4.1.7.4 1.4.8 2 .4.5.8 1 1.4 1.4s1.2.6 1.9.6c.4 0 .9-.1 1.3-.2.4-.2.9-.3 1.3-.6.5-.2.8-.5 1.1-.9s.5-.8.5-1.3a1.69 1.69 0 0 0-.3-1c-.1-.2-.5-.4-.8-.4zm-3.1-4.7c.2-.2.5-.3.8-.3s.5.1.7.3c.1.2.2.4.2.7s-.1.5-.3.7-.4.3-.7.3c-.2 0-.5 0-.7-.1-.2 0-.3-.1-.5-.2s-.3-.2-.4-.3c.2-.4.5-.8.9-1.1zm19.1-.1c.1-.7-.1-1.5-.4-2.2-.3-.5-.9-.9-1.5-.8-.6 0-1.1.1-1.6.4s-1 .7-1.5 1.1c-.1-.2 0-.3-.2-.7.1-.1.1-.3.1-.4 0-.2 0-.4-.1-.6 0-.2-.1-.3-.2-.4-.1-.2-.2-.2-.3-.3s-.3-.1-.4-.1c-.3 0-.6.1-.8.3-.3.2-.5.5-.6.8-.3.8-.5 1.7-.7 2.6s-.3 1.7-.4 2.6v1 1.4c0 .5 0 1 .1 1.5l.3 1.4c.1.4.3.7.5 1s.5.4.8.4c.4 0 .8-.2 1.1-.5.2-.2.3-.4.4-.6s.2-.4.2-.7c0-.2 0-.5-.1-.8s-.2-.6-.2-.9c0-.5-.1-1-.1-1.5v-1.5c.2-.2.4-.5.6-.8.2-.2.4-.5.7-.7s.5-.4.8-.6c.2-.1.5-.2.8-.3-.1.2-.1.4-.1.6 0 .3 0 .5.1.8.1.2.2.4.3.5s.3.2.4.3.3.1.4.1c.2 0 .5 0 .7-.2s.4-.4.5-.6.2-.5.3-.8c0-.2.1-.5.1-.8h0zm7.4 3.7c-.3 0-.5.1-.7.2s-.4.3-.6.4c-.2.2-.4.3-.6.4s-.5.2-.8.2-.5-.1-.7-.2-.4-.2-.5-.4l-.3-.6c-.1-.2-.2-.5-.2-.7l.6.3c.2.1.4.1.6.2.3.1.5.1.7.1.5 0 1-.2 1.1-.5a2.73 2.73 0 0 0 1.2-.9c.3-.4.6-.8.8-1.3.1-.5.3-1 .3-1.5.1-.5 0-1-.1-1.5s-.3-.9-.6-1.3c-.2-.3-.6-.7-1-.9-.4-.3-.9-.4-1.4-.4-.7 0-1.4.2-2 .6s-1.2.9-1.6 1.5c-.5.6-.8 1.3-1.1 2-.3.8-.4 1.5-.5 2.3 0 .8 0 1.6.2 2.4.1.7.4 1.4.8 2 .4.5.8 1 1.4 1.4s1.2.6 1.9.6c.4 0 .9-.1 1.3-.2.4-.2.9-.3 1.3-.6.5-.2.8-.5 1.1-.9s.5-.8.5-1.3a1.69 1.69 0 0 0-.3-1c-.2-.2-.5-.4-.8-.4zm-3.1-4.7c.2-.2.5-.3.8-.3s.5.1.7.3c.1.2.2.4.2.7s-.1.5-.3.7-.4.3-.7.3c-.2 0-.5 0-.7-.1-.2 0-.3-.1-.5-.2a1.38 1.38 0 0 1-.4-.3c.2-.4.4-.8.9-1.1zm13-1.1c-.4-.2-.9-.3-1.3-.4s-.8-.1-1.2-.1c-.6 0-1.1 0-1.6.2-.5.1-1 .4-1.4.7s-.8.7-1.1 1.2c-.3.6-.5 1.2-.5 1.8-.1.5 0 1 .2 1.5a4.44 4.44 0 0 0 .8 1.1c.2.3.5.5.8.6l1 .3c.3 0 .7.1 1 .1s.6.1.9.1c.2.1.4.1.6.2.1 0 .2.2.2.3 0 .2-.1.4-.2.6s-.3.3-.4.4c-.2.1-.3.2-.5.2-.1.1-.3.1-.4.1-.4.1-.7 0-1.1-.1-.2 0-.5-.2-.7-.3l-.6-.3c-.2-.1-.4-.1-.6-.1s-.4 0-.6-.2c-.2.1-.4.3-.5.4l-.3.6c-.1.2-.2.5-.2.7-.1.4.1.8.3 1.1.3.3.6.6 1 .8.5.2.9.4 1.4.5s1 .2 1.5.2 1-.1 1.5-.3 1-.5 1.4-.9c.9-.9 1.4-2.1 1.5-3.3 0-.5-.1-1-.2-1.4s-.3-.7-.6-1-.6-.5-1-.7-.9-.3-1.4-.4l-.7-.1c-.2 0-.5 0-.7-.1-.2 0-.4-.1-.6-.2-.1 0-.2-.2-.2-.3s.1-.2.2-.3.2-.2.4-.3.4-.1.6-.2.4-.1.6-.1h.6a.9.9 0 0 1 .5.1c.2 0 .3.1.4.2.2.1.4.2.5.3s.2.2.3.2c.1.1.3.1.4.1.2 0 .3 0 .4-.1s.3-.2.4-.3c.2-.1.3-.3.4-.5.1-.3.2-.5.2-.8 0-.4-.1-.8-.4-1.1s-.6-.5-1-.7h0zm9.9 0a4.04 4.04 0 0 0-1.3-1.3c-.6-.3-1.2-.5-1.9-.5s-1.3.2-1.9.6c-.5.4-1 1-1.4 1.6-.4.7-.7 1.4-.9 2.2s-.3 1.7-.4 2.5c-.1 1.4-.1 2.8 0 4.1 0 1.3.3 2.6.6 3.9 0 .3.2.5.4.7.2.1.5.2.7.2s.3 0 .5-.1l.6-.3c.1-.2.3-.4.4-.6.1-.3.2-.6.2-.9v-.5c0-.2-.1-.4-.1-.6s-.1-.4-.1-.6-.1-.4-.1-.6c.1.1.3.1.2.2.2.1.4.1.6.1.7 0 1.4-.2 2-.6.5-.4 1-.8 1.4-1.4s.7-1.2.9-1.9.4-1.4.4-2.1c.1-.7.1-1.5-.1-2.2-.1-.7-.3-1.3-.7-1.9h0zm-1.7 4.9l-.3.8c-.1.2-.3.4-.5.6s-.5.3-.8.3c-.2 0-.4 0-.6-.1-.2 0-.4-.1-.6-.1s-.4.1-.6.2l.1-.9v-.9c.1-.8.3-1.7.6-2.5.2-.5.6-.8 1.1-.8.2 0 .4.1.6.2.3.1.5.3.6.5.2.2.3.5.4.8.1.4.1.8.1 1.2 0 .1-.1.4-.1.7zm11.4.6c-.3 0-.5.1-.7.2s-.4.3-.6.4-.4.3-.6.4-.5.2-.8.2-.5-.1-.7-.2-.4-.2-.5-.4l-.3-.6c-.1-.2-.2-.5-.2-.7l.6.3c.2.1.4.1.6.2.3.1.5.1.7.1.5 0 1-.1 1.1-.5a2.73 2.73 0 0 0 1.2-.9c.3-.4.6-.8.8-1.3.1-.5.3-1 .3-1.5.1-.5 0-1-.1-1.5s-.3-.9-.6-1.3c-.2-.3-.6-.7-1-.9-.4-.3-.9-.4-1.4-.4-.7 0-1.4.2-2 .6s-1.2.9-1.6 1.5c-.5.6-.8 1.3-1.1 2-.3.8-.4 1.5-.5 2.3 0 .8 0 1.6.2 2.4.1.7.4 1.4.8 2 .4.5.8 1 1.4 1.4s1.2.6 1.9.6c.4 0 .9-.1 1.3-.2.4-.2.9-.3 1.3-.6.5-.2.8-.5 1.1-.9s.5-.8.5-1.3a1.69 1.69 0 0 0-.3-1c-.2-.2-.5-.4-.8-.4h0zm-3.1-4.7c.2-.2.5-.3.8-.3h.1c.5.1.8.5.8 1 0 .3-.1.5-.3.7s-.4.3-.7.3c-.2 0-.5 0-.7-.1-.2 0-.3-.1-.5-.2a1.38 1.38 0 0 1-.4-.3c.2-.4.5-.8.9-1.1h0zm8.9-.4c.1-.3.3-.6.6-.8a1.69 1.69 0 0 1 1-.3c.3 0 .5.1.7.3.3.3.5.6.7.9a1.38 1.38 0 0 0 .4.3.9.9 0 0 0 .5.1c.2 0 .3-.1.5-.2.1-.1.3-.2.4-.4l.3-.6c0-.2.1-.4.1-.6.1-.5 0-.9-.2-1.3-.5-1.2-1.7-1.9-3-1.9-.8-.1-1.5.2-2 .6a6.09 6.09 0 0 0-1.6 1.6c-.4.7-.8 1.4-1 2.2-.3.8-.4 1.7-.5 2.5 0 .8 0 1.5.2 2.3.1.6.4 1.3.8 1.9.4.5.9 1 1.4 1.3s1.2.5 1.8.5c.5 0 1-.1 1.4-.2.5-.2.9-.4 1.3-.6s.7-.5 1-.8c.2-.3.4-.7.4-1.1s-.1-.8-.3-1.1c-.2-.2-.5-.4-.8-.4-.2 0-.4.1-.6.2-.2.2-.4.3-.6.4-.3.1-.5.2-.7.3-.3.1-.6.1-.9.1s-.5 0-.8-.2c-.2-.1-.4-.4-.6-.6-.2-.3-.3-.6-.4-.9-.1-.4-.1-.7-.1-1.1s.1-.9.2-1.3.2-.8.4-1.1h0zm9.6 3c.1-.4.1-.7.2-1 .2 0 .3-.1.5-.1h.6l.6.1.6.1h.5c.2 0 .4 0 .5-.1s.3-.2.4-.3c.1-.2.2-.3.3-.5s.2-.4.2-.6c0-.3 0-.6-.2-.9-.2-.2-.4-.3-.6-.4s-.5-.2-.8-.2h-.9-.3-.3-.3l.3-1.1c.1-.3.2-.7.2-1 .1-.4 0-.7-.2-1-.1-.3-.4-.4-.7-.4-.2 0-.3 0-.5.1-.1.1-.3.2-.4.3-.1.2-.2.3-.3.5s-.2.3-.3.5l-.4 1.2c-.2.5-.3.9-.4 1.3l-.8.3c-.2.1-.5.2-.7.4-.3.2-.4.4-.6.6-.1.2-.2.4-.2.7v.1c0 .6.5 1 1 1 .1 0 .3-.1.4-.1l.2-.1c-.1.4-.1.9-.2 1.3 0 .4-.1.9-.1 1.3l.1 2.1c.1.7.3 1.3.6 1.9.3.5.6 1 1.1 1.3s1.1.5 1.7.5c.4-.1.8-.1 1.2-.3s.8-.4 1.1-.7c.4-.3.7-.7.9-1.1s.4-.9.4-1.4c0-.4-.1-.8-.3-1.1s-.6-.5-1-.5c-.3 0-.5.1-.7.3s-.4.4-.5.6-.3.4-.4.6a.55.55 0 0 1-.5.3c-.3 0-.5-.1-.6-.2-.2-.2-.3-.4-.4-.6-.1-.3-.2-.6-.2-.9v-1.1c0-.6.1-1.2.2-1.7h0zm-77.3-5.7l.4-2.8 8 1.2c.3 0 .6 0 .7-.2.5-.2.8-.7.9-1.2.1-.4 0-.8-.2-1.2a1.1 1.1 0 0 0-1-.6l-17.3-2.7c-.5 0-1 .1-1.3.4s-.5.7-.6 1.1c-.1.8.3 1.5 1 1.7 2.1.5 4.3.9 6.5 1.2l-.7 6.2c-.6 5.6 1.1 14.7 2.5 14.9 4.2.3-1.2-4.5 1.1-18zm93.2 11.7c-.9-.3-1.6-.9-1.9-1.7v-.3c-.1-.3-.3-5-.2-5.4-.1-1.6-.9-3.1-2-4.2-.5-.3-1.1-.5-1.7-.5-.7 0-1.3.2-1.9.6s-1.1.9-1.6 1.5c-1 1.3-1.5 2.8-1.7 4.5-.1.7 0 1.5.1 2.2s.4 1.4.7 2 .8 1.1 1.3 1.4c.6.4 1.3.6 2 .6.4 0 .7 0 1.1-.1s.7-.2 1.1-.4c.7 1.4 2.1 2.4 3.8 2.6.8.1 1.5-.4 1.7-1.2.4-.9.1-1.4-.8-1.6h0zm-5.2-5.8c-.1 1.8-.9 3.3-1.7 3.3s-1.3-1.5-1.2-3.3.9-3.3 1.7-3.3 1.4 1.5 1.2 3.3zM98.7 64.6h9.2l1.6 5h7.2l-10.3-27.5h-6.3l-10 27.5h7c0 0 1.6-5 1.6-5zm4.6-14.6h0l3.1 9.5h-6.3c0 .1 3.2-9.5 3.2-9.5zm22.3 19.6l-.1-17.2 9.8 17.2h6.6V42.1h-6.7l.1 17.5-9.9-17.5h-6.5l.1 27.5h6.6z"/><path d="M153.1 59.8h5 1.3c.6 0 1.2 0 1.7-.1.6 0 1.2-.2 1.8-.3.6-.2 1.1-.4 1.6-.7.4-.2.7-.4 1-.7.5-.4.9-.9 1.3-1.4.5-.7.8-1.4 1.1-2.2.3-1.2.4-2.3.4-3.5 0-1.5-.3-3.1-1-4.5-.6-1.2-1.5-2.2-2.6-2.9-.5-.3-1-.6-1.6-.8s-1.1-.3-1.7-.4c-.6 0-1.1-.1-1.7-.1h-1.5-11.6l-.1 27.2h6.5c.1-.1.1-9.6.1-9.6zm.2-12.7h3.7c.5 0 1.1 0 1.6.1s1 .2 1.5.5.8.7 1.1 1.2c.3.7.4 1.5.4 2.2 0 .8-.2 1.7-.5 2.4-.3.5-.7.9-1.2 1.2-.5.2-1 .4-1.5.4-.6.1-1.1.1-1.5.1h-3.7l.1-8.1h0zm18.5 14c.2 1 .5 1.9.9 2.8a8.69 8.69 0 0 0 1.6 2.6 10.04 10.04 0 0 0 2.2 1.9c.8.5 1.6.8 2.5 1.1l2.4.5c.7.1 1.4.1 2.1.1.5 0 1.2 0 1.9-.1.8 0 1.5-.2 2.3-.4s1.6-.5 2.4-.9c.8-.5 1.5-1 2.1-1.7.6-.8 1.2-1.7 1.5-2.6.4-1.3.7-2.7.6-4.1h-7c0 .5-.1 1-.2 1.5s-.3.9-.6 1.3-.7.8-1.2 1.1c-.6.4-1.4.5-2.1.5-.8 0-1.5-.1-2.2-.5-.6-.3-1.1-.8-1.5-1.3s-.7-1.1-.9-1.8-.4-1.3-.5-2l-.2-1.8V56c0-1.2.1-2.4.3-3.5.2-1 .5-2 .9-2.9a5.51 5.51 0 0 1 1.7-2c.7-.5 1.6-.7 2.5-.7 1 0 1.9.3 2.6.9.8.6 1.2 1.6 1.4 3.8l6.9-.1v-1.8c0-.5-.1-.9-.2-1.4l-.6-1.7c-.3-.7-.6-1.3-1.1-1.8-.9-1.1-2.2-2-3.6-2.5-1.7-.6-3.4-.8-5.2-.8-1.7 0-3.4.2-5 .8-1.7.6-3.1 1.7-4.2 3.2-1.2 1.4-2 3.1-2.4 4.9-.5 1.8-.7 3.6-.7 5.5l.1 2.4c.1 1 .3 1.9.5 2.8zM91.3 80.3H93l.5.9h.9l-1.7-4.5h-.9l-1.7 4.5h1l.2-.9zm.9-2.6l.6 1.7h-1.1l.5-1.7zm5.9-1.1l-1.1.1v3c0 .5-.2.8-.8.8-.2 0-.4-.1-.6-.2-.1-.2-.2-.5-.2-.7v-3h-.9v3c0 .5.2.9.5 1.2.4.3.8.4 1.3.4.5.1.9-.1 1.3-.4.3-.3.5-.8.5-1.2v-3zm4.2 0h-3.7v.8h1.4v3.8h.9v-3.8h1.4v-.8zm4 3.7c.1-.4.2-.8.2-1.2v-.2c0-.4 0-.8-.2-1.2-.2-.3-.4-.6-.7-.8-.6-.4-1.4-.4-2 0-.3.2-.6.5-.7.8-.1.4-.2.8-.2 1.2v.1c0 .4 0 .8.2 1.2.2.3.4.6.7.8.6.4 1.4.4 2 0a1.21 1.21 0 0 0 .7-.7zm-.8-1.3c0 .4-.1.8-.3 1.1l-.2.2c-.4.3-.9.2-1.2-.2-.2-.3-.3-.7-.3-1.1v-.2c0-.4.1-.8.3-1.1.1-.3.4-.4.7-.4s.5.2.7.4c.2.3.3.7.3 1.1v.2zm5.2 2.4l-1-1.9c.2-.1.4-.3.6-.5.1-.3.2-.5.2-.8.1-.4-.1-.8-.4-1-.3-.3-.8-.4-1.2-.4h-1.7v4.5h1v-1.7h.7l.8 1.8c-.1 0 1 0 1 0zm-1.9-2.7h-.7v-1.4h.7c.2 0 .4.1.6.2.1.1.2.3.2.5s-.1.4-.2.5c-.2.2-.4.2-.6.2zm2.5-2.1h.9v4.5h-.9v-4.5zm3.7 4.7v-3.8h1.4v-.8h-3.6v.8h1.3v3.8h.9zm2.2-.1l.3-.9h1.7l.3.9h1l-1.7-4.5h-.9l-1.7 4.5h1zm1.1-3.5l.6 1.7h-1.1l.5-1.7zm4.2 3.6v-3.8h1.4v-.8h-3.7v.8h1.4v3.8h.9zm5-3.9v-.8h-3v4.5h3v-.7h-2.1v-1.2h1.8v-.7h-1.8v-1.1h2.1zm3.5 3.8h1l-1.7-4.5h-.9l-1.7 4.5h1l.3-.9h1.7l.3.9h0zm-1.8-1.8l.5-1.7.6 1.7h-1.1 0zm5.7-1.3l1.8 3h.9v-4.5h-.9v3l-1.8-3h-.9v4.5h.9v-3zm5.8-1.5h-.9l-1.7 4.5h1l.3-.9h1.7l.3.9h1l-1.7-4.5h0zm-1 2.8l.5-1.7.6 1.7h-1.1zm3.8 1.9h.9v-3.8h1.4v-.8h-3.7v.8h1.4v3.8zm0 .9l.3.2c.2-.1.2-.2.3-.4.1-.1.1-.2.1-.4v-.2h-.5v.2c0 .2-.1.4-.2.6h0zm2.9-5.6h.9v4.5h-.9v-4.5zm5.3 3.7c.1-.4.2-.8.2-1.2v-.2c0-.4 0-.8-.2-1.2-.2-.3-.4-.6-.7-.8-.6-.4-1.4-.4-2 0-.3.2-.6.5-.7.8-.1.4-.2.8-.2 1.2v.1c0 .4 0 .8.2 1.2.2.3.4.6.7.8.6.4 1.4.4 2 0a1.21 1.21 0 0 0 .7-.7zM151 79c0 .4-.1.8-.3 1.1l-.2.2c-.4.3-.9.2-1.2-.2-.2-.3-.3-.7-.3-1.1v-.2c0-.4.1-.8.3-1.1.1-.3.4-.4.7-.4s.5.2.7.4c.2.3.3.7.3 1.1v.2zm5.3-2.4h-.9v3l-1.8-3h-.9v4.5h.9v-3l1.8 3h.9v-4.5zm3.8 4.6h1l-1.7-4.5h-.9l-1.7 4.5h1l.3-.9h1.7l.3.9h0zm-1.7-1.8l.5-1.7.6 1.7h-1.1zm3.1-2.8v4.5h2.9v-.7h-2v-3.8h-.9zm4.8 0l-1.7 4.5h1l.3-.9h1.7l.3.9h1l-1.7-4.5h-.9 0zm-.1 2.8l.5-1.7.6 1.7h-1.1z"/><path d="M167.5 76.1c.2-.2.3-.4.3-.7h-.8c0 .1 0 .2-.1.3-.2.1-.4.1-.6 0-.1-.1-.1-.2-.1-.3h-.6c0 .3.1.5.3.7.5.3 1.1.3 1.6 0h0zm4.3 3.4l.8.2c.5 0 .9-.1 1.3-.4.3-.3.5-.7.5-1.1 0-.3-.1-.6-.2-.8a.9.9 0 0 0-.6-.6c-.3-.1-.6-.2-.9-.2h-1.8v4.5h.9v-1.6zm.8-2.2c.3 0 .5.1.6.2.1.2.2.4.2.6s-.1.4-.2.5c-.2.2-.4.2-.6.2h-.8l-.1-1.5h.9 0zm2.5 3.9h3v-.7H176v-1.2h1.8v-.7H176v-1.1h2.1v-.8h-3v4.5zm6.3-1.6l-1.8-3h-.9v4.5h.9v-3l1.8 3h.9v-4.5h-.9v3zm3.6 1.7v-3.8h1.4v-.8h-3.7v.8h1.4v3.8h.9zm5.3-3.2c.1-.4-.1-.8-.4-1-.3-.3-.8-.4-1.2-.4H187v4.5h.9v-1.7h.7l.9 1.8h1l-1-1.9c.2-.1.4-.3.6-.5.1-.3.2-.5.2-.8zm-1 .4c-.2.2-.4.2-.6.2h-.8l.1-1.4h.7c.2 0 .4.1.6.2.1.1.2.3.2.5s-.1.4-.2.5zm1.5-1.9v3c0 .5.2.9.5 1.2.4.3.8.4 1.3.4.5.1.9-.1 1.3-.4.3-.3.5-.8.5-1.2v-3l-1.1.1v3c0 .5-.2.8-.8.8-.2 0-.4-.1-.6-.2-.1-.2-.2-.5-.2-.7v-3c0 0-.9 0-.9 0zm-97.6 6.6c-.3-.1-.6-.2-.9-.2h-1.8v4.5h.9v-1.6l1 .2c.4 0 .9-.1 1.2-.4s.4-.7.4-1.1c0-.3-.1-.6-.2-.8-.1-.3-.4-.5-.6-.6zm-.4 1.8c-.2.2-.4.2-.6.2h-.8v-1.5h.8c.3 0 .5.1.6.2.1.2.2.4.2.6s-.1.4-.2.5zm5.1-.5c.1-.4-.1-.8-.4-1-.3-.3-.8-.4-1.2-.4h-1.7v4.5h.9v-1.7h.7l.9 1.8h1l-1-1.9c.2-.1.4-.3.6-.5.1-.3.2-.5.2-.8zm-1.1.4c-.2.2-.4.2-.6.2h-.7v-1.4h.7c.2 0 .4.1.6.2.1.1.2.3.2.5s-.1.4-.2.5zm4.5-1.7s0-.1 0 0c-1-.5-2.1-.1-2.6.8-.1.4-.2.8-.2 1.2v.2c0 .4 0 .8.2 1.2.2.3.4.6.7.8a1.69 1.69 0 0 0 1 .3 1.69 1.69 0 0 0 1-.3c.3-.2.6-.5.7-.8.1-.4.2-.8.2-1.2l-.1-.2c0-.4 0-.8-.2-1.2-.2-.3-.4-.6-.7-.8zm0 2.1c0 .4-.1.8-.3 1.1-.1.3-.4.4-.7.4s-.5-.2-.7-.4c-.2-.3-.3-.7-.3-1.1v-.2c0-.4.1-.8.3-1.1.1-.3.4-.4.7-.4s.5.2.7.4c.2.3.3.7.3 1.1v.2zm3.3 2.3v-3.8h1.4V83h-3.6v.8h1.3v3.8h.9zm5-3.7v-.8h-3v4.5h3v-.8h-2.1v-1.2h1.8V85h-1.8v-1.1h2.1zm2.4-.3c.2 0 .4.1.6.2.1.1.2.4.2.6h.9c-.1-.5-.3-.9-.6-1.2s-.7-.4-1.2-.4a1.69 1.69 0 0 0-1 .3c-.3.2-.6.5-.7.8s-.2.7-.2 1.1v.3c0 .6.1 1.1.5 1.6.3.4.8.6 1.3.6s.9-.1 1.3-.4c.4-.2.6-.7.6-1.1l-.9-.2c0 .2 0 .4-.2.6-.1.1-.4.2-.6.2-.3.1-.5-.1-.7-.3-.2-.4-.2-.7-.2-1.1v-.3c-.1-.3 0-.7.2-1 .2-.2.4-.3.7-.3h0z"/><path d="M117.6 83H114v.8h1.3v3.8h.9v-3.8h1.4V83zm-2 4.9c0 .2-.1.4-.2.6l.3.2c.1-.1.1-.2.3-.4.1-.1.1-.2.1-.4v-.2h-.5c0 0 0 .2 0 .2zm2.6-4.9h.9v4.5h-.9V83zm2.5 4.5l.3-.9h1.6l.4.9h1l-1.7-4.5h-.9l-1.7 4.5h1zm1-3.4l.6 1.7h-1.1l.5-1.7zm5.7 3.4c.5 0 .9-.1 1.3-.4.4-.2.6-.7.6-1.1l-.9-.2v.2c-.1.4-.5.7-.9.6-.3.1-.5-.1-.7-.3-.2-.4-.2-.7-.2-1.1v-.3c-.1-.3 0-.7.2-1 .2-.2.4-.3.7-.3.2 0 .4.1.6.2.1.1.2.4.2.6h.9v-.1c-.1-.9-.9-1.6-1.8-1.5a1.69 1.69 0 0 0-1 .3c-.2.2-.5.5-.6.8s-.2.7-.2 1.1v.3c0 .6.2 1.1.5 1.6.3.4.8.6 1.3.6h0z"/><path d="M130.6 87.4c.6.4 1.4.4 2 0 .3-.2.6-.5.7-.8.1-.4.2-.8.2-1.2v-.2c0-.4 0-.8-.2-1.2-.2-.3-.4-.6-.7-.8-.1 0-.1-.1-.2-.1-1-.4-2.1 0-2.5.9-.1.4-.2.8-.2 1.2v.2c0 .4 0 .8.2 1.2.2.3.4.6.7.8zm0-2.3c0-.4.1-.8.3-1.1.1-.3.4-.4.7-.4s.5.2.7.4c.2.3.3.7.3 1.1v.2c0 .4-.1.8-.3 1.1-.1.3-.4.4-.7.4s-.5-.2-.7-.4c-.2-.3-.3-.7-.3-1.1v-.2zm4.6-.6l1.8 3h.9V83h-.9v3l-1.8-3h-.9v4.5h.9v-3zm4.8-.9c.2 0 .4.1.6.2.1.1.2.3.2.5h.9a1.3 1.3 0 0 0-.8-1.2c-.2-.1-.5-.2-.8-.2-.2 0-.5.1-.8.2-.2 0-.5.2-.6.4s-.2.5-.2.7c.1.5.4.9.8 1.1l.8.3c.3.1.5.2.7.3.1.1.2.2.2.4s-.1.3-.4.2c-.1.1-.3.1-.5.1-.6 0-.9-.2-.9-.7h-.9c0 .3.1.6.2.8a.9.9 0 0 0 .6.6c.3.1.6.2.9.2.4.1.9-.1 1.2-.3.2-.2.4-.5.4-.9s-.2-.7-.4-.9c-.3-.3-.7-.5-1.1-.6l-.6-.3c-.1-.1-.2-.2-.2-.4s.1-.3.2-.4.3-.1.5-.1h0zm5.9 2.4v-3l-.9.1v3c0 .5-.3.8-.8.8-.3 0-.4-.1-.6-.2-.1-.2-.2-.5-.2-.7v-3h-.9v3c0 .5.2.9.5 1.2s.7.4 1.2.4c.4.1.9-.1 1.2-.4.4-.3.5-.8.5-1.2zm4.4 1.5h.9V83H150l-1.1 3.3-1.1-3.3h-1.2v4.5h.9v-1.2l-.1-2.1 1.2 3.4h.6l1.2-3.4-.1 2.1v1.2zm5.7 0l-1.7-4.5h-.8l-1.7 4.5h1l.3-.9h1.6l.3.9h1 0zm-2.6-1.7l.5-1.7.6 1.7h-1.1 0zm4.6 1.8v-3.8h1.4V83h-3.6v.8h1.3v3.8h.9zm4.6-4.4c-.1 0-.1-.1-.2-.1-1-.4-2.1 0-2.5.9-.1.4-.2.8-.2 1.2v.2c0 .4 0 .8.2 1.2.2.3.4.6.7.8.6.4 1.4.4 2 0 .3-.2.6-.5.7-.8.1-.4.2-.8.2-1.2v-.2c0-.4 0-.8-.2-1.2-.2-.3-.4-.6-.7-.8zm-.1 2.1c0 .4-.1.8-.3 1.1 0 .1-.1.1-.2.2-.4.3-.9.2-1.2-.2-.2-.3-.3-.7-.3-1.1v-.2c0-.4.1-.8.3-1.1.1-.3.4-.4.7-.4s.5.2.7.4c.2.3.3.7.3 1.1v.2zm2.6.6h.7l.9 1.8h1l-1-1.9c.2-.1.5-.3.6-.5.1-.3.2-.5.2-.8 0-.4-.1-.7-.4-1s-.8-.4-1.2-.4h-1.7v4.5h.9v-1.7zm-.1-2.2h.7c.2 0 .5.1.6.2s.2.3.2.5-.1.4-.2.5c-.2.2-.4.2-.6.2h-.7v-1.4zm3.2-.7h.9v4.5h-.9V83zm4.5 3.8h-1.9v-3.7h-.9v4.5h2.8v-.8zm3.2.6c.3-.2.6-.5.7-.8.1-.4.2-.8.2-1.2v-.2c0-.4 0-.8-.2-1.2-.2-.3-.4-.6-.7-.8-.1 0-.1-.1-.2-.1-1-.4-2.1 0-2.5.9-.1.4-.2.8-.2 1.2v.2c0 .4 0 .8.2 1.2.2.3.4.6.7.8.6.4 1.4.4 2 0zm-2-2.3c0-.4.1-.8.3-1.1.1-.3.4-.4.7-.4s.5.2.7.4c.2.3.3.7.3 1.1v.2c0 .4-.1.8-.3 1.1-.1.3-.4.4-.7.4s-.5-.2-.7-.4c-.2-.3-.3-.7-.3-1.1v-.2zm6.7.2c.1-.3.2-.5.2-.8 0-.4-.1-.7-.4-1s-.8-.4-1.2-.4h-1.7v4.5h.9v-1.7h.7l.9 1.8h1l-1-1.9c.2-.1.5-.3.6-.5zm-.9-.4c-.2.2-.4.2-.6.2h-.7v-1.4h.7c.2 0 .5.1.6.2s.2.3.2.5-.1.4-.2.5zM551.1 6H49C25.3 6.1 5.9 25.7 5.9 49.5v60.9c0 23.8 19.3 43.3 43.1 43.6h502.2c23.7-.2 43-19.7 43-43.5v-61c0-23.8-19.4-43.4-43.1-43.5h0zm37.5 104.5c0 20.7-16.9 37.8-37.5 37.9H49c-20.7-.2-37.6-17.3-37.6-38V49.5c0-20.8 16.8-37.8 37.5-37.9H551c20.7.1 37.5 17.1 37.5 37.9l.1 61h0 0zM43.1 35.7l-4-.6c-1.6-.2-3.3-.2-5-.1-2.6.1-5.2.6-7.7 1.4-2.3.7-4.5 1.6-6.6 2.7-.7.4-1.4.7-2.2 1.1l6.3 6.3c-6.6 4.8-11 12.1-12.3 20.1.1 0 2.9-5.9 4.1-7.6 3-4.5 6.5-8.5 10.8-12 2.1-1.8 4.5-3.3 7-4.6 2.4-1.2 5-2.1 7.6-2.7a39.34 39.34 0 0 1 4.8-.6c1.9 0 3.7-.1 5.5 0h.4c-.2-.2-.4-.3-.6-.4-2.4-1.4-5.2-2.4-8.1-3z"/></g><path d="M80.9 90.8c-2.3 7.8-7.5 14.5-14.7 18.4 1.8 2.4 3.7 4.7 5.5 7.1l-2.4.8c-2.2.8-4.6 1.4-6.9 1.9-2.6.5-5.2.6-7.8.4-1.7-.1-3.3-.4-5-.8-1.3-.4-2.6-.7-3.9-1.1-2.8-.9-5.4-2.3-7.7-4-.2-.1-.3-.3-.5-.5l.4.1c1.8.3 3.6.5 5.4.7 1.6.1 3.2.1 4.9 0 2.7-.3 5.4-.8 7.9-1.8 2.6-.9 5.2-2.2 7.6-3.6 4.5-2.9 8.6-6.4 12.2-10.5 1.3-1.6 4.9-7 5-7.1" class="l"/><path d="M37.3 103.9l.8-1.5-3.3-1.7.8-1.3-2.4-1.4c3.3-3.1 5.7-6.6 7-10.8h-.7c-.8 1.3-1.6 2.9-1.9 4.7l-.2.7-.4-.6c-.3-.2-.4-.4-.6-.6-.4-.5-.6-.9-.7-1.4v.4c-.7.9-1.4 1.9-1.4 2.8 0 .7-.3 1.5-.9 1.9.1.3-.4.8-.9.8l.1.6c.4.1.6.8.3 1.3-.2.3-.6.6-1 .6h-.1l-.5-.1c-.5-.8-.5-1.3-.3-1.7l-.1-.6-.4.2c-.3 0-.6-.1-.7-.2-.6-.2-1.2-.4-1.2-1.2h-.1c-.2 0-.4-.2-.4-.5s.1-.6.4-.8h-.1c-.2 0-.3-.2-.2-.5 0-.3.2-.5.5-.7-.1 0-.2-.2-.2-.4 0-.3.1-.5.3-.7l-.3-.2-.2.4-1.2.1-.6.1c-.7 1.4-1.8 2-3.1 2-.1.1-1.5 1.3-2.6 1.3.1-1.8.3-3.3.3-4.9V71h0s-.2.1-.5.1c-.1-1.2.1-2 .2-2.9v-5.7s-.1.1-.2.1h-.3l-.3-.4c.1-.7.1-1.5.1-2.3l.1-1.1c.1-1.9.5-3.7 1.3-5.4.7-1.3 1.8-2.3 3.1-3 1-.6 2.2-.9 3.4-.9s2.4.3 3.5.9c1.1.7 2 1.7 2.6 2.9a5 5 0 0 1 0 3.8c.2.4.5.9.9 1.3.6.5 1.1.8 1.7 1h.2c.6 0 1.1-.1 1.4-.3H38l.7-.8c.4-.9.7-1.9 1-2.8.2-.4.4-.8.7-1.1l-.5-.2-.1.1c.8-.6 1.2-1.6 1-2.6 0-.7-.5-1.2-1.2-1.2-.4 0-.6 0-.8.1-.3 1.7 0 3.5.6 5.3l.1.4-.4.1c-.3-.1-.5-.1-.7-.3.4.5.2 1.2 0 1.9h-.1-.6c-.3-.6-.5-1.2-.5-1.9 0 0-.1 0-.1.1l-.1-.1-.4-.4c.2-.3.4-1.2.5-5.2-.6-.2-.8-.6-.9-1-.3-.9.1-1.9 1-2.2l-.2-1.5c-.3.3-.8.4-1.4.5l-.3-2h.8c.5 0 .9 0 1.3.1-.3-.3-.4-.8-.6-1.3l2.2-.4c.1.9 0 1.4 0 2 .2-.3.7-.4 1.2-.6l.4 2c-.4.1-.7.1-.9.1-.4 0-.7 0-1-.1l.3 1.1c0-.4.5-.4.9-.5 0-.1.1-.3.3-.4l1.5-.5 1.4-.3c.3-.1.6-.1 1-.1 1.7 0 3.2.8 4.1 2.2.8 1.3 1.2 1.9 1.6 2.1v.1.6c-.2.1-.5.2-.8.2h-.3c.4.2.5.7.5 1.1.4.9.4 1.4.3 1.9-.4-.1-.7-.2-.8-.3.8.7 1 1.8.7 2.8l-.6-.3.9 2.6h0l-.3.6c.4 0 1.1.3 1.8.3.2 0 .5 0 .7-.1 1.1-.4 2-1.3 2.4-2.4-.5-1.1-.4-2.5.1-3.7.6-1.2 1.5-2.2 2.6-2.9 1-.6 2.1-.9 3.3-.9s2.4.3 3.4.9c1.3.7 2.4 1.8 3 3.1.8 1.7 1.2 3.5 1.3 5.3l.1 1.4c0 .6.1 1.3.1 1.9v.3l-.4.2-.6-.2c.2.6.2 1.7.2 2.7 0 1.2 0 2.5.1 3.5.1.7.2 1.4.5 2l-.2.6c-.3-.1-.6-.2-.9-.4.5 3.5.5 7.5.5 11.5v8.1c0 1.3.2 2.6.8 3.8l.3.6-.9-.3c-1.3-.4-1.9-.8-2.4-1.3-1.7-.1-3-1.1-3.4-2.6h-.3c-.8 0-1.7-1.1-1.9-1.3l-.1 1.6c.4.1 1 .6.6 1.5.2 0 .4.3.4.7 0 .3-.2.5-.4.7h.1c.2 0 .3.5.1.7-.2.6-.6 1.1-1.1 1.3-.4.2-.6.3-.8.3l-.7-.1.2.3-.2.9c0-.1 0-.1.1-.1 0 0 .1.2 0 .4l-.4.3-.6.3c0 .1-.3.3-.6.3-.6-.1-.9-.5-.8-.9 0 .1-.1.1-.1.1h-.1l-2.3 2.4.7.4-3.5 2.4.9.7-6.6 4c-.1.1-7.1-3.4-7.1-3.4zm10.8-16.2c1.3 3.6 3.7 7.1 6.9 9.5V97v-.3l.6-.4v-.7c-.3-.1-.7-.5-.7-.9-.5-.2-.8-.9-.8-1.9-.1-.5-.3-1-.6-1.4l-1.4-2c.7 1.2.3 2.1-.8 2.3-.8-1.8-1.5-3.2-2.6-4.5 0 0-.6.5-.6.5z" class="h"/><g class="k"><path d="M59.5 38.7l1.3 3.3 3.5.3-2.7 2.3.8 3.4-3-1.9-3 1.9.8-3.4-2.7-2.3L58 42l1.5-3.3zm12.7 10l1.3 3.3 3.5.3-2.7 2.3.8 3.4-3-1.9-3 1.9.8-3.4-2.7-2.3 3.5-.3 1.5-3.3zM76.8 67l1.3 3.3 3.5.3-2.6 2.2.8 3.4-3-1.9-3 1.9.8-3.4-2.6-2.3 3.5-.3 1.3-3.2zm-4.6 18l1.3 3.3 3.5.3-2.7 2.3.8 3.4-3-1.9-3 1.9.8-3.4-2.6-2.3 3.5-.3 1.4-3.3h0zM59.5 97.8l1.3 3.3 3.5.3-2.7 2.3.8 3.4-3-1.9-3 1.9.8-3.4-2.7-2.3 3.5-.3c0 .1 1.5-3.3 1.5-3.3z"/><path d="M39.3 44.8h-.9c0-.6.1-1.1.3-1.7h-1.3c.2.6.3 1.1.3 1.7-.5 0-.9 0-1.4-.1-.1 0-.3-.1-.4-.1v1.1c.3 0 .6-.1.9-.1h.4.4v1.8c.3-.1.6-.1.8-.2v-1.7c.6 0 1.1.1 1.7.2v-1.1c-.3.1-.6.2-.8.2M38 57.5c.2-.7.3-1.4.3-2.1.2.1.3.2.5.3-.2-.5-.3-1-.4-1.5-.2-1.7-.2-3.4-.2-5.1-.2-.1-.5 0-.7.1l-.2 5.8v.4l-.1.2c.2-.1.3-.2.5-.3 0 .8.1 1.5.3 2.2zm11.3 4.6c-1-.6-1.8-1.3-2.4-2.3-.1.4-.3.8-.6 1.1-.4-.3-.7-.7-.9-1.1-.2.8-.6 1.5-1.1 2.2-.5-.7-.9-1.4-1.2-2.2-.3.4-.6.8-1 1.1-.3-.5-.4-1-.5-1.5-.6 1.1-1.4 2-2.4 2.7h10.1 0zm-8.9-14.6c.1.4.4.8.6.9s1.3.4 1.5.4c.3.2.5.2.5.5s-.2.4-.7.4-1.1.1-1.6.2c-.2.1-.4.1-.6.1.1 0 .3.1.4.1.7.3 1.1 1.1 1.1 1.8-.1.8-.4 1.6-1.1 2.2h.6.2l.3-.1c.7-.3 1.1-1 1.1-1.8V52c-.1-.3.2-.2.2.5v.2c0 .3 0 .6-.1.8 0 .3-.1.6-.3.9v.1c.8-.2 1.4-.8 1.8-1.5v-1.3c0-.2.1-.1.1 0v.2c0 .4 0 .7.1 1.1.1.5.3.9.6 1.3a16.32 16.32 0 0 0 1.7 2l.1.2h0c.6-1.4-.4-2.9-1-4l-.1-.3-.1-.1c.1 0 .2 0 .3.2.1.1.1.3.2.4a.76.76 0 0 1 .2.4l.5.5 1.2 1.2c.2.3.4.4.7.9.2-1.2-.2-2.3-1-3.2.1 0 .1 0 .1-.1.3.3.8.5 1 .8.1-1.2-.8-1.8-1.6-2.3-.6-.3-1-.7-1-1l.1-.1c.2.6 1.9 1.4 2.1 1.7 0-.5-.2-1.1-.5-1.5-.1-.1-.7-.7-.7-.8.1 0 .8.6 1 .7a1.39 1.39 0 0 0 1.1.2c-.5-.5-.9-1-1.3-1.6-.6-1.1-1.5-1.9-2.7-2.3-1.6-.3-3.2-.1-4.7.4-.4.1-.7.2-.7.4s.1.2.2.2c.5.1 1.1.1 1.6 0l.3-.1h.1c.7-.1 1.4 0 2 .4.3.3.7.5 1.2.6h.7v.1c-.3.1-.6.1-.9 0-.5-.2-1-.5-1.4-.8-.1-.1-.2-.1-.3-.1.1.6 0 1-.6 1.2l-.2.1c-.2 0-.2 0 0-.1l.1-.1c.4-.2.6-.7.4-1.1-.2 0-.4-.1-.6-.1.1.2.2.4.2.6 0 .3-.3.6-.7.6-.4-.2-.5-.6-.3-1 0 0 0-.1.1-.1-.1 0-.1 0-.2.1-.5.1-.9.1-1.3.1h0 0 0zm4.8 7.3c-.4-.5-.7-1.1-.9-1.7-.3.8-1 1.4-1.8 1.6h-.4c.3-.4.4-.9.5-1.4-.1.3-.4.6-.7.8-.2.1-.5.2-.7.3h0c0 .8.2 1.5.4 2.2v.1c.7-.6 1.2-1.4 1.3-2.3l.2-.1c0 .2.1.4.2.6.2.6.5 1.2 1 1.8.4-.6.7-1.3.9-1.9zM41.6 57c-.3-.8-.5-1.6-.6-2.4l-.1.1-.1.1c-.9.9-.9 3.1-1.6 3.8.4-.1.8-.2 1.2-.4.5-.4.9-.8 1.2-1.2h0zm6.5.8c.3.3.7.5 1.1.7-.1-.2-.2-.5-.3-.7l-.5-1.9-.3-.9c-.3-.4-.7-.8-1.1-1.2-.1-.1 0 0-.2-.1.4.6.5 1.4.5 2.1l-.1.3-.1.5c.3.5.6.9 1 1.2zm.7 1c-.2-.3-.6-.5-.8-.8-.3-.3-.6-.6-.8-.9 0 .7 0 1.3-.1 2l-.1.5c.6.9 1.4 1.7 2.4 2.4 0-1.1-.2-2.2-.6-3.2zm-1.9-2l-1.5-1.9c-.2.7-.5 1.3-.8 1.9.3 1.3.8 2.6 1.7 3.6.5-1 .7-2.4.6-3.6h0zm-3.7 2.9l.1-.1c.4-.7.8-1.4 1-2.2 0 0 0-.1.1-.1.1.4.2.8.4 1.1.1.4.4.8.5 1.2-.2.7-.5 1.5-.9 2.1-.6-.7-.9-1.3-1.2-2zm-1.1 1c-.2-.6-.4-1.1-.4-1.7v-1.2-.4-.1c0-.1.1-.2.1-.2A4.45 4.45 0 0 0 43 55c.2.7.6 1.5 1 2.1l-.3.9c-.2.8-.8 1.8-1.6 2.7h0zm-.6-3.2v.6.9c-.6 1.1-1.3 2-2.3 2.7l.1-2.5.2-.6c.8-.2 1.5-.6 2-1.1h0zm18 31.3l1.9-6.5v7.4.5c-.5.3-1.4-.6-1.9-1.4h0 0zM26.9 66c.2-.1.3-.2.4-.3 1.1-.8 1.9-2 2.1-3.3 0 .3-.1.6-.1.9l-.3.9c0 .2.3.1.5 0v21.2l-2.6-9.1V66zm-.4-9l-.1.3c-.4.8-.8 1.5-1.3 2.2-.4.5-.9.9-1.4 1.2a4.11 4.11 0 0 1 0-2.2c.2-.7.4-1.4.7-2 .1-.2.1-.3.2-.5s0-.4-.2-.2c-.4.8-.7 1.7-.9 2.5-.2.7-.6 1.3-1 1.8l-.9 1.2c-.2.2-.3.3-.6.4.5-.9.9-2 1-3 .2-1.1.5-2.2.9-3.2.5-1.2 1.3-2.2 2.4-3 1.4-.9 3.1-1.2 4.7-.8 1.6.6 2.5 2.2 2.3 3.9 0 .3-.1.6-.2.9-.2.5-.5 1-.9 1.4-.1.1-.6.5-.7.5-.2-.3-.3-.6-.4-.9-.2-.5-.3-1-.3-1.5a.9.9 0 0 0 .1-.5c.1-.3.1-.6.2-.9 0-.1-.1-.1-.1-.1s-.2-.2-.2-.1a4.99 4.99 0 0 1-.5 2.1c-.5 1.3-1.5 2.4-2.8 3.1-.1-.7-.1-1.5.1-2.2.3-.9.6-1.8 1.1-2.6l.2-.3c0-.3.1-.2-.2-.1-.5.8-.9 1.7-1.2 2.6h0zm12.8 2.3l-.1.7c-.4.5-1 .9-1.7 1.1-1.5.3-3-.3-3.9-1.5a4.59 4.59 0 0 1-1.3-2.7c.1-.4.2-.8.2-1.2.1-1.3-.4-2.5-1.3-3.4-.2-.2-.4-.3-.7-.5-2-.8-4.2-.5-5.8.9-.8.7-1.5 1.6-1.9 2.6-.6 1.6-1.1 3.3-1.3 5-.1.5-.4 1-.7 1.5.1-2 .3-4.1.7-6.1.5-1.9 1.7-3.6 3.4-4.7 1.3-.7 2.7-1 4.1-1 1.1.1 2.2.5 3.1 1.2.7.6 1.3 1.3 1.7 2.1.3.8.5 1.6.5 2.4L34 57c.1.3.2.6.4.8.4.7 1 1.4 1.8 1.8.8.6 2.1.5 3.1-.3zm-9.6 1.8c.1-1.3.1-2.7.1-4v.1c.1.5.4 1 .7 1.5a3.53 3.53 0 0 0 1.7-1.5v.1.1 1.8c-.1.8-.2 1.6-.5 2.4-.4 1.1-1.3 2.1-2.4 2.6l.1-.4.1-.3c.1-.6.2-1.2.2-1.8v-.6zm-2.8 2.5c0 .8-.1 1.5-.3 2.2l.1-.1c1.6-1 2.6-2.6 2.7-4.4l.1-4.5c-.3.7-.8 1.3-1.3 1.9a6.42 6.42 0 0 1-1.3 1v2.4c.1.5 0 1 0 1.5zm-2.8 2c0 .7 0 1.4-.2 2.1a4.44 4.44 0 0 0 1.1-.8c.9-1.1 1.5-2.5 1.7-4l.1-.8v-.7-1.5l-.3.2c-.2-.6-.2-1.3-.1-1.9h0c-.3.6-.7 1.2-1.2 1.8l-.8.8v4.1l-.3.7zm-2.8-3.7l.2-.2c.7-.7 1.2-1.5 1.7-2.4v.4c0 .5.1 1 .2 1.4l.3-.2.2-.1V62c.1 1.4 0 2.7-.2 4.1-.3 1.4-1 2.8-2 3.8l-.2.2c-.2.2-.4.3-.6.4.2-.6.4-1.3.4-2v-6.6h0zM29.7 86l.4 1.3c1.5-1 2.4-2.7 2.5-4.6V82 62.1h6.6v-1.8c-.7.7-1.6 1.1-2.6 1.1-1.8-.3-3.4-1.5-4.1-3.2.1 1.7-.3 3.4-1.3 4.8-.4.5-.9.9-1.4 1.2L29.7 86zm-3 4.6c.1 0 .2 0 .3.1.7-.4 1.3-.9 1.7-1.5l-1.8-7-.2 8.3v.1h0zm-.2.3v-.3l.2-9.2v-.1l-2.4-9.1-.1 17.4c0 .8-.2 1.6-.4 2.4l-.1.4c-.1.2-.2.6-.3.8.5 0 .9 0 1.3-.2a4.28 4.28 0 0 0 1.6-1.4c-.2 0-.3-.1-.4-.2.1-.3.3-.5.6-.5h0 0zm.3-24.8v9.6l-1.5-5.4-.3-1c-.3-.5-.6-.9-1.1-1.3-.3.7-.3 1.4-.1 2.1l.3 1.1.1.3-.2 17.9v.6l-.1.5c-.1.7-.3 1.4-.6 2l-.1.3c-.5.8-1.3 1.3-2.2 1.5.5-1.4.7-2.9.7-4.4V70.4c.4-.4.8-.9 1.2-1.5.4-.8.8-1.6 1-2.4 0 .3-.2 1.1-.3 1.4l.8-.3c.3-.2.6-.4.8-.7.7-.8 1.2-1.8 1.4-2.8 0 .6-.1 1.2-.3 1.8 0 .2.3.2.5.2h0zm22.4-6.8l.1.3a3.53 3.53 0 0 0 1.7 1.5c1.5.3 3-.3 3.9-1.5.7-.8 1.2-1.7 1.3-2.8-.1-.4-.2-.8-.2-1.2-.1-1.3.4-2.5 1.3-3.4.2-.2.5-.3.7-.5 1.9-.8 4-.5 5.5.9a9.58 9.58 0 0 1 2 2.5c.6 1.6 1.1 3.3 1.3 5.1.1.5.4 1 .7 1.5-.1-2-.3-4.1-.7-6.1-.5-1.9-1.7-3.6-3.4-4.7-1.2-.7-2.6-1-3.9-1-1.1.1-2.1.5-3 1.2-.7.6-1.3 1.3-1.7 2.1-.3.8-.5 1.6-.5 2.4l.3 1.3c-.1.3-.3.6-.4.8-.4.8-1 1.4-1.8 1.8-1 .8-2.3.6-3.2-.2zM61.7 57l.1.3c.3.8.8 1.5 1.3 2.2.4.5.9.9 1.4 1.2a4.11 4.11 0 0 0 0-2.2l-.7-2.1-.2-.5c-.1-.2 0-.4.2-.1.4.8.7 1.7.9 2.6.4 1.1 1.1 2.1 1.9 3 .2.2.4.3.6.4-.5-.9-.9-1.9-1-3-.2-1.1-.5-2.2-.9-3.3-.5-1.2-1.3-2.2-2.4-3-1.3-.9-2.9-1.2-4.5-.8-1.6.6-2.5 2.2-2.3 3.9 0 .3.1.6.2.9.2.5.5 1 .9 1.4.1.1.6.5.7.5.2-.3.3-.6.4-.9.2-.5.3-1 .3-1.6 0-.2-.1-.3-.1-.5-.1-.3-.1-.6-.2-.9 0-.1.1-.1.1-.1s.2 0 .2.1c0 .7.2 1.4.4 2.1.5 1.3 1.4 2.4 2.6 3.1.1-.7.1-1.5-.1-2.2-.2-.9-.5-1.8-1-2.6l-.2-.3c0-.3-.1-.2.1-.1.8.7 1.2 1.5 1.3 2.5zm5.1 4.8l-.2-.2c-.7-.7-1.2-1.5-1.7-2.4v.4c0 .5-.1 1-.2 1.4l-.3-.2c-.1 0-.1-.1-.2-.1v1.2c-.1 1.4 0 2.7.2 4.1.3 1.4 1 2.7 2 3.8l.2.2c.2.2.4.3.6.4-.2-.6-.4-1.3-.4-2v-6.6h0zm-2.7 3.8v.7c.1.5.1.9.2 1.4-.1-.1-.4-.2-.6-.4s-.4-.3-.6-.5c-.9-1.1-1.5-2.5-1.7-4l-.1-.8v-.7-1.5l.3.2c.2-.6.2-1.3.1-1.9h0c.3.6.7 1.2 1.2 1.8l.8.8v4.1l.4.8zm-2.7-2c0 .8.1 1.5.3 2.2l-.1-.1c-1.4-1.1-2.3-2.7-2.5-4.4v-4.5c.3.7.7 1.3 1.3 1.9l1.1 1v2.4c-.2.5-.2 1-.1 1.5zM58.9 61c-.1-1.3-.1-2.7-.1-4h0c-.1.5-.4 1.1-.7 1.5-.7-.3-1.3-.8-1.6-1.5v.1.1V59c.1.8.2 1.6.5 2.4.4 1.1 1.2 2 2.3 2.6-.5-.8-.6-1.9-.4-3zm5.2 6.8v2.6c.1.2.2.4.1.6.1.1.1.1.1.2.3.2.4.6.3.9l.6 2.9-.9 1.2c.1 5.8 0 7.2 0 13.1l.1.6c.1 1.8.9 3.9 2.9 4.2-.5-1.3-.7-2.7-.7-4.2V70.3c-1.1-1-1.8-2.3-2.2-3.7 0 .3.1.6.1.9.1.2 0 .2-.2.4 0 0-.1-.1-.2-.1zM61.7 90l-.1-8.1.5-1.7c.2 0 .3-.2.3-.3v-.1c.2 0 .4-.2.3-.4v-.1c.3-.2.4-.4.1-.9l1-1.3.3-.3v12.8c0 .8.1 1.5.4 2.2l.1.4c.1.2.2.6.3.8-.5 0-.9-.1-1.3-.3-1-.8-1.7-1.7-1.9-2.7h0zm-.4-24.1c-1.2-.8-2-2.1-2.3-3.5.1.7.2 1.3.5 2-.2 0-.4 0-.6-.1l.1 21.1c.6-1.9 1.1-3.7 1.7-5.7-.2-.1-.2-.3-.2-.5 0-.1.1-.1.1-.1-.2-.1-.2-.3-.2-.5 0-.1.1-.1.2-.2-.1-.4-.1-.6.3-.8-.1-1.2-.3-2.5-.5-3.7.3-.3.6-.6.8-.9l.1-7.1zm-2.5 20.3l-.4 1.1c-1.5-1-2.4-2.8-2.3-4.6V62.1h-6.6c0-.6 0-1.2-.1-1.8.6.8 1.5 1.2 2.5 1.1 1.9-.3 3.4-1.5 4.2-3.2-.3 2.3.7 4.6 2.5 6v.1l.3 21.2-.1.7h0zm-5.4-.9c.7 1.1 1.7 2 2.9 2.6-.8.5-1.8.4-2.5-.1-.1 0-.1 0-.2.1.2.6.3 1.2.2 1.9-.6-.2-1.1-.4-1.6-.8-.1-.1-.2 0-.3 0v.1c.1 1.4-.1 1.8-.7 2.1-.4-1.6-1.2-3-2.2-4.2l4.4-1.7zm-18.5 0c-.6 1.2-1.7 2.1-2.9 2.6.8.5 1.7.4 2.4-.1.1 0 .2 0 .2.1-.2.6-.2 1.2-.1 1.9.6-.2 1.2-.5 1.7-.8.1 0 .2 0 .2.1-.3 1 0 2 .8 2.6.4-1.7 1.1-3.3 2.2-4.7-1.4-.6-2.9-1.1-4.5-1.7h0zm11.7 2.6l1.2-.4c1.2 4.1 3.6 7.6 7 10.2-.7.6-1.5 1.1-2.2 1.7-3.2-3.1-5.3-7.2-6-11.5zm-1.4.4l1.1-.3c.9 4.7 3.2 9 6.6 12.4-1 .7-2.1 1.3-3.1 1.9-2.7-4.1-4.4-9-4.6-14h0 0zm-4.6-.9c-1.1 4.1-3.6 7.7-6.9 10.3.7.6 1.4 1.1 2.2 1.7 3.2-3.1 5.3-7.2 5.8-11.7l-1.1-.3h0zm1.2.5l1.2.4c0 5-1.6 9.9-4.5 14.1-1.1-.6-2.2-1.2-3.2-1.9 3.6-3.4 5.9-7.8 6.5-12.6h0zm1.4.4c0 5.5-1.9 11-5.3 15.3l6.4 3.2 6-3.3c-3.4-4.2-5.3-9.5-5.4-15l-.8.2-.9-.4h0 0 0zm20.7-20.6l-.1-.1c-.3-.2-.6-.4-.8-.7-.7-.8-1.2-1.7-1.3-2.8 0 .7.2 1.3.4 1.9 0 .1-.3 0-.5 0v6.8c.4-.4.7-.8 1.1-1.2.1-.6.4-.7.6-.7.1-.1.2-.1.3-.1 0-.2.1-.3.3-.4v-2.7zM42.3 47.2h.1a.76.76 0 0 1 .2.4c0 .1 0 .2-.1.3.1-.2 0-.5-.2-.7zm-.2 0c-.2 0-.2.1-.3.3-.1.3 0 .6.3.7.4.1.4-1 0-1h0zm-.1.2c.1 0 .1 0 .1.1 0 0-.2.1-.1.2s.2-.1.2-.1v.2c0 .1-.1.2-.2.2-.3-.1-.3-.6 0-.6z" class="c"/></g><path d="M39.7 49.9c-.4 0-.9.1-1.3.1v-.3c.6 0 1.1 0 1.7-.2.2-.1.4-.1.6-.2.6-.1 1.3-.1 1.9-.1h-.1c-.1 0-1.5-.1-1.6-.1-.7 0-1.4-.3-2.1-.3-.3 0-.7-.1-1.1-.1-.5 0-1 .5-.9 1v.2c-.5-.7-.3-1.7.4-2.2.5-.2 1.1-.4 1.7-.4h.7c.2 0 .6.3.7.6.2.7 1 .9 1.5 1 .3 0 .9.1 1 .4s0 .4-.5.4c-.8-.1-1.7 0-2.6.2M29.1 94.8c.2 0 .4.1.6.2s.4.2.6.1h.8c.4.2 1 .1 1.2-.3.1 0 .1 0 .1.1-.4.2-.3.6 0 .7-.3.3-.7.4-1.2.2-.2-.1-.3-.2-.7-.2-.2 0-.3 0-.5-.1a.76.76 0 0 0-.4-.2c-.3.1-.4-.1-.5-.5zm0-1c.2.1.3.1.4.3s.4.3.6.2.4-.1.6-.1c.4.2.9 0 1.1-.4.1-.1.3-.1.3 0-.4.3-.2.6.1.6-.1.5-.4.7-1 .6-.3-.1-.7-.2-1-.1-.2.1-.5 0-.7-.1-.2-.2-.4-.3-.6-.3-.4-.1-.2-.8.2-.7zm.1-1.1c-.3 0-.5.2-.5.4v.1a.55.55 0 0 0 .3.5c.2.1.4.2.6.4s.4.3.7.2h.7c.3.1.7-.1.8-.4-.3-.1-.3-.3-.2-.6-.3-.2-.8-.1-1.1.1-.1-.2-.2-.3-.3-.4H30c-.1.3 0 .6.1.9-.6-.4-.9-.8-.9-1.2h0zm5.2-4.2c-.2.5-.5.9-.8 1.4s-1 .8-1.6.6c-.3-.2-.7-.1-1 .1-.6.2-1.2.4-1.7.7-.4.4-.6.7-.1 1.1.1-.2.3-.2.5-.1l.1.1a.9.9 0 0 0 .6-.6c.4.1.8 0 1.2-.2.2-.1.3-.1.1.1-.1.1-.3.2-.4.3.1.3.3.6.3 1a1.21 1.21 0 0 0 .7-.7c0 .5-.1 1-.5 1.3v.1c.1-.1.4 0 .4 0 .2 0 .4-.3.6-.6.1.5-.1 1-.5 1.4.1.1 0 .2 0 .3.1 0 .2 0 .2.1.3 0 .5-.3.7-.6 0 .1 0 .2.1.3.4-.3.6-.8.6-1.3 0-.6.1-1.1.4-1.6.5-.7 1-1.6 1.5-2.4-.4.4-1 .6-1.5.7 0-.4 0-.9.1-1.5zm24.9 6.2c-.2 0-.4.1-.6.3-.2.1-.4.2-.6.2a1.1 1.1 0 0 0-.8 0c-.4.2-1 .1-1.2-.3-.1 0-.1.1-.1.1.4.2.3.6 0 .7.3.3.8.4 1.2.2.2-.1.4-.2.7-.2.2 0 .3 0 .5-.1.1-.1.3-.2.5-.2.1-.1.3-.3.4-.7zm0-1c-.2.1-.3.2-.5.3-.2.2-.4.3-.7.2-.2 0-.4-.1-.6 0-.4.2-.9 0-1.1-.4-.2-.1-.3-.1-.3 0 .3.3.1.6-.1.6.1.5.4.7 1 .6.3-.1.6-.2 1-.1.2.1.5 0 .7-.1.2-.2.4-.3.6-.3.6-.2.4-.8 0-.8zm-.1-1.1c.3 0 .5.2.5.4v.1c0 .2-.1.4-.3.4-.2.1-.4.2-.6.4s-.4.3-.7.2h-.7c-.3.1-.7-.1-.8-.4.3-.1.3-.3.2-.6.4-.2.8-.2 1.1.1.1-.2.2-.3.3-.5h.2c.2.3 0 .6-.1.9.6-.2.9-.6.9-1zm-5.3-4.4l1.1 1.7c.2.5.8.7 1.3.4.4-.1.8-.1 1.2.1.4.7.8.7 1.5.8.4.4.6.8.1 1.2-.1-.2-.3-.2-.5-.1l-.1.1a.9.9 0 0 1-.6-.6c-.4.1-.9 0-1.2-.3-.2-.1-.3-.1-.1.1.1.1.3.2.4.3-.1.3-.3.7-.3 1a1.21 1.21 0 0 1-.7-.7c0 .5.1 1 .5 1.4v.1c-.1-.1-.4 0-.4 0-.2 0-.4-.3-.6-.6-.1.5.1 1 .4 1.4v.3c-.1 0-.2 0-.2.1-.3 0-.5-.3-.7-.6 0 .1-.1.2-.1.3-.4-.4-.6-.9-.6-1.4s-.1-1-.4-1.5c-.4-.7-1-1.5-1.6-2.3.5.3 1 .5 1.5.7.3-.7.2-1.3.1-1.9z" class="c l"/><path d="M55.7 97.5c.2.1.5.2.8.2-.1.2-.3.3-.4.2-.3-.1-.4-.2-.4-.4m0-.7c.3.1.7.2 1.1.3.3.1.3.6-.2.4l-1.1-.3c-.2 0-.1-.5.2-.4h0zm.2-.4l1 .3c.1 0 .1.1.1.2s-.1.1-.1.1l-1-.3c-.1 0-.1-.1-.2-.1 0-.2 0-.3.2-.2-.1-.1-.1-.1 0 0zm0-.5c.4.2.8.3 1.2.1 0 .1-.1.3-.1.4-.3-.1-.8-.2-1.1-.3v-.2zm2.2-3.2c-.2-.1-.3-.3-.4-.6h-.6c-.1.3-.2.5-.2.8a.91.91 0 0 1 1 0c.1 0 .1-.1.2-.2zm2.7-12.9l1 .3-.3 1.1-.7-1.4h0zm2-8.1L60.7 74l.4 3.8c0 .3-.1.5-.4.6.1 0 .2.1.3.1-.1-.3 0-.6.2-.8l-.1-3.8 1.7-2.2zm.2 0c-.7.8-1.2 1.6-1.8 2.4l.1 3.8c-.3.2-.4.7-.1.8s.4-.1.4-.4v-4.1l1.4-2.5zm.1.3c-.5.7-.9 1.5-1.3 2.3v3.1l.6-2.8.7-2.6h0zm-.9 5.4l1-2.7.6-2.8.1 2.8-1.7 2.7zm-.2.7l2-3.4-.1-2.8c.1 1 .3 1.9.5 2.9l-2.1 3.1c.1.4-.1.8-.3.8-.2.1-.3-.1 0-.6h0 0zm.4-.1c.1.4 0 .8-.3.9.1 0 .2 0 .3.1-.1-.3 0-.6.1-.9l2.3-3.1-.8-3 .4 3-2 3zm.3.2c.1.1.1.3.1.4s-.1.3-.2.3v-.4c0-.1 0-.2.1-.3zm-.6.2c.1 0 .1.1.1.2s-.1.2-.1.2c-.1 0-.2 0-.2-.1 0-.2 0-.3.2-.3zm0 0s.1 0 .1.1h0c0 .1-.1.1-.1.1-.1 0-.1 0-.1-.1s0-.1.1-.1h0zm-.8-.3c.1 0 .2.1.2.2s-.1.2-.2.2-.2-.1-.2-.2c.1 0 .1-.2.2-.2h0zm0 .1c.1 0 .2.1.2.1 0 .1-.1.1-.1.1-.1 0-.1 0-.1-.1-.1 0 0-.1 0-.1zm-.3-.5c0 .1 0 .2-.1.4-.1.1-.1.2-.2.2v-.4c.1-.1.3-.2.3-.2h0zm2.3-5.7c0 .3.1.3.4.1-.1.2-.1.5-.2.6s-.4.1-.4-.1.1-.4.2-.6h0zm-.3.8c.1.2.2.2.4.2h.1c0 .1 0 .3-.1.4s-.6.3-.5-.1c-.1-.1 0-.3.1-.5h0zm-.3.7c.1.3.3.3.6.1 0 .1 0 .2-.1.3 0 .2-.2.3-.4.2-.1 0-.2-.2-.2-.3.1 0 .1-.2.1-.3zm-.2.7c.1.2.3.3.5.2 0 0 .1 0 .1-.1 0 .2-.1.3-.1.4-.1.2-.3.2-.4.2s-.2-.2-.2-.3c.1-.1.1-.3.1-.4zm-.2.6c0 .2.2.3.4.3.1 0 .2 0 .2-.1 0 .1-.1.2-.1.4-.1.1-.3.2-.4.1s-.1-.1-.1-.2v-.5zm-.1.7c.1.2.2.2.4.2h.1c-.1.1-.1.2-.1.3-.1.2-.5.2-.4-.1v-.4h0 0zm-.1.6c0 .1.2.2.3.1h.1c0 .1-.1.2-.1.3-.1.2-.4.2-.3-.1-.1-.1 0-.1 0-.3h0zm-.1.6c.1.1.2.1.3.1 0 .1-.1.2-.1.3-.1.1-.2.1-.2-.1v-.3h0zm-.1.5c.1.1.2.1.3.1 0 .1-.1.2-.1.4s-.2.1-.2-.1c-.1-.1 0-.2 0-.4h0zm-.5 1.5c.1 0 .3.1.4.1-.1-.1-.3-.5.1-1h-.3c.1.6 0 .9-.2.9h0zm2.2-7.9c.1 0 .2 0 .3.1.1-.1 0-.3-.1-.3s-.2.1-.2.2zm0 .6c0-.1-.2-.3-.3-.4.3-.1.6 0 .8.2-.2.1-.3.1-.5.2zm-.9.2c.4-.1.6 0 .7.4.4-.2.7-.2.9 0 .1-.5-.2-.6-.7-.3-.3-.6-.7-.7-.9-.1h0zm-1.9 7c.5.1 1 .3 1.5.5.2.1 0 .3-.2.3-.5-.2-.9-.3-1.4-.4-.1-.1-.1-.4.1-.4zm.1.6c.4.1.7.2 1.2.4.1 0 .1.2.1.3s-.1.1-.2.1l-1.1-.3c-.4-.2-.2-.6 0-.5h0zm-3.1 10.4l.8 1.4c-.4-.1-.7-.3-1-.6l.2-.8h0zm.1-.3l-.1.1.8 1.4v-.1l-.7-1.4zm.4-1.3l.8 1.5-.4 1.1-.8-1.4.4-1.2zm.1-.3v.1l.7 1.5v-.1l-.7-1.5zm.4-1.2l.7 1.3-.4 1.2-.7-1.4.4-1.1h0zm.1-.3v.1l.7 1.3v-.1l-.7-1.3zm.4-1.5l-.1.2.7 1.4v-.1c0 0-.6-1.5-.6-1.5zm.9-2.9l.7 1.3-.4 1.2-.6-1.4.3-1.1h0zm.6-2v.2l.7 1.4.1-.2-.8-1.4h0zm-1.5 5.1l.7 1.4-.3 1.2-.8-1.4.4-1.2zm.4-1.6l.7 1.4-.3 1.2-.7-1.3.3-1.3zm1-3.1l.7 1.4-.3 1.2-.7-1.3c0 0 .3-1.3.3-1.3zm-.4 1.4v.1L61 83v-.1l-.7-1.3h0zm-.5 1.5v.1l.7 1.4v-.2l-.7-1.3zm-36-14.7c-.2.6-.2 1.2 0 1.9L29 89.9l1.3-.3-5.5-19.5c-.2-.7-.6-1.3-1-1.7zm5 21.9c0 .1.1.4.1.6 0 .1.2.2.4.1l1.6-.4c.1 0 .2-.2.1-.3 0-.1-.1-.3-.1-.5 0-.1-.3-.2-.5-.1-.6.1-.9.2-1.3.3-.2 0-.3.1-.3.3h0zm2.2 5.8c.3.1.7.1 1 0 0 .1.1.2.1.4-.3-.1-.6 0-.8.2l-.3-.6zm.7.7c.3 0 .6.2.7.5v.1c0 .3-.3.6-.7.6-.3 0-.6-.3-.5-.6 0-.3.3-.5.5-.6h0zm0 .3c.2 0 .3.1.3.3s-.1.3-.3.3-.3-.1-.3-.3c.1-.1.2-.3.3-.3zm0-.1c.2 0 .4.1.4.3s-.2.4-.4.4-.4-.1-.4-.4c0-.1.2-.3.4-.3h0zm-5.3-5.9v.2c-.1.2-.3.1-.5 0 .3-.2.4-.3.5-.2h0zm.2-.1c0-.2.1-.2.2-.1s.1.2.1.3 0 .2-.1.2-.1-.1-.2-.2V91zm.4-.2c0 .1.1.2.1.3.3-.1.6-.1.9-.2 0-.1-.1-.2-.1-.3-.4.1-.6.2-.9.2h0zm1-.2c0-.3.2-.3.2 0 0 .1 0 .1.1.2.1.2-.1.3-.2.1 0-.1 0-.2-.1-.3zm.4-.1c0-.2.2-.2.2 0 0 .1.1.2.1.3.1.2-.1.3-.2.1s-.1-.3-.1-.4h0zm4.8-.9c0-.1 0-.3-.1-.4.2-.1.4-.1.5.1 0 .2-.2.4-.4.3h0zm-.2 0c0 .2-.1.2-.2.1v-.4c0-.2.2-.2.2.1v.2zm-.3.1c0-.1-.1-.2-.1-.4l-1 .3c0 .1.1.2.1.3.4 0 .7-.1 1-.2zm-1.1.3c0 .1-.1.2-.2.1s-.1-.3-.1-.4c-.1-.1.1-.3.2 0 0 .1.1.2.1.3h0zm-.3.1c0 .2-.1.3-.2 0-.1-.2-.1-.3-.1-.4-.1-.2.2-.2.2-.1 0 .3 0 .4.1.5h0zm-7.2-20.3h.1l5.3 19.6h-.1l-5.3-19.6zm6.1 22.9c.2-.1.3-.3.3-.6.2 0 .3 0 .5-.1.1.3.3.6.3.9-.3-.1-.6-.1-.9.1-.1 0-.1-.2-.2-.3h0 0z" class="c d"/><path d="M33.8 78.8l.1-.1-.1-.1v.2m.1-.4v-.1c-.1 0-.2 0-.2.1 0-.1.1-.1.2 0h0zm.4-.4h-.1c0-.1 0-.1-.1-.1.1.1.1.1.2.1zm.4.1h-.1c.1 0 .1-.1 0-.2.1.1.1.2.1.2h0zm3.6 5.9v-1.6l.5-.4.6-.2.7.3.4.4v.7l-.7 1c-.2 0-.3 0-.5-.1-.3.2-.7.2-1-.1zm-2.2 0v-1.6l-.4-.4-.7-.2-.7.2-.4.5v1.6c.3.3.7.3 1 0 .4.2.9.1 1.2-.1zm5.2-4.5c.1-.3.1-.6.1-.9-.1-.3.1-.4.1-.1.4-.2 0-.7-.2-.4-.1-.3.2-.5.3-.2.1-.1.1-.3 0-.4s-.3-.1-.4 0l-.1.1c-.1-.2-.1-.6.1-.2.3-.2.1-.7-.3-.4-.4-.9-.1-1.4.1-1.5.7-.6 1.5.2.7.6.1.1.2.1.3.1-.1.4.3.6.3 1 .1-.1.2-.3.2-.5.1 0 .1-.2 0-.3.1.1.1-.2 0-.3.2 0 .3-.2.2-.3-.2 0-.5-.7-1-.8-.6-.1-1.1.4-1.2 1-.2 1 1 2.5.4 3.4h-.6v.5h-.4a11.51 11.51 0 0 1-1.4-1.7c.1.1.2.1.3 0V78c.2.1.5.1.6-.1-.4-.1-.3-.3-.3-.5.1 0 .1.2.2.3.2-.2.3-.5.2-.8.1.1.1.1.2.1v-.4c.3 0 0-.4 0-.5.1 0 .2-.1.2-.3-.4.1-.3-.5-.6-.6 0-.1-.2-.3-.4-.2l-.1-.1c-.1-.2-.2-.2-.4.1-.1 0-.3 0-.3.1v.1c-.1 0-.3.1-.4.1s-.1 0-.2.1c0 .1 0 .1.1.2v.2c.1.2 0 .1.2 0 0-.1.3-.3.2.1 0 0-.7 0-.8-.2 0-.3-.2-.2-.2 0 .1.3.7.3 1 .3 0 .1-.2.2-.2.2v-.1c0 .1-.1.2-.1.3-.1.1-.1.1-.1.2-.3-.1-.6-.1-1-.1-.3-.5-1.1-.5-1.5-.9-.1-.4 0-.2 0-.1.1.1.3.1.2-.1 0-.1-.1-.1-.1-.2.6-.4 1.4-.5 2.1-.4.2-.2.5-.4.9-.5-1.1-.2-2.1.1-3 .7-.1-.1 0-.1-.1-.3-.1-.1-.3-.1-.2.2 0 0-.1-.1-.2 0-.1 0-.3 0-.3.2-.2.1-.2.4-.2.5-.1.1 0 .4.2.3 0 0 .1 0 .1-.1 0 .1 0 .2.1.2h.2c-.1.2-.1.4 0 .6 0-.1.1-.1.2-.1 0 .2 0 .3.1.4 0 0 0-.1.1-.1 0 .2.1.3.2.4 0-.1.1-.1.1-.1.1.2.3.2.4.3-.1.1-.2.2-.4.2.1.2.3.3.5.2 0 .1-.1.1-.2.1 0 0 .1.1.2.1-.3.1-.6.2-.9.4 0 0 0-.1-.1-.2 0-.1-.1-.2-.2-.2 0 .1.1.2 0 .2 0 0-.1-.1-.2 0-.1-.1-.2-.2-.4-.1 0 .1.1.1.1.2-.1 0-.2 0-.2.1-.2 0-.3 0-.3.3.1 0 .1-.1.2 0s0 .1.1.2c-.1.1-.1.3 0 .4 0-.1 0-.1.1-.1s.1 0 .1.1c.2 0 .3-.1.4-.2 0 .1 0 .2-.1.2.2 0 .4-.1.6-.2 0 .1-.1.1-.2.2.2 0 .4-.1.6-.1 0 .1-.1.1-.2.2.2 0 .4-.1.6-.2v.2c.2 0 .3-.1.4-.2v.3c.1 0 .3-.1.3-.3 0 .1 0 .2-.1.2.2 0 .3-.1.4-.2v.2c.1 0 .2-.1.2-.1.1.2.3.3.6.4s.5.3.6.5v.3h-1v-.6h-1.1v.6h-1v-.6h-1.5v.6h-1v-6.2h11.4c-.5 2.1-1.2 4.2-2.1 6.2h-.4v-1h-.4 0 0z" class="c l"/><path d="M37.7 76.5s.1 0 .1-.1c.4-.2.2-1-.1-.6h-.1c-.1 0-.1-.1 0-.2 0-.1-.1-.2 0-.1.1 0 .2 0 .3-.1.1 0 .2 0 .2.1s0 .2.2.3c.1.5-.3.7-.6.7m-1.3.1c-.1 0-.3 0-.4.1 0 .1.1.2.2.3-.2.1-.4.1-.6.1 0 .1 0 .2.1.2-.1 0-.3-.1-.4-.3-.1 0-.1.1-.1.1-.1-.2-.1-.3-.1-.5l-.3.1c0-.1 0-.2-.1-.4-.1 0-.1.1-.2.1-.1-.2-.1-.4 0-.5h-.2v-.2s.1 0 .1-.1c.1 0 .2 0 .2-.1.1 0 .1-.1.2 0 .1.6.9.6 1.6 1.1zm2 0c-.3.1-.6.2-.8.1-.1 0 0-.1.1-.1.5 0 .9-.3.6-.8-.1-.1-.1-.1-.1-.2.1 0 .2 0 .2-.2-.1-.1-.3-.1-.1-.2s.3-.1.5-.1v.2c0-.1 0-.1.1-.2 0-.1.2-.1.3-.1s.1.2.1.3-.1.1-.1.2c.1 0 .2-.1.2-.2.1.1.1.6.4.7-.1.1-.1.1-.2.1 0 .2.1.3.2.4s0 .1-.1.1-.1-.1-.1-.1c.1.1.2.3.2.5-.1 0-.2-.1-.3-.2.2.6.1.7 0 .9 0-.1-.1-.3-.2-.3-.2.3-.1.6.2.7-.1.1-.3.1-.5-.1 0 .1 0 .2.1.3-.2 0-.3-.1-.4-.3 0 .2-.1.3-.3.4 0-.1 0-.3-.1-.4-.1.2-.2.4-.4.4.3-.3-.1-.5 0-.8a.78.78 0 0 0-.4.4c-.1 0-.1-.1-.2-.2-.1.3-.2.4-.3.3.1-.1.1-.3 0-.5-.1.1-.2.3-.4.4v-.4c-.1.2-.2.4-.7.3l.2-.2c-.2 0-.4 0-.5-.1.1 0 .3-.1.3-.2-.1-.1-.1-.1-.1-.2.5 0 .5-.1.7-.1-.1-.1-.2-.1-.3-.3.5 0 1 0 1.5.1.1 0 .4-.1.7-.3h0 0zm-4.3 2.2c.2 0 .3-.1.4-.2.1.1.1.2 0 .3.2 0 .4-.1.6-.3 0 0 0 .3-.1.3.2 0 .3-.1.4-.1 0 .1 0 .1-.1.2.2-.1.3-.1.5-.2v.2c.1 0 .3-.2.4-.3v.3l.3-.3v.3c.1 0 .2-.2.3-.3.1.1.1.2 0 .3.1-.1.2-.2.2-.3l.1.2c-.2 0-.1.1-.1.1.2.3.9.3 1.3.8v-.3h1.1v.5h.4l-1.4-1.8c-.1.1-.2.2-.3.2v-.3c-.2.2-.4.3-.6.4.4-.4 0-.6.1-.8a.76.76 0 0 0-.2.4c-.1 0-.2 0-.2-.1 0 .1-.2.2-.5.2.1-.1.1-.2.1-.3-.1.1-.2.2-.4.3-.1-.1-.1-.1-.1-.2-.1.1-.2.2-.6.2-.4.1-.8.2-1.1.5 0-.1.1-.2 0-.3-.1.1-.2 0-.2-.1 0 .1-.1.2-.1.3.1-.2.1-.3 0-.3s-.1.1-.2.1v.2c0-.1-.1-.1-.2-.2 0 .1 0 .2-.1.2.1.1.1.1.2.1 0 0-.1 0-.1.1.1-.1.2-.1.2 0h0 0zm7.1.6c.1-.3.1-.6.1-.8-.1-.3.1-.5.2-.3.1 0 0-.5-.3-.1-.1-.3.1-.8.3-.5.1-.3-.4-.5-.4 0-.2-.2-.2-.9.1-.4.2-.3-.2-.4-.3-.2a1.72 1.72 0 0 1 0-1.7c.6-.7 1.7 0 .9.6.1.1.2.1.3 0-.3.3.2.6.2.9.1-.2.1-.3 0-.4.1 0 .1.1.1 0 0 0 0-.1-.1-.3.2.1.2 0 .2 0l-.1-.3c-.1 0 .2 0 .3-.2-.2-.1-.7-1.3-1.7-.6-1.3 1 .7 2.9 0 4.2l.2.1zM38.7 75h-.2c0-.1.1-.1.1-.1s.1 0 .1.1zm-.5.4h-.1v-.1h.1v.1h0zm-3.4 0c0-.1 0-.1-.1-.3-.1-.1-.2-.1-.3 0-.1 0-.2 0-.3.1-.2 0-.2.2-.2.5 0-.1.1-.1.2-.1v-.2c0 .1.1.2.1.2 0-.2 0-.2.2-.1 0-.1-.1-.1-.1-.2l.2.2c.1-.2.2-.3.3-.1zm0 .1h-.1.1 0 0zm-.3.1h0 0 0 0 0zm-.2.2v-.2h-.1v.1l.1.1h0zm-.3 0l.1.1h.1l-.1-.1H34h0zm-.1 3l.1-.1-.1-.1c0 .1-.1.1 0 .2h0zm0-.5v-.1c-.1 0-.2 0-.2.1h.2 0zm.4-.3h-.1c0-.1 0-.1-.1-.1.1 0 .1.1.2.1zm.4.1h-.1c.1 0 .1-.1 0-.2.1.1.1.2.1.2h0zm.4-2.6c.1 0 .2.1 0 0-.2-.2-.3-.3-.4-.6v-.1c0 .3.2.5.4.7h0zm-.1-.3s-.1 0 0 0c.8-.7 1.8-.9 2.8-.8-.3.1-.5.2-.7.4-.8-.1-1.5.1-2.1.4h0zm0 5.5v-1h-1v.6h-1.2v.5l2.2-.1h0zm2.1 0v-1h-.9v.6h-1.1v.5l2-.1zm2.2 0v-1h-1v.5h-1.2v.5h2.2zm2.2 0v-1h-1v.5h-1.1v.5h2.1zm.1 0v-.4h.4c0 .2-.1.3-.2.4h-.2 0zm-.1.5h-1.2v-.5h1.4c0 .2-.1.4-.2.5h0zm-1.3 0h-1.9v-.5h1.9v.5zm-2 0h-2v-.5h2v.5zm-2.1 0h-2v-.5h2v.5zm-3.3 0h1.1v-.5h-1.1v.5h0zm5.3.6h-.9v-.5H39l-.6.2-.3.3h0zm-1 0h-.8l-.3-.3-.5-.2h1.6v.5h0zm-3.5 0h-.8v-.5h1.6l-.6.2-.2.3h0 0zm-.8.1h.7l-.4.4h-.3v-.4h0zm7.9-.1h.6c.1-.2.2-.4.2-.5h-1.8l.7.2.3.3h0zm.5.1l-.1.2-.3-.2h.4zm-.7 1.1v-.6h.3l-.3.6h0zm0-.7h.4l.1-.1-.6-.6-.2.4.3.3zm-.2-.7l-.2.3-.7-.3v-.3l.9.3h0zm-1 .1v-.4l-.8.3.3.3c0 0 .5-.2.5-.2zm-1.1.6l.4-.4-.3-.3-.7.7h.6zm-4.5 2.2v-.4h-.6c.2.2.4.3.6.4h0zm0-.9h-.8c0 .2.1.3.2.5h.6v-.5h0zm0-.6h-.9a.9.9 0 0 0 .1.5h.8V83h0 0zm0-.1h-.9v-.4h1l-.1.4h0zm.4-1l-.4.4h-.6l.7-.8.3.4h0zm.8-.2v-.4l-.9.3.2.3c0 0 .7-.2.7-.2zm.8.2l.2-.3-.9-.3v.4l.7.2zm.4.5l-.3-.4.2-.3.6.7h-.5zm1.4 0h-.9l-.3-.4H38l-.5.4h0zm.7.5h-1v-.4h.9l.1.4zm-1.1 0h-1v-.4h1v.4zm1.1.6h-2V83h2v.5zm0 .5h-1v-.4h.9l.1.4h0zm-1.1 0h-1v-.4h1v.4h0zm1.1.6h-2v-.5h2v.5z" fill="#edba00" class="c"/><path d="M33.7 84.5v-.4h-.6c.2.2.4.3.6.4m4.6 1.5c.1-.1.3-.2.4-.4-.2 0-.4-.1-.5-.2-.3.3-.8.3-1.2 0-.3.3-.8.3-1.1 0h-.1c.5.2 1 .3 1.5.5.1 0 .2-.1.3-.1.2.2.4.2.7.2h0zm.5-.5c.2-.2.3-.4.4-.6-.2 0-.4-.1-.5-.2-.3.3-.8.3-1.2 0-.3.3-.8.3-1.1 0-.3.3-.8.3-1.1 0-.3.3-.7.3-1.1 0 0 0-.1 0-.1.1l1.6.6c.1 0 .1 0 .2-.1h2.3c.2.1.4.2.6.2zm.9-1.2c-.1.2-.3.4-.5.6-.2 0-.4-.1-.6-.3-.3.3-.8.3-1.1 0-.3.3-.8.3-1.2 0-.3.2-.8.2-1.1-.1-.3.2-.8.2-1.1 0 0 .1-.1.1-.2.1s-.1 0-.2-.1V84a.91.91 0 0 0 1 0c.3.2.8.2 1.1.1v.5H38v-.4c.3.3.8.3 1.1 0 .3.1.4.2.6.1zm-1.5 1.8l-.1.1-.8-.3c.1 0 .2 0 .3-.1.2.2.4.3.6.3z" class="c m"/><path d="M35.1 75.5c.1.1.1.1 0 0-.2-.2-.3-.3-.4-.6v-.1c0 .3.1.6.4.7m-.1-.2s-.1-.1 0 0c.8-.7 1.8-.9 2.8-.9-.3.1-.5.2-.7.4-.8 0-1.5.1-2.1.5h0z" class="c d"/><path d="M44.8 86.4c.6.6 1.7.7 2.4.1.3.3.6.5 1.4.2l-.2-.2c.1-.1.2-.3.4-.3-.2-.1-.4-.1-.5 0v-.3c-.2.2-.5.4-.9.3 1-2.2-1.9-3.4-2.3-4.4-.1-.2-.1-.5-.1-.7.2-.3.4-.1.4.3s.2.4.5.4c-.3-.4.3-1.5-.6-1.5.6-.6-.7-1-.7-1.3-.4.5.2 1 .2 1.5s-.2 1-.3 1.4c-.1.8.9 1.6 1.2 2.4.1 0 .2.1.3.2.1-.1.1-.2 0-.3.4.1.6.5.5.9 0 .1 0 .1-.1.2.2 0 .3-.1.3-.2.4.5-.2 1-.6.8.3.1.5-.1.6-.4v-.3c-.1.1-.3.2-.4.1.2-.3.2-.7-.1-1 0 0-.1 0-.1-.1 0 .1 0 .3-.1.4-.1-.2-.2-.2-.3-.3-.1 0-.3.1-.3.3.4 0 .5.4.1.7-.3.3-.8 1.1.2 1h-.6c0 0-.1.1-.3.1m-1.2 0c-.6.6-1.6.7-2.3.1-.4.3-1 .4-1.5.2.1-.1.2-.1.2-.2-.1-.1-.3-.2-.4-.3.2-.1.3-.1.5-.1v-.3c.1.2.6.3.8.3-1-2.2 1.9-3.4 2.3-4.4.1-.2.1-.5.1-.8-.2-.3-.5-.1-.4.2 0 .2-.2.5-.4.5.3-.4-.3-1.5.6-1.5-.6-.6.7-1 .7-1.3.4.5-.2 1-.1 1.5 0 .5.2 1 .3 1.5.1.8-.9 1.6-1.2 2.3-.1 0-.2.1-.3.3-.1-.1-.1-.2 0-.3-.4.1-.6.5-.5.9 0 .1.1.1.1.2-.1 0-.3-.1-.3-.2v-.1c-.4.5.2 1 .6.8-.3.1-.6-.1-.6-.4V85c.1.1.3.2.4.1-.2-.3-.2-.7.1-1 0 0 .1 0 .1-.1 0 .1 0 .3.1.4.1-.1.2-.3.3-.3.3 0 .4.1.4.3-.4 0-.5.4-.1.7s.8 1.1-.2 1.1c.2.1.4.1.6 0-.1.1 0 .2.1.2h0 0zm3.1-3.3c-.3-.2-.3-.8.1-.8-.2.3-.2.6-.1.8h0zm-.3-.2c-.1-.1-.2-.1-.2-.2s0-.3.2-.2v.4zm-.9 4c.1.1 0 .2-.1.2s-.1-.1-.1-.2c.1-.1.2 0 .2 0zm-.1-.1c-.5.2-1.1-.2-.9-.5.2-.1.6.4.9.5h0zm-2.2 0c.4.1 1-.3.9-.4-.3-.2-.6.3-.9.4h0zm-.2.1c-.1.1 0 .2.1.2s0-.1 0-.2H43h0zm-.8-4c.1-.1.1-.1.2-.1 0-.1-.1-.2-.2-.2.1 0 .1.1 0 .3zm-.3.2c.3-.2.4-.8-.1-.8.1.3.2.5.1.8h0zm.4 3.2c.1 0 .2-.1.2-.2s-.1-.2-.2-.2-.2.1-.2.2c0 .2.1.3.2.2h0 0zm0 0c.1 0 .1-.1.1-.1 0-.1-.1-.1-.1-.1-.1 0-.1.1-.1.1-.1 0 0 .1.1.1h0zm3.9.1c-.1 0-.2-.1-.2-.2s.1-.2.2-.2h.1c.1 0 .2.1.2.2s-.1.2-.3.2h0zm0-.1c-.1 0-.1-.1-.1-.1 0-.1.1-.2.1-.2.1 0 .2.1.2.1 0 .1 0 .2-.2.2zm0-.1c-.1 0-.1 0-.1-.1s0-.1.1-.1.1 0 .1.1c.1.1-.1.1-.1.1h0zm-3.9 0c.1 0 .1 0 .1-.1 0 0 0-.1-.1-.1 0 .1-.1.1 0 .2-.1 0-.1 0 0 0-.1-.1 0 0 0 0h0zm7.8.2l-5.8 2.1-5.9-2.1c3-3.4 5-7.6 6-12.1.8 4.4 2.8 8.7 5.7 12.1h0zm-7.2.5c-.5.1-1.1-.1-1.5-.4-.5.4-1.1.4-1.6.1l.2-.2c-.1-.1-.2-.2-.4-.3.1-.1.2-.2.5-.1 0-.1 0-.2.1-.4.2.2.5.4.7.4-.3-1 0-2.1.9-2.8.1-.3.1-.7 0-1 .2-.1.3 0 .4.2.2 0 .2 0 .3.2.6-.5 1-.9.9-1.4 0-.5-.3-.4-.3.1 0 .3-.4.5-.7.5.4-.4-.3-1.3.6-1.7-.4-.7 1.1-.9.7-1.4.4.1.5.6.3 1.1-.4.9.2 1.5.1 2.3s-.9 1.4-1.2 2.1c.2 0 .4.1.4.4-.4-.1-.4.3-.1.6.5.4.6.8.4 1.1 0 .1.1.2.3.2.6-.3.5.2.3.3-.2.2-.5.3-.8.2-.1.2-.5.2-.5-.1h0 0zm2.8.1c.5.1 1.1 0 1.5-.3.3.3.8.4 1.6.1l-.3-.2c.1-.1.2-.2.4-.3-.1-.1-.3-.2-.6-.2 0-.1 0-.3-.1-.4-.2.2-.4.4-.7.4.3-1 0-2.1-.9-2.8-.1-.3-.1-.7.1-1-.1 0-.3 0-.4.1-.2-.1-.3 0-.3.2-.5-.5-1-.9-1-1.5s.3-.5.4 0c0 .3.3.5.5.5h.1c-.4-.4.3-1.4-.6-1.6.4-.7-1.1-.9-.7-1.4-.4.1-.5.5-.2 1.1.4.9-.2 1.5-.1 2.2.1.8 1 1.4 1.2 2.1-.2 0-.4.2-.4.4.3-.1.6.2.2.5-.6.4-.6.8-.4 1.1 0 .1-.1.2-.3.2-.5-.3-.5.2-.3.3.2.2.5.3.8.2 0 .1 0 .2.1.3.2.2.3.2.4 0 0 .1 0 0 0 0h0 0z" class="c m"/><path d="M44.8 86.4c.6.6 1.7.7 2.4.1.3.3.6.5 1.4.2l-.2-.2c.1-.1.2-.3.4-.3-.2-.1-.4-.1-.5 0v-.3c-.2.2-.5.4-.9.3 1-2.2-1.9-3.4-2.3-4.4-.1-.2-.1-.5-.1-.7.2-.3.4-.1.4.3s.2.4.4.4c-.3-.4.3-1.5-.6-1.5.6-.6-.7-1-.7-1.3-.4.5.2 1 .2 1.5s-.2 1-.3 1.4c-.1.8.9 1.6 1.2 2.4.1 0 .2.1.3.2.1-.1.1-.2 0-.3.4.1.6.5.5.9 0 .1 0 .1-.1.2.2 0 .3-.1.3-.2.4.5-.2 1-.6.8.3.1.5-.1.6-.4v-.3c-.1.1-.3.2-.4.1.2-.3.2-.7-.1-1 0 0-.1 0-.1-.1 0 .1 0 .3-.1.4-.1-.2-.2-.2-.3-.3-.1 0-.3.1-.3.3.4 0 .5.4.1.7s-.8 1.1.2 1H45c.1 0-.1.1-.2.1m-1.2 0c-.6.6-1.6.7-2.3.1-.4.3-1 .4-1.5.2l.2-.2c-.1-.1-.3-.2-.4-.3.2-.1.3-.1.5-.1v-.3c.1.2.6.3.8.3-1-2.2 1.9-3.4 2.3-4.4.1-.2.1-.5.1-.8-.2-.3-.5-.1-.4.2 0 .2-.2.5-.4.5.3-.4-.3-1.5.6-1.5-.6-.6.7-1 .7-1.3.4.5-.2 1-.1 1.5 0 .5.2 1 .3 1.5.1.8-.9 1.6-1.2 2.3-.1 0-.2.1-.3.3v-.3c-.4.1-.6.5-.5.9 0 .1.1.1.1.2-.1 0-.3-.1-.3-.2v-.1c-.4.5.2 1 .6.8-.3.1-.6-.1-.6-.4V85c.1.1.3.2.4.1-.2-.3-.2-.7.1-1 0 0 .1 0 .1-.1 0 .1 0 .3.1.4.1-.1.2-.3.3-.3.3 0 .4.1.4.3-.4 0-.5.4-.1.7s.8 1.1-.2 1.1c.2.1.4.1.6 0-.1.1 0 .2.1.2h0 0zm3.1-3.3c-.3-.2-.3-.8.1-.8-.2.3-.2.6-.1.8h0zm-.3-.2c-.1-.1-.2-.1-.2-.2s0-.3.2-.2v.4zm-.9 4c.1.1 0 .2-.1.2s-.1-.1-.1-.2c.1-.1.2-.1.2 0zm-.2-.1c-.5.2-1.1-.2-.9-.5.2-.1.6.4.9.5h0zm-2.2 0c.4.1 1-.3.9-.4-.2-.2-.6.3-.9.4h0zm-.2.1c-.1.1 0 .2.1.2s0-.1 0-.2c.1-.1 0-.1-.1 0h0zm-.7-4.1c.1 0 .1-.1.2-.1 0-.1-.1-.2-.2-.2v.3zm-.3.3c.3-.2.4-.8-.1-.8.1.3.1.5.1.8h0zm.4 3.2c.1 0 .2-.1.2-.2s-.1-.2-.2-.2-.2.1-.2.2c-.1.2 0 .2.2.2h0 0zm0 0c.1 0 .1-.1.1-.1h0c0-.1-.1-.1-.1-.1-.1 0-.1.1-.1.1-.1 0 0 .1.1.1h0zm3.9.1c-.1 0-.2-.1-.2-.2s.1-.2.2-.2h.1c.1 0 .2.1.2.2s-.1.2-.3.2zm0-.1c-.1 0-.1-.1-.1-.1 0-.1.1-.2.1-.2.1 0 .2.1.2.1 0 .1 0 .2-.2.2zm0-.1c-.1 0-.1 0-.1-.1s0-.1.1-.1h0c.1 0 .1 0 .1.1l-.1.1h0zm-3.9 0c.1 0 .1 0 .1-.1 0 0 0-.1-.1-.1 0 .1-.1.1 0 .2-.1 0-.1 0 0 0-.1 0-.1 0 0 0h0z" class="c k"/><path d="M46.1 79.4h3.7v-.6c-.2.1-.4.1-.5-.1v-.1c-.1.2-.4.2-.5.1l-.1-.1c-.2.1-.5.1-.6-.1-.2.3-.5.5-.9.4-.1.1-.3.1-.5.1-.1.1-.3.1-.5.1.2-.6.4-1.2.7-1.7 0-.2.1-.4.3-.6 0-.2.1-.4.2-.5.4-1.1 1.9-.7 1.5.4.3.2.7.3 1 .4.1-.1.3-.3.4-.5-.1 0-.1 0-.2-.1.1-.2.2-.3.3-.5-.2.1-.4.1-.6 0 .2 0 .3-.1.4-.2h-.5c-.3 0-.3-.1 0-.1-.1-.3.2-.5.7-.4 0-.1.1-.1.4-.1.8-.2.8.6.9.8h-.2c0 .2.2.3.2.6-.1 0-.1-.1-.2-.1 0 .2.1.4.2.5.3 0 .6-.2.8-.4-.4-.8.7-1.4 1.3-.5.2.2.3.4.4.7l1.2 2.2c-.2 0-.4 0-.6-.1-.2.1-.5.1-.7 0-.3.1-.7 0-.9-.4 0 .2-.2.3-.4.2-.1 0-.1-.1-.2-.1-.1.2-.3.2-.6.1-.1.2-.4.2-.6.1v.4h4.5v-5.6H44.5c.4 2 .9 4 1.6 5.8m2.8-4.2l-.2.1v-.2l-.3.1V75h-.2l.2-.2-.2-.1.2-.1-.2-.1h.3l-.1-.2.2.1v-.2l.2.2.1-.2.1.2.2-.1v.2l.2-.1v.1h.2l-.1.2.2.1-.2.1.1.2h-.2l.1.3-.2-.1v.2l-.2-.1h-.2v-.2zm3.5-1c-.4 0-.7.2-.7.6s.2.7.6.7h0c.4 0 .7-.2.7-.6 0 0-.2.2-.4.2s-.3-.1-.3-.3c0-.3.4-.4.6-.3 0-.1-.2-.3-.5-.3h0 0zm-2.2 1.6c-.1-.1-.3-.1-.4 0h.4z" class="c m"/><path d="M50.4 76c0-.1 0-.1 0 0-.2 0-.3.1-.4.1.2 0 .3-.1.4-.1m0-.2c0-.1.1-.2 0-.3-.3-.1-.6 0-.6.2.2-.1.4 0 .6.1zm.4-.1h0c0-.1 0-.1 0 0h0 0zm3.6 1.7c0 .1-.1.3-.2.3H54c.4.7.8 1.5 1.3 1.5-.4-.6-.7-1.2-.9-1.8zm.4 1.6c-.4-.4-.6-.8-.8-1.3-.1.1-.2.1-.4.1.4 1.2.8 1.3 1.2 1.2zm-.7 0c-.3-.3-.5-.7-.7-1.1-.1.1-.3.2-.4.1.3.7.6 1.1 1.1 1zM53 77.9c-.1.2-.2.2-.4.1.1.2.1.4.2.6s.4.2.4-.1-.1-.2-.2-.6h0zm-.5.2c-.1.1-.2.2-.4.1 0 .2.1.4.1.6s.5.3.4-.1c0-.3 0-.5-.1-.6h0zm-.4.1c-.1.1-.3.2-.5.1 0 .2.1.3.1.5 0 .1 0 .1.1.1.1.1.4.1.4-.2-.1-.1-.1-.3-.1-.5h0zm-.5 1.2c0-.4 0-.8-.1-1.1-.1.1-.3.1-.5 0 0 .4 0 .8.1 1.2l.5-.1h0zm-.6 0c-.1-.4-.1-.8-.1-1.1-.1.1-.3.1-.5 0 0 .4 0 .8.1 1.2l.5-.1h0zm-.6 0v-1.2c-.1.1-.3.1-.4 0-.1.4-.1.8 0 1.2h.4zm-.5-1.3c-.1.1-.3.1-.5 0v.5c0 .1.1.2.2.2s.2-.1.2-.2c.1-.2.1-.3.1-.5zm-.6-.1c-.1.1-.3 0-.4-.1h0c-.1.2-.1.3-.1.5 0 .3.3.3.5.1 0-.1.1-.3 0-.5h0zm-.4 0c-.1.1-.3 0-.4-.1-.1.2-.1.4-.2.6-.1.3.4.4.4.1s.1-.5.2-.6h0zm-.6-.2c-.1.1-.3 0-.4-.1-.2.4-.3.8-.6 1.2.6.1.9-.3 1-1.1h0zm-.4-.1c-.1.1-.3.1-.4 0 0 0 0-.1-.1-.1l-.6 1.4c.5 0 .6-.3 1.1-1.3h0zm-.5-.1c-.1.1-.3 0-.3-.1-.2.6-.5 1.1-.7 1.6.4-.1.5-.2 1-1.5h0zm6.7-.6c.1.1.1.2.2.3.1.4-.2.4-.4.2 0 .1 0 .2-.1.3-.1 0-.2 0-.3-.1 0 .3-.3.3-.5.2 0 .1-.1.3-.3.3-.1 0-.2-.1-.2-.2 0 .1-.1.2-.3.2-.1 0-.2-.1-.2-.2 0 .1-.1.3-.2.3s-.3-.1-.3-.2V78c0 .2-.1.3-.3.3s-.3-.1-.3-.3c-.1.4-.6.2-.5 0-.1.4-.6.2-.6 0-.1.3-.6.3-.5-.1 0 .1-.1.2-.3.2-.1 0-.2-.1-.2-.3h0c-.2.4-.6.1-.5-.1-.2.3-.6.2-.6-.1-.1.4-.6.2-.4-.1-.1.3-.6.3-.4-.1 0-.1.1-.2.1-.3.1.1.2.2.3.1 0 0 .1 0 .1-.1.1.2.2.3.5.1.1.1.2.3.4.2.1.2.3.3.4.2h.1c.1.1.3.2.5.1.1.1.2.2.4.1l.1-.1c.3 0 .7.1 1.1.1.1.1.3.1.5 0 .2.1.3.1.4-.1.2.1.4.1.5-.1.2.1.4.1.5-.1.1.1.3 0 .4-.1.1.1.3 0 .4-.1.2-.1.4-.2.5-.3zm-.4-.6c0 .2-.1.3-.4.2-.3.1-.5.2-.8.1-.2-.8.9-1.1 1.2-.3zm.1.1s.1.1.1.3c.1.4-.2.4-.3.2-.1.3-.3.3-.4.1 0 .3-.3.3-.4.1-.1.4-.4.3-.5.1-.1.4-.4.3-.5.1-.1.5-.4.2-.4 0 0 .4-.5.3-.4 0-.1.4-.5.3-.5 0-.2.5-.6.2-.5 0-.2.5-.5.2-.5-.1-.1.4-.5.3-.5-.1-.2.4-.6.1-.4-.1-.3.3-.5.1-.5-.1-.2.3-.5.1-.4-.2-.2.4-.5.1-.4-.2 0-.1.1-.1.1-.1.1.1.3.2.5.1.1.2.2.2.4.2.1.2.3.2.5.1.5.4 1.1.4 1.7.2.2.2.5.2.7 0 .5.3 1 .2 1.4-.2.1.1.3.1.4-.1.2.1.3 0 .4-.1.2.1.4 0 .4-.2zm-5 .1c-.1.4-.5.1-.5 0-.1.1-.2.1-.3.1l-.1-.1c-.2.2-.6.1-.5-.1.2-.4.6-.6 1-.4.4 0 .5.3.4.5zm2.8.6c-.1-.2-.2-.4-.2-.6h.2c0-.1-.2-.4-.2-.6l.2.1c-.1-.1 0-.8-.8-.7h-.3c-.1 0-.1.1 0 .1h.5v.1h-.1c0 .1-.1.1-.1.1-.1 0-.1-.1-.1-.1h-.2v.2l.1.1c-.1.2-.2.4-.4.6h.2c-.1.2-.2.4-.4.6.2 0 .3-.1.5-.2.1.2.4.3.5.1l.1-.1c.2.2.3.3.5.3z" fill="#b0b0b2" class="c"/><path d="M48.9 75.3l-.1-.1-.1.1v-.2l-.2.1V75h-.2l.1-.1-.2-.1.2-.1v-.2h.2v-.2l.2.1v-.2l.2.1.1-.2.1.1.1-.1v.2l.2-.1-.2.3h.2l-.1.1.2.1h-.2l.1.1h-.2l.1.2-.2-.1v.2l-.1-.1-.2.3z" class="c k"/><path d="M52.9 75.1c-.1.1-.2.2-.4.2s-.4-.1-.4-.4c0-.2.2-.4.4-.4h.2a.76.76 0 0 0-.4-.2c-.3 0-.6.2-.6.6 0 .3.2.6.6.6h0c.3-.1.5-.2.6-.4" class="c d"/><path d="M52.3 75.5c-.3 0-.6-.3-.5-.6 0-.3.3-.5.5-.5s.3.1.4.2h0-.2c-.2 0-.4.2-.4.4s.2.4.4.4.3-.1.4-.2h0c-.1.1-.3.2-.6.3m0-1.2c-.3 0-.6.2-.6.6 0 .3.2.6.6.6a.55.55 0 0 0 .5-.3c-.1.1-.2.1-.3.1-.2 0-.4-.2-.4-.4v-.1c0-.2.2-.4.4-.4h.1c0 0-.1-.1-.3-.1z" class="h"/><g class="c"><path d="M55.9 80.3h-9.3l-.3-.6h9.6v.6z" class="l"/><path d="M46.6 80.5h9.2v1.9a2.99 2.99 0 0 1-2.2 2.6l-3.4 1.3c-1.5-1.8-2.7-3.7-3.6-5.8m5.7 1v.3H52v.7h1.4v-.7h-.3v-.3h.4v-.6h-.4v.2h-.2v-.2h-.4v.2h-.2v-.2H52v.6h.3zm1.8 0v.3h-.2v.7h1.4v-.7H55v-.3h.4v-.6H55v.2h-.3v-.2h-.3v.2h-.2v-.2h-.3v.6h.2 0zm-3.6 0v.3h-.3v.7h1.3v-.7h-.3v-.3h.4v-.6h-.4v.2H51v-.2h-.4v.2h-.2v-.2h-.3v.6h.4 0zm-1.8 0v.3h-.3v.7h1.4v-.7h-.3v-.3h.4v-.6h-.4v.2h-.2v-.2h-.4v.2h-.2v-.2h-.3v.6h.3zm.9 2v.3h-.3v.7h1.3v-.7h-.3v-.3h.3v-.6h-.3v.2h-.2v-.2h-.2v.2h-.2v-.2h-.3v.6h.2zm1.8 0v.3h-.3v.7h1.4v-.7h-.3v-.3h.4v-.6h-.4v.2H52v-.2h-.4v.2h-.2v-.2h-.3v.6h.3zm1.8 0v.3h-.3v.7h1.4v-.7H54v-.3h.4v-.6H54v.2h-.2v-.2h-.3v.2h-.2v-.2h-.4v.6h.3z" fill="#edba00"/><path d="M53.9 84.5h.5v-.6h-.3v-.3h-.7v.3h-.3v.6h.5v-.4h.3v.4h0zm.5-1V83h-.3v.2h-.3V83h-.3v.2h-.3V83H53v.5h1.4zm-4.1 1h.5v-.6h-.3v-.3h-.7v.3h-.3v.6h.4v-.4h.4v.4zm.5-1V83h-.2v.2h-.3V83h-.4v.2h-.3V83h-.2v.5h1.4 0zm1.3 1h.4v-.6h-.3v-.3h-.7v.3h-.3v.6h.5v-.4h.4v.4zm.5-1V83h-.3v.2H52V83h-.3v.2h-.3V83h-.3v.5h1.5zm-3.3-1.1h.5v-.6h-.3v-.3h-.7v.3h-.3v.6h.5V82h.4l-.1.4zm1.8 0h.5v-.6h-.3v-.3h-.7v.3h-.3v.6h.4V82h.4v.4zm1.8 0h.5v-.6h-.3v-.3h-.7v.3h-.3v.6h.5V82h.3v.4zm1.8 0h.5v-.6h-.3v-.3h-.7v.3h-.3v.6h.4V82h.3l.1.4zm.6-1v-.5H55v.2h-.3v-.2h-.3v.2h-.3v-.2h-.3v.5c0 0 1.5 0 1.5 0zm-1.8 0v-.5h-.3v.2h-.3v-.2h-.3v.2h-.3v-.2h-.2v.5h1.4zm-1.8 0v-.5h-.3v.2h-.3v-.2h-.3v.2h-.3v-.2h-.3v.5c0 0 1.5 0 1.5 0zm-1.9 0v-.5h-.3v.2h-.3v-.2h-.3v.2h-.3v-.2h-.3v.5c0 0 1.5 0 1.5 0z" class="l"/><path d="M32.8 62.3h11.4v11.3H32.8V62.3zm2.4 1.9l-.2.2v-.3l-.3.1.1-.3h-.3l.2-.3-.4-.1.3-.1-.2-.2h.3l-.1-.3.3.1v-.3l.3.2.1-.3.1.3.2-.2v.3l.4-.1-.1.3h.3l-.2.2.3.1-.3.1.2.2h-.3l.1.3h-.2v.3l-.2-.2-.1.3-.3-.3zm5-.9c.2-.4.8-.6 1.2-.4.3.1.5.4.5.8s-.3.8-.7.9h-.1c-.4.1-.7-.1-.9-.4.9.2 1.2-1.1 0-.9zM36 65.8c.4-1.3-2.2-2-2.4 0-.1.6-.1 5.4-.3 6.3.6 0 .7-.3.8-.7.5-.2.8-.6.8-1.1.7-.3.7-1.2.8-1.8 0 .2.2.4.3.5.2-.1.4-.3.4-.6.1.2.2.3.3.4-.2.4-.5.7-.8 1.1h.4c-.2.4-.4.7-.7 1.1-.2.1-.4.1-.6 0-.1 0-.3.1-.3.2-.3 0-.2.2-.1.4 0-.1.1-.1.1-.1.1.1.3.1.4 0-.2.1-.4.3-.2.4 0 .2.1.3.1.3 0-.1 0-.1.1-.2.3.1.3-.2.4-.4 0 .3.1.5.4.5v.2s.1-.1.1-.3c.2-.2 0-.3-.1-.5.1.1.3.2.5.1.1 0 0 .1.1.1.1-.1.1-.2 0-.3 0-.3-.4-.3-.6-.2.3-.3.6-.7.9-1 0 .1.1.3.2.3.3-.3.4-.6.7-1 0 .1.1.2.2.2-.3.7-.8 1.4-1.2 2 .2.2.5.3.7.4 0 .1-.1.2-.1.3.3.3.7.5 1.1.7.4-.1.7-.4 1-.6 0-.1-.1-.2-.1-.3.2-.1.5-.2.7-.4-.5-.6-.8-1.3-1.1-2 0-.1.1-.1.1-.2l.7 1c.1-.1.2-.2.2-.3a4.74 4.74 0 0 0 1 1c-.3.1-.7-.1-.7.4 0 0-.1.3.1.3 0 0 0-.2.1-.2.1.1.4 0 .6 0-.3.2-.3.4-.1.6 0 .2.1.3.2.3-.1-.1-.1-.2 0-.2.3 0 .2-.3.3-.5.1.2.2.4.5.3.1.1.1.2.1.3.2-.1.2-.3.1-.4 0-.2-.1-.3-.3-.4.2 0 .3 0 .4-.1s.1 0 .1.1c.1-.2 0-.3-.1-.4-.2-.4-.7 0-.8-.1l-.9-1.2h.4l-.8-1.1a.78.78 0 0 0 .4-.4c.1.2.2.4.4.6.2-.1.3-.3.3-.4 0 .8.2 1.5.8 1.8a1.3 1.3 0 0 0 .8 1.2c.1.4.4.7.9.7-.1-1-.2-4.1-.3-6.2-.3-2.3-2.9-1.6-2.5-.2-.4.3-.9.6-1.3.7 0-.2-.1-.4-.2-.7.1 0 .2 0 .3-.1-.2-.2-.3-.3-.4-.6h.2c-.1-.1-.2-.3-.3-.5h.4c-.4-.4-.3-.8-.8-.9H38c-.2 0-.4.1-.3.2h-.2v-.3h.4v-.4h-.4v-.4h-.4v.4h-.3v.4h.4v.4c-.2.2-.3.5-.2.7l.1.1c0-.1 0-.1.1-.1v.4h.4v-.3h.3c-.1.3-.3.6-.4.7h.2c-.1.2-.2.4-.3.7-.6-.2-1-.4-1.4-.7z" class="m"/><path d="M40.4 63.2c1.1-.1.9 1.2 0 1.1.8.4 1.3-.1 1.3-.6 0-.4-.4-.8-.8-.7-.2-.1-.3 0-.5.2m3.1 4.3l.2 4.7c-.5 0-.8-.7-.8-1.5v-3.1c.1.1.2.2.3.2l.3-.3h0zm-.7 0l.1 4c-.5-.2-.7-.7-.7-1.2l-.1-2.6c.1.1.2.2.3.2.1-.1.2-.3.4-.4zm-.7.1v2.7c-.4-.2-.7-.7-.6-1.6v-1c.1.1.2.2.3.2s.2-.2.3-.3h0zm-.7.1c.1.4-.1.9-.3 1.2-.3-.3-.4-.7-.4-1.2.1.1.2.2.4.2.1 0 .2-.1.3-.2zm-.9.1c0 .6-.1.8-.4 1-.2-.3-.3-.7-.3-1.1.1.1.2.3.3.3.2 0 .3-.1.4-.2h0zm2.9-1.2c0 .4 0 .9-.3 1.1-.1-.1-.3-.2-.4-.4a.78.78 0 0 1-.4.4l-.3-.3a.78.78 0 0 1-.4.4l-.3-.3c0 .2-.2.4-.4.4s-.3-.1-.4-.3l-.4.4c-.3 0-.4-.5-.5-.9.1.1.2.3.4.3a.78.78 0 0 0 .4-.4c.1.1.2.2.4.2.2-.1.3-.2.4-.3.1.1.2.2.4.2a.78.78 0 0 0 .4-.4c.1.1.2.2.3.2l.3-.3c.1.1.3.2.4.3.3.1.4-.2.4-.3zm-.1-.9c.1.4.1.8-.2 1.2a.78.78 0 0 1-.4-.4c-.1.2-.2.3-.3.4l-.3-.3c-.1.1-.2.3-.4.4-.1-.1-.3-.2-.4-.3a.78.78 0 0 1-.4.4c-.1-.1-.3-.1-.4-.3-.1.2-.3.3-.5.4-.2-.1-.3-.2-.4-.3v-.3c.5-.1 1-.3 1.4-.7.1.1.2.3.4.4.2-.1.3-.3.4-.5a.78.78 0 0 0 .4.4c.1-.1.3-.2.4-.5.1.2.2.4.4.4.2-.1.3-.2.3-.4h0 0zm-.3.4c.2-.2.3-.4.2-.6-.1-.4-.5-.7-1-.8-.5 0-1 .3-1.1.8-.1.3.1.6.3.7.2-.1.3-.3.3-.6.1.2.2.4.4.5.2-.1.3-.3.4-.6.2.3.3.5.5.6zm-5.1-1.8c0 .2.2.4.4.4-.1.1-.2.3-.4.3-.2.4-.3.5-.4.7h.2c-.2.3-.3.7-.4 1.1.2-.1.4-.3.6-.6 0 .3.1.6.2.9.2-.2.3-.5.4-.7.1.3.2.5.4.7.2-.2.2-.5.2-.8.2.3.3.4.4.4 0-.3-.1-.6-.2-.9h.2l-.3-.6h.2c-.1-.2-.2-.4-.2-.6.1 0 .2.1.3.1-.1-.1-.2-.3-.3-.4-.1-.3-.4-.4-.9-.3h-.1-.2c-.1 0-.2.1-.2.1s.1.1.2.1h.5c.1 0 .3 0 .4.1 0 0 0 .1-.1.1-.1-.1-.2-.1-.2-.1 0 .1 0 .2-.1.3h0v-.1-.2c.1.2-.3.2-.2 0h-.4zm-.6.4v.5h.2v-.6c-.1.1-.1.1-.2.1h0zm0-1.6v.4h-.4v.2h.4v.5c.1 0 .1 0 .2-.1v-.4h.4v-.2h-.4v-.4h-.2 0zm0 5.1l.1.2c0 .3.1.5.3.8 0 .2.1.3.1.4l-.6 1c-.1-.1-.1-.3-.1-.5-.1.2-.3.3-.5.4 0-.2.1-.4.2-.6-.2 0-.3 0-.5.1l1-1.8zm1.4 2.1c.1-.1.2-.2.2-.4.2.7.6 1.3 1 1.9l-.6.3-.6-1.8zm-.3.1h0c.1.1.1 0 .2 0 .2.7.5 1.5.8 2.2-.3.2-.5.4-.9.6l-.9-.6c.3-.7.6-1.5.8-2.2zm-.3-.5c-.3.7-.7 1.3-1.2 1.9l.6.3.8-1.8c0-.1-.1-.2-.2-.4zm.4-.6h0c.1.2.2.4.4.5-.1.2-.2.4-.3.5-.1-.1-.2-.3-.3-.5 0-.2.1-.3.2-.5zm.8-1.4c0 .2-.1.5-.2.7 0 .2.1.3.2.4.1-.2.2-.5.2-.7-.1-.1-.1-.2-.2-.4zm-.4.7l-.3.6c0 .2.1.4.3.6.1-.2.2-.4.2-.7 0-.2-.1-.3-.2-.5h0zm-.4-.6c-.1.2-.2.4-.4.6.1.2.2.5.4.6.1-.2.2-.3.3-.6l-.3-.6h0zm-.8-.2c-.1.2-.1.3-.2.4 0 .3.1.5.2.7.1-.1.2-.3.2-.5-.1-.2-.1-.4-.2-.6zm.3.8c-.1.2-.1.3-.3.5 0 .3.1.5.3.7l.3-.6-.3-.6h0zm.9-1.2c0 .2-.2.4-.3.6l.3.6c.1-.1.2-.3.3-.7-.1-.2-.2-.4-.3-.5h0zm.7-.2c0 .2-.1.5-.2.7 0 .2.1.3.2.4 0-.5.1-.8 0-1.1zm-.4-.6c0 .2-.1.4-.2.6 0 .2.1.4.3.6l.3-.9c-.2-.2-.3-.2-.4-.3zm-.7 0l-.3.6c0 .3.1.5.3.7.2-.2.3-.4.3-.6-.1-.2-.2-.5-.3-.7h0zm-.3.7c-.1.2-.2.3-.3.4 0 .2.1.5.2.7.1-.1.2-.3.3-.5-.1-.2-.2-.4-.2-.6zm-.3-.8c-.1.1-.2.3-.4.3 0 .3.1.5.3.8.1-.1.2-.3.3-.4-.1-.3-.2-.5-.2-.7zm-.5.5c-.1.4-.1.7 0 1.1.1-.1.2-.3.3-.4-.1-.2-.2-.4-.3-.7zm-.9.7c0 .6.1.8.4 1 .3-.3.4-.6.4-1l-.3.3c-.3-.1-.4-.2-.5-.3zm-.8-.1c-.1.5.1.9.4 1.3.3-.3.4-.8.3-1.2-.1.1-.2.2-.3.2-.2-.1-.3-.2-.4-.3h0zm-.6-.1l-.1 2.7c.4-.2.7-.7.6-1.6v-1c-.1.1-.2.2-.3.2-.1-.1-.2-.2-.2-.3zm-.8-.1l-.1 4c.4-.2.7-.7.7-1.2l.1-2.6c-.1.1-.2.2-.3.2l-.4-.4h0zm-.7 0l-.2 4.6c.6 0 .8-.7.8-1.5l.1-3.1c-.1.1-.2.2-.3.2-.2 0-.3-.1-.4-.2zm.1-.9c0 .4 0 .8.3 1.1.1-.1.3-.2.4-.4a.78.78 0 0 0 .4.4l.3-.3a.78.78 0 0 0 .4.4l.3-.3c.1.2.3.3.4.4.2-.1.3-.2.4-.3l.4.4c.3 0 .4-.5.4-.9-.1.2-.2.3-.4.3a.78.78 0 0 1-.4-.4c-.1.1-.2.2-.4.2-.2-.1-.3-.2-.4-.3-.1.1-.2.2-.4.2-.1-.1-.3-.2-.4-.3-.1.1-.2.2-.3.2l-.3-.3c-.1.1-.3.2-.4.3-.2 0-.3-.3-.3-.4zm.1-.9c-.2.4-.1.9.2 1.2a.78.78 0 0 0 .4-.4c.1.2.2.3.3.5l.3-.3c.1.1.2.3.4.4.1-.1.3-.1.4-.3.1.2.3.3.4.4.2 0 .3-.1.4-.2l.4.4c.2 0 .3-.1.4-.3v-.3c-.5-.1-1-.4-1.4-.7-.1.1-.2.3-.4.4-.2-.1-.3-.3-.4-.5a.78.78 0 0 1-.4.4c-.2-.1-.3-.3-.4-.5-.1.2-.2.4-.4.4-.1-.2-.2-.4-.2-.6h0 0zm.3.4c-.2-.2-.3-.4-.2-.6.1-.4.5-.8 1-.7.8 0 1.1.5 1.1.7.1.3-.1.6-.3.7-.2-.1-.3-.3-.4-.6-.1.2-.2.4-.4.5-.2-.2-.3-.4-.4-.6-.1.4-.2.6-.4.6zm1.2-1.9l-.2.1V64l-.3.1.1-.2h-.2l.2-.2-.3-.2.2-.1-.1-.2h.2l-.1-.2.2.1v-.2l.2.2.1-.3.1.2.2-.2v.3l.3-.1-.1.2h.3l-.2.2.3.1-.2.1.2.2h-.4l.1.2-.2-.1-.1.2-.2-.1-.1.2v-.1h0zm4.5 4.1l1 1.8c-.2 0-.4 0-.6-.2.1.2.2.4.2.6-.3 0-.4-.2-.6-.4 0 .2.1.4 0 .5-.3-.3-.5-.6-.7-1 .1-.1.1-.3.2-.4.1 0 .2-.5.3-.8.1 0 .1 0 .2-.1z" class="k"/><path d="M36.5 70.1l-.6 1c-.1.1-.3.2-.5.1-.2 0-.4 0-.4.1.1.1.1.1.1.2.1 0 .2 0 .3-.1.1 0 .1 0 0 .1-.2.2-.4.3-.3.4.1 0 .2 0 .2.1.1-.1.2-.3.3-.4s.1-.1.2 0c0 .2-.1.5.1.5.1-.2.1-.1.2-.1 0-.2-.1-.3-.2-.4s0-.1.2-.1.2.1.2.1c0-.1 0-.1.1-.2-.1-.1-.2-.1-.3 0-.1 0-.2 0-.1-.1.3-.2.6-.6.8-.9-.1.1-.2.1-.3.1-.1-.1-.1-.2 0-.4m3.7.4c.2.3.5.6.8.8.1.1.1.2-.1.2h-.5c.1.1.1.1.1.2.2 0 .3-.1.5-.2.2 0 .2 0 .2.1-.1.1-.4.4-.3.6.1 0 .1-.1.2.1.1-.2.2-.4.2-.6 0-.1.1-.1.2-.1h.1c0 .2.2.4.3.5 0-.1.1-.2.2-.1 0-.1-.2-.3-.4-.4s-.1-.2.1-.2.2.2.4.1c-.1 0 0-.1 0-.2-.1-.1-.3 0-.3 0-.2.1-.4 0-.5-.1l-.7-1c-.2.2-.1.4-.5.3zm-2.4-6.2c-.2 0-.4 0-.6.1s-.3.4-.1.5c.1-.4.5-.3.9-.2-.1.1-.3.2-.4.1v.1c.2 0 .4-.1.6-.2-.3 0-.4-.2-.4-.4zm-.2.1h0c.1.1 0 .2 0 .1v-.1c-.1 0-.1 0 0 0 0-.1 0-.1 0 0h0zm6.8-2.1h11.4v11.3H44.4V62.3zm4.4.8c-1.1.1-1.9 1.1-1.8 2.2.1.5.3 1 .8 1.4h-.4c-.6.1-.7.6-1.8.6.6.9 1.7 1.2 2.6.8-.1.1 0 .3.1.4 0 .2 0 .4.1.5-.1.2 0 .4.2.5.2.5.3 1 .6 1.4-.4.2-.5.6-.3 1 .1.3.4.4.7.4.2.4.7.5 1 .3.1-.1.3-.2.3-.3.4.1.8-.1.9-.5.1-.3-.1-.7-.4-.9.1-.5.2-.9.4-1.4.2-.1.3-.3.3-.6.1-.1.2-.4.1-.6.1-.1.1-.1.2-.3 1 .2 1.9-.2 2.5-1-.7 0-1.5-.4-2.4-.5 1.8-.7.9-3.6-1-3.7.9.5 1.2 1.5.7 2.4-.1.1-.2.3-.3.4 0 0-.3.3-.2.5-.2-.3-.6-.3-.9-.1-.4-.2-.8-.2-1.2 0a.91.91 0 0 0-1 0c0-.2-.6-.3-.7-.9-.2-.6.2-1.4.9-2zm.1.6l1-.1.4-.9.3.9h1l-.8.6.3.9-.8-.6-.8.6.3-.9-.9-.5zm-2.3 8.5v.2h-.1v-.1c-.2.1-.5 0-.6-.2-.1 0-.2 0-.3-.1s-.1-.2 0-.4c-.1 0-.1.1-.2.1v-.1s.1-.1.2-.1c-.1-.1-.1-.2-.2-.3 0-.3.1-.2.2-.4s0-.3.1-.4.3-.1.4-.1c-.1 0-.1 0-.1-.1s.1 0 .1 0c0 .1.1.1.1.2 0-.1 0-.2.1-.2.1-.1.3-.1.4.1.1 0 .3-.1.4 0 .2 0 .3.2.3.3v-.1h.1s0 .1-.1.1c.1-.1.2-.1.3 0 .1 0 .1.2.1.5.1.1.2.2.2.3 0 .2-.1.3-.3.4.1 0 .1.1.2.1 0 0 0 .1-.1.1 0-.1-.1-.1-.2-.2 0 .1 0 .3-.2.4-.2.2-.3.3-.4.2-.2 0-.3-.1-.4-.2zm8-.3c-.6.3-1.1.1-1.2-.3-.1-.6.6-.8 1.2-.6-.8-.9-2-.6-2.1.4-.1 1.3 1.6 1.5 2.1.5h0z" class="l"/><path d="M46.6 71.5c-.1 0-.3-.1-.3-.2 0-.2.1-.3.2-.3s.3.1.3.3c0 .1-.1.2-.2.2m-.1.1c-.2 0-.2 0-.3-.2-.1 0-.6 0-.6.2s.2.2.3.3c.2.1.5.3.6.1s0-.2 0-.4h0zm.4.7l.3-.3c.1-.1.2-.2.2-.3s-.2-.2-.5-.2c0 .1-.2.1-.3.2v.5c.1 0 .2.1.3.1zm.6-1.3v-.4c-.1-.2-.2-.2-.3 0s-.3.3-.4.4c0 .2.1.3 0 .4.3 0 .4.2.6.2.1 0 .2-.1.3-.3 0-.1 0-.2-.2-.3zm-1.1-.2h.3c.1 0 .2-.2.4-.3.1-.2.1-.2 0-.3-.2-.1-.4-.1-.5 0-.2-.1-.3-.1-.4 0s-.1.4.2.6zm-.2 0c-.1-.2-.4-.7-.7-.4-.1.1 0 .3 0 .4-.3.2-.1.4.1.5.2-.1.4-.1.6-.1-.2-.1-.1-.2 0-.4z" class="d"/></g><path d="M46.9 72.3c-.1 0-.2-.1-.3-.1h0 0v-.4-.1h0 0 .1c.1 0 .2 0 .2-.1h0 0c.3 0 .4.1.5.2h0c0 .2 0 .2-.2.3-.1.1-.2.2-.3.2h0m-.3-.2c.1.1.2.1.3.1.1-.1.2-.1.3-.2s.1-.2.1-.3 0-.1-.4-.2c0 .1-.1.1-.2.1h-.1v.5zm-.4.1c-.2 0-.3-.1-.4-.2l-.1-.1c-.1-.1-.2-.1-.2-.2s0-.1.1-.1c.2-.1.3-.1.5-.1h0c.1.1.1.2.3.2h0v.5h0c0 0 0 .1-.2 0h0zm-.2-.7c-.1 0-.3 0-.4.1l-.1.1c0 .1.1.1.2.2l.2.1h0c.1.1.2.2.4.2.1 0 .1 0 .2-.1v-.4c-.3 0-.3-.1-.5-.2h0zm1.5.1h0c-.1 0-.1 0-.2-.1s-.2-.1-.3-.1h0 0v-.3-.1h0 0c.1 0 .1-.1.1-.2.1-.1.1-.2.2-.2 0 0 .1-.1.2-.1s.1.1.2.1h0v.1.3c.1.1.2.2.2.3-.1.2-.2.4-.4.3h0 0zm-.5-.2c.1 0 .2.1.3.1s.1.1.2.1.2-.1.2-.2-.1-.2-.1-.3h0v-.3-.1c0-.1-.1-.1-.1-.1s-.1 0-.1.1l-.2.2c0 .1-.1.1-.1.1v.1c-.1.1-.1.2-.1.3zm-.4.2c-.2 0-.3-.1-.3-.2 0-.2.1-.3.2-.3s.2 0 .3.1.1.1.1.2c0 0-.2.2-.3.2zm-.1-.6h0c-.2 0-.2.2-.2.3s.1.2.3.2c.1 0 .2-.1.3-.2 0-.1 0-.1-.1-.2s-.2-.1-.3-.1zm-1 .4h0l-.3-.3c0-.1.1-.2.1-.2v-.2-.2c.1-.1.2-.1.3-.1.2 0 .4.3.4.5h0 0c-.1.1-.2.2-.1.4h0 0c-.1 0-.3 0-.4.1h0zm.2-1c-.1 0-.2 0-.2.1v.2.2h0c-.1.1-.1.1-.1.2s.1.2.2.3c.2-.1.3-.1.5-.1 0-.1 0-.3.1-.4h0c-.1-.1-.2-.4-.5-.5h0zm1 .5h-.3c-.1-.2-.4-.5-.2-.6s.2-.1.4 0c.1-.1.3-.1.6 0h0c.1.1.1.1 0 .3h0c-.1 0-.1.1-.2.2-.1 0-.2.1-.3.1h0zm-.3 0h.3s.1-.1.2-.1l.2-.2v-.2c-.2-.1-.4-.1-.5 0h0c-.1-.1-.2-.1-.3 0-.3 0-.1.3.1.5z" class="h"/><g class="c"><path d="M49.7 72.3h-.2c.2.3.6.5 1 .3l.3-.3h-.2c-.2.2-.5.3-.8.1 0 0 0 0-.1-.1m.8 0c-.2.2-.5.2-.6 0 .2-.1.4-.1.6 0h0zm.8-1.3l.3-1.4h-.4c-.1.4-.2.9-.2 1.3.1.1.2.1.3.1zm.8-2.6c.1-.1.2-.3.1-.4-1.3 0-1.3 1.2-1.2 2.6.1-.9.3-2.4 1.1-2.2zm0 .1c-.4-.1-.7.4-.7.7.2 0 .7-.3.7-.7zm-2.6 2.4c-.1-.5-.1-.9-.2-1.2h-.6c.1.5.3.9.5 1.3 0 0 .3-.1.3-.1zm-.2-1.3v-.2c-.3 0-.6 0-.8-.2-.1.2.2.5.8.4zm.2.6c-.1-1-.3-1.7-1.2-1.7-.1-.1-.1-.3 0-.4 1.1.2 1.4 1 1.3 2.1v.6l-.1-.6h0zm-.3-.8c-.4.1-.8-.2-.8-.6v-.2c.3 0 .7.3.8.8zm.4 1.6c-1 .1-1 1.2-.1 1.3.2 0 .4-.1.6-.1h.4c.1 0 .1.1.5.1 1.1.1 1.1-1 .5-1.2-.2 0-.3-.1-.5-.1v-.7-1.1c.1-1.3 1.3-1.6 1.5-1.1.8.1 1.7-.2 2.3-.8-.5.2-.8.2-1.1.2-.4-.1-.6-.2-.9-.2-.1 0-.3.1-.3.2v.1c.1.2.4.2.7.2-.2.1-.5.1-.7.1-.2-.1-.2-.4-.1-.5s.2-.2.4-.1c.3 0 1.1.4 1.8.2-.2 0-.4-.1-.6-.1-1.1-.3-2.3-.8-2.2.5-.1.1-.6-.1-.6-.3-.2.1-.2.3-.1.5-.2 0-.4 0-.6-.2-.2.1-.3.4-.2.6-.5-.1-.7-.3-.7-.6-.1.1-.3.1-.4 0 0-.2 0-.3-.1-.5-.2.2-.5.3-.8.3.2-.6-.2-.9-.8-.8-.4 0-1 .6-1.8.6a2.2 2.2 0 0 0 1.4-.2c1-.5 1.2.8 0 .6 1.2 0 .7-.8 0-.5a3.08 3.08 0 0 1-1.3.3c.6.7 1.6.8 2.4.4 1.9.2 1.4 2.1 1.4 2.9h0 0zm-1-7.8c-.8.5-1.1 1.5-.8 2.4.2.5.7.5.7.8.1.3-.4.4-.6.4-.7-.4-1-1.2-.9-1.9.2-.8.8-1.5 1.6-1.7h0zm3.2 3c-.1.2.1.4.3.5h.1c1-.3 1.3-1.1 1-2.2-.1-.3-.3-.7-.6-.9-.2-.2-.5-.4-.8-.5 1.3 1.5.3 2.5 0 3.1zm.2.6c-.2 0-.4-.2-.4-.4-.3-.4-.5-.4-.9-.1-.3-.2-.8-.2-1.1 0-.5-.2-.8-.2-.9 0s0 .4-.5.5c.2.1.4.3.3.8.1.1.4-.1.7-.4.1.2.1.4.1.6.2 0 .3-.1.4-.3 0 .3 0 .7.4.7 0-.3.1-.6.3-.7.2.2.4.3.4.2 0-.2.1-.4.3-.6 0 .3.3.4.6.4 0-.3.2-.4.3-.7zm-.8 2.8c0-.1 0-.1.1-.2.2 0 .5-.1.6-.2 0 .2-.3.4-.7.4zm.2 2.3c-.1 0-.2-.1-.2-.2s.1-.2.3-.2c-.1-.1-.2-.1-.3 0 0 0 0 .1-.1.1-.1.4.1.4.3.3zm-2.3 0c.1.1.2.1.3.1s.1-.1.1-.2c0-.2-.2-.3-.4-.1.1 0 .3 0 .3.1s-.2.1-.3.1z" fill="#b0b0b2"/><path d="M49.8 64.3l-.7-.5h.8l.3-.8.3.8h.8l-.7.5.3.7-.7-.4-.7.5c0 0 .3-.8.3-.8z" class="k"/></g><path d="M49.5 65.1l.3-.8-.7-.5h.9l.3-.8.3.8h.9l-.7.6.3.8-.7-.4-.9.3zm-.3-1.3l.6.5-.2.7.7-.4.7.4-.3-.7.6-.5h-.8l-.3-.8-.3.7-.7.1z" class="h"/><path d="M54.3 72.1c-.4.2-1.1 0-1.1-.5-.1-.4.2-.7.6-.8h.4a1.07 1.07 0 0 0-1.4.1c-.1.2-.2.4-.2.6.1.8 1.1 1.1 1.7.6" class="c d"/><path d="M53.6 72.4c-.2 0-.3 0-.5-.1-.3-.1-.5-.4-.5-.7 0-.4.2-.7.5-.9.4-.2.9-.2 1.2.1h0c-.2-.1-.5 0-.7.1-.2.2-.3.4-.2.6 0 .2.1.3.3.4s.5.2.8.1h0c-.4.3-.6.4-.9.4m0-1.7c-.2 0-.3 0-.5.1-.3.2-.5.5-.4.8 0 .3.2.5.5.6.4.1.8.1 1.1-.1-.2.1-.5 0-.7-.1a.55.55 0 0 1-.3-.5c0-.2 0-.5.2-.7.2-.1.4-.2.6-.1h-.5z" class="h"/><defs><path id="B" d="M49.2 48.2h0c-.2 0-.5.1-.7.1-.2.1-1.1.1-1.1.1-.3 0-.5 0-.7.2-.3.3-.4.6-.3 1 0 .2.3.4.3.6.1.3.2.6.2 1l.2.5h5l.1-1s.1-.3.2-.4.3-.3.3-.5c0-.3-.1-.6-.3-.8-.3-.2-.7-.4-1.1-.4-.2 0-.4-.1-.6 0h-.5c-.3-.4-.6-.4-1-.4"/><path id="C" d="M44.3 41.8c0 .1 0 .1-.1.1s-.1 0-.1-.1 0-.1.1-.1.1 0 .1.1h0"/><path id="D" d="M43.2 41.8c0 .1 0 .1.1.1s.1 0 .1-.1 0-.1-.1-.1c0 0-.1 0-.1.1"/><path id="E" d="M42 41.8c0 .1 0 .1.1.1s.1 0 .1-.1 0-.1-.1-.1-.1 0-.1.1"/><path id="F" d="M42.1 41.9c-.1 0-.1-.1-.1-.1 0-.1.1-.1.1-.1.1 0 .1.1.1.1h0c0 .1 0 .1-.1.1m0-.2s-.1.1 0 0c-.1.1 0 .2 0 .2s.1 0 0-.2c.1.1 0 0 0 0h0z"/><path id="G" d="M45.5 41.8c0 .1 0 .1-.1.1s-.1 0-.1-.1 0-.1.1-.1.1.1.1.1"/><path id="H" d="M45.4 42c-.1 0-.1-.1-.1-.1l.1-.1c.1 0 .1.1.1.1s0 .1-.1.1m0-.3s-.1.1 0 0c-.1.1 0 .2 0 .2s.1 0 0-.2c.1.1 0 0 0 0h0z"/><path id="I" d="M46.4 46.2l-.4-.3.4-.1.1.2c.1 0-.1.2-.1.2z"/><path id="J" d="M40.1 43.1c0 .1 0 .1.1.1s.1 0 .1-.1 0-.1-.1-.1h0l-.1.1"/><path id="K" d="M40.1 42.9c0 .1 0 .1.1.1s.1 0 .1-.1 0-.1-.1-.1l-.1.1"/><path id="L" d="M40.3 43c-.1 0-.1-.1-.1-.1 0-.1.1-.1.1-.1.1 0 .1.1.1.1h0c0 .1-.1.1-.1.1m0-.2s-.1.1 0 0c-.1.1 0 .2 0 .2v-.2c0 .1 0 0 0 0h0z"/><path id="M" d="M40.3 42.8c-.1 0-.1-.1-.1-.1 0-.1.1-.1.1-.1.1 0 .1.1.1.1h0c0 .1 0 .1-.1.1m0-.2s-.1.1 0 0c-.1.1 0 .2 0 .2s.1-.1 0-.2c.1.1 0 0 0 0h0z"/><path id="N" d="M40.3 42.3c0 .1 0 .1.1.1s.1 0 .1-.1 0-.1-.1-.1c0-.1-.1 0-.1.1"/><path id="O" d="M40.4 42.4c-.1 0-.1-.1-.1-.1 0-.1.1-.1.1-.1.1 0 .1.1.1.1h0c.1 0 0 .1-.1.1m0-.2s-.1 0 0 0c-.1.1 0 .2 0 .2s.1-.1 0-.2h0 0z"/><path id="P" d="M40.2 42.5c0 .1 0 .1.1.1s.1 0 .1-.1 0-.1-.1-.1h0c0 0-.1 0-.1.1"/><path id="Q" d="M40.3 42.6c-.1 0-.1-.1-.1-.1 0-.1.1-.1.1-.1.1 0 .1.1.1.1h0c.1 0 0 .1-.1.1m0-.2c-.1.1 0 .2 0 .2s.1-.1 0-.2h0 0z"/><path id="R" d="M41 42c-.1 0-.1-.1-.1-.1 0-.1.1-.1.1-.1.1 0 .1.1.1.1h0l-.1.1m0-.2s-.1 0 0 0c-.1.1 0 .2 0 .2v-.2h0z"/><path id="S" d="M42.4 41.8c0 .1 0 .1.1.1s.1 0 .1-.1 0-.1-.1-.1h0c-.1 0-.1.1-.1.1"/><path id="T" d="M42.7 42c-.1 0-.1-.1-.1-.1 0-.1.1-.1.1-.1.1 0 .1.1.1.1.1 0 0 .1-.1.1m0-.3s-.1.1 0 0c-.1.1 0 .2 0 .2s.1 0 0-.2c.1.1.1 0 0 0h0z"/><path id="U" d="M43 41.8c0 .1.1.1.1.1s.1 0 .1-.1 0-.1-.1-.1c0 0-.1 0-.1.1"/><path id="V" d="M42.8 41.6c-.1 0-.1-.1-.1-.1 0-.1.1-.1.1-.1.1 0 .1.1.1.1h0c.1 0 0 .1-.1.1m0-.3s0 .1 0 0c-.1.1 0 .2 0 .2s.1 0 0-.2c.1.1.1 0 0 0h0z"/><path id="W" d="M42 41.6c0 .1 0 .1.1.1s.1 0 .1-.1 0-.1-.1-.1-.1.1-.1.1"/><path id="X" d="M42.1 41.8c-.1 0-.1-.1-.1-.1 0-.1.1-.1.1-.1.1 0 .1.1.1.1h0c0 0 0 .1-.1.1m0-.2s-.1 0 0 0c-.1.1 0 .2 0 .2s.1-.1 0-.2h0 0z"/><path id="Y" d="M47.4 43.1c0 .1 0 .1-.1.1s-.1 0-.1-.1 0-.1.1-.1.1.1.1.1h0"/><path id="Z" d="M47.3 42.8c-.1 0-.1-.1-.1-.1l.1-.1c.1 0 .1.1.1.1.1.1 0 .1-.1.1m0-.2s-.1.1 0 0c-.1.1 0 .2 0 .2s.1-.1 0-.2c.1.1.1 0 0 0h0z"/><path id="a" d="M45.3 41.8c0 .1 0 .1-.1.1s-.1 0-.1-.1 0-.1.1-.1.1 0 .1.1"/><path id="b" d="M44.6 42c-.1 0-.1-.1-.1-.1 0-.1.1-.1.1-.1.1 0 .1.1.1.1l-.1.1m0-.2s-.1 0 0 0c-.1.1 0 .2 0 .2v-.2h0z"/><path id="c" d="M44.6 41.6c-.1 0-.1-.1-.1-.1l.1-.1c.1 0 .1.1.1.1.1 0 0 .1-.1.1h0m0-.2c-.1.1 0 .2 0 .2s.1-.1 0-.2h0 0z"/><path id="d" d="M43.8 42.5s0 .1-.1.1-.1 0-.1-.1 0-.1.1-.1.1.1.1.1h0"/><path id="e" d="M43.8 42.7s0 .1-.1.1-.1 0-.1-.1 0-.1.1-.1.1 0 .1.1h0"/><path id="f" d="M43.7 42.2c-.1 0-.1-.1-.1-.1l.1-.1c.1 0 .1.1.1.1s0 .1-.1.1h0m0-.2s0 .1 0 0c-.1.1 0 .1 0 .1s.1 0 0-.1c.1.1.1 0 0 0h0z"/></defs><clipPath id="g"><use href="#B"/></clipPath><g transform="translate(5.734 6.011)" clip-path="url(#g)"><defs><path id="h" d="M34.7 36.2h6.5v3.4h-6.5z"/></defs><clipPath id="i"><use href="#h"/></clipPath><g transform="translate(-.006 .002)" clip-path="url(#i)"><pattern id="j" patternTransform="matrix(4.968000e-02 0 0 5.872728e-02 -14983.499 760.39)" href="#A"/><path d="M34.6,36h6.9v3.6h-6.9V36z" fill="url(#j)"/></g></g><use class="c d" href="#C"/><path d="M44.2 41.9c-.1 0-.1-.1-.1-.1 0-.1.1-.1.1-.1.1 0 .1.1.1.1h0c0 .1 0 .1-.1.1m0-.2s-.1.1 0 0c-.1.1 0 .2 0 .2v-.2c0 .1 0 0 0 0h0z" class="e"/><use class="c d" href="#D"/><path d="M43.3 41.9c-.1 0-.1-.1-.1-.1 0-.1.1-.1.1-.1.1 0 .1.1.1.1h0c.1.1 0 .1-.1.1m0-.2s-.1 0 0 0c-.1.1 0 .2 0 .2s.1-.1 0-.2h0 0z" class="e"/><use class="c d" href="#E"/><use class="e" href="#F"/><path d="M46.4 45.5h-5l-.3-.5c0-.3-.1-.6-.2-1-.1-.2-.3-.3-.3-.6a1.69 1.69 0 0 1 .3-1c.2-.1.5-.2.7-.2.4 0 .7-.1 1.1-.1.6-.1 1.2-.1 1.8 0 .2.1.7 0 1.1.1.4 0 .8.2 1.1.4.2.2.3.5.3.8 0 .2-.2.3-.3.5l-.2.4-.1 1.2z" fill="none" stroke="#70211f" stroke-width="1.556"/><path d="M41.2 45.6v-.3c.3.2.4 0 .4-.3 0-.2-.2-.3-.3-.3-.1-.3-.1-.7 0-1.1.3.2.6.5.7.9a.76.76 0 0 0-.2.4c.1.6.7.5.8-.1.1.3.3.4.6.4.2 0 .3-.2.4-.4 0-.2-.2-.3-.4-.4-.1-.6.2-1.1.7-1.4.4.4.7.9.7 1.4-.2 0-.4.2-.4.4.3.7.9.5 1-.1 0 .3.5 1 .8.2 0-.2 0-.3-.2-.5.2-.7.4-.8.6-1 .1.3.1.7 0 1.1-.2 0-.3.2-.4.3 0 .7.5.3.6.1l-.1.6c-1.8 0-3.6 0-5.3.1" fill="#6e7378"/><path d="M46.5 45.7h0c-1.8-.2-3.5-.2-5.2 0h0v-.4h0c.1.1.2.1.3.1 0 0 .1-.2.1-.4s-.1-.2-.3-.3h0 0c-.1-.4-.1-.7 0-1.1h0 0c.3.2.6.5.7.9h0c-.1.1-.2.2-.2.4s.2.4.3.4h0c.1 0 .3-.1.4-.5h.1c0 .2.2.4.4.4s.4-.1.5-.4c0-.2-.2-.3-.3-.4h0 0c-.1-.5.1-1 .7-1.5h0 0v.1c.4.3.6.8.6 1.3h0 0c-.2.1-.4.2-.4.4.1.3.4.4.6.4s.4-.2.4-.4h0 .1 0c0 .2.2.4.4.5.1 0 .3-.1.3-.3s-.1-.3-.2-.4h0 0c.2-.7.4-.9.6-1h0 0c.1.3.1.6 0 .9v.2h0 0c-.2 0-.3.2-.3.3 0 .2.1.3.2.3h0c.2 0 .3-.1.3-.3h.1l-.2.8zm-2.4-.2l2.3.1v-.4c-.1.1-.2.2-.3.2s-.2-.1-.2-.4h0c0-.2.2-.3.4-.4v-.1c.1-.3.1-.6 0-.9-.2.1-.4.3-.6.9.1.1.2.3.2.5-.2.4-.3.4-.4.4a.78.78 0 0 1-.4-.4c-.1.2-.2.3-.4.3s-.5-.1-.6-.4h0 0c0-.2.2-.4.4-.4 0-.5-.2-.9-.6-1.2l-.1-.1c-.6.5-.8.9-.7 1.4a.78.78 0 0 1 .4.4h0 0c-.1.2-.3.4-.6.4-.2 0-.4-.1-.4-.3-.1.3-.3.4-.4.4h0c-.1 0-.3-.1-.4-.4 0-.2.1-.3.2-.4-.1-.4-.3-.7-.6-.9-.1.3-.1.7 0 1 .2.1.3.1.3.4 0 .2 0 .4-.1.4h-.3v.2c1-.3 1.9-.3 2.9-.3z" class="e"/><g class="c"><path d="M44.1 41.9h.3.6.4.5.3c.1 0 .2 0 .3.1.1 0 .2.1.2.1l.2.2c0 .1.1.2.1.2 0 .3.1.6 0 .8h0v-.6-.3c0-.1 0-.1-.1-.2 0-.1-.1-.1-.2-.2-.1 0-.1-.1-.2-.1s-.2-.1-.2-.1H46h-.6-.8-.3-.3l.1.1h0z" class="g"/><use class="d" href="#G"/></g><use class="e" href="#H"/><g class="c"><path d="M44.1 41.7s.3-.1.4-.1h.3.2l.2.1.3.3.3.3c.1.1.1.2.2.3v.2.2c0 .1-.1.3-.1.3l.3.3h.1c.1-.1.1-.2.2-.3 0-.1.1-.1.1-.2V43v-.2c0-.1 0-.1-.1-.2 0 0 0-.1-.1-.1-.2-.3-.4-.5-.6-.8-.1-.1-.3-.2-.4-.3s-.3-.1-.4-.1c-.2 0-.4 0-.6.1-.1 0-.3.1-.4.1l.1.2z" class="g"/><path d="M44.1 41.6s.2-.1.3-.1h.3.2.2s.4.2.5.4l.3.3a.76.76 0 0 1 .2.4v.3.3.2l.2.3.1-.2c0-.1.1-.1.1-.2v-.1c0-.1-.1-.2-.1-.3-.1-.2-.1-.3-.2-.4s-.2-.3-.3-.4l-.3-.3c-.1 0-.1-.1-.2-.1-.1-.1-.2-.1-.4-.1s-.4 0-.6.1c-.1-.1-.2-.1-.3-.1h0z" class="i"/></g><path d="M46.2 43.6l-.2-.3h0v-.2-.3-.2c-.1-.1-.1-.3-.2-.4l-.3-.3c-.1-.1-.5-.4-.5-.4h-.2-.2 0-.3c-.1 0-.3.1-.3.1h0-.1 0c.1-.1.2-.1.3-.1.2-.1.4-.1.6-.1.1 0 .3.1.4.1h0l.2.1.3.3c.1.1.2.3.3.4a.76.76 0 0 1 .2.4c0 .1.1.2.1.3v.1h0c0 .1-.1.2-.1.2.2.1.2.2 0 .3h0zm-.1-.3l.2.2.1-.1c0-.1.1-.2.1-.2v-.1c0-.1-.1-.2-.1-.3-.1-.2-.1-.3-.2-.4s-.2-.3-.3-.4l-.3-.3c-.1 0-.1-.1-.2-.1h0c-.1-.1-.2-.1-.4-.1s-.4 0-.6.1c-.1 0-.2.1-.3.1l.3-.1h.3 0 .2.2 0l.5.4.3.3a.76.76 0 0 1 .2.4h0v.3.3c0-.1 0 0 0 0z" class="e"/><g class="c"><path d="M42.1 45.5c-.5 0-.9.1-.9.1v.1s.4-.1.9-.1h1.3.8 1.3c.5 0 .9.1.9.1v-.1s-.4-.1-.9-.1-1-.1-1.3-.1h-.8c-.5.1-.9.1-1.3.1" class="j"/><path d="M43.8 46.3l2.4.1.2-.8c-.9-.1-1.8-.1-2.8-.1h.2l-2.6.1.2.8c.8-.1 1.5-.1 2.4-.1z" class="i"/></g><path d="M41.3 46.5l-.2-.8h0c.8-.1 1.7-.1 2.4-.1h.3l2.6.1h.1l-.2.8h0c-.9-.1-1.6-.1-2.4-.1-.9-.1-1.7-.1-2.6.1zm2.5-.2l2.4.1.1-.7c-.9-.1-1.8-.1-2.6-.1l-2.5.1.1.7c.9-.1 1.6-.1 2.5-.1h0 0z" fill="#383330"/><path d="M42.1 45.5h0c-.3 0-.7 0-1 .1v.1c.3 0 .7-.1 1-.1h1.3.8 1.3c.5 0 1 .1 1 .1s.1-.1 0-.1c0 0-.5-.1-1-.1h-3.4" fill="#828282" class="c"/><path d="M41.1 45.8h0c0-.1 0-.1 0 0-.1-.1-.1-.2 0-.2h0c.3 0 .6-.1.9-.1h.1 1.3.8 1.3c.5 0 1 .1 1 .1h0v.1s0 .1-.1.1h0s-.5-.1-1-.1h-1.3-.8H42h0c-.2-.1-.6 0-.9.1h0zm3.1-.2h1.3c.5 0 .9.1 1 .1h0s-.6-.1-1-.1c-.4-.1-1-.1-1.3 0l-.8-.1h-1.3-.1c-.3 0-.6 0-.9.1.3 0 .6-.1 1-.1h0 1.3l.8.1h0z" class="h"/><path d="M42.2 46.3h0c-.3 0-.6 0-.9.1v.1c.3 0 .6-.1.9-.1h1.2.8 1.2c.5 0 .9.1.9.1s.1-.1 0-.1-.5-.1-.9-.1h-1.2-.8c-.4-.1-.8-.1-1.2 0h0 0z" fill="#828282" class="c"/><path d="M41.3 46.5h0s-.1 0 0 0c-.1-.1-.1-.2 0-.2h0 0c.3 0 .6-.1.9-.1h0v-.1.1h1.2.8 1.2c.4 0 .9.1.9.1h0v.1s0 .1-.1.1h0s-.5-.1-.9-.1h-1.2-.8-1.2 0c-.2.1-.5.1-.8.1h0zm2.9-.1h1.2c.4 0 .8.1.9.1-.1 0-.5-.1-.9-.1-.6-.1-1.1-.1-1.2 0l-.7-.1h-1.2-.1c-.3 0-.6 0-.8.1.3 0 .6-.1.9-.1h0 1.2l.7.1z" class="h"/><path d="M43.3 45.7h1 0v.5h0-1 0v-.5" class="c g"/><path d="M44.3 46.2h-1s-.1 0-.1-.1v-.5s0-.1.1-.1h1s.1 0 .1.1l-.1.6m-1-.5v.5h1v-.4l-1-.1z" class="f"/><path d="M43.4 45.7h.7v.3h-.7v-.3c0 .1 0 0 0 0" fill="#dedede" class="c"/><path d="M44.1 46.1h-.7s-.1 0-.1-.1v-.3s0-.1.1-.1h.7s.1 0 .1.1l-.1.4c.1-.1.1 0 0 0m-.7-.4h0v.3h0 .7 0v-.3h0-.7z" class="f"/><path d="M41.3 46.3l.4-.3-.5-.2v.3l.1.2z" class="c j"/><path d="M41.3 46.4l-.1-.3v-.3l.6.2c0 0-.5.4-.5.4zm-.1-.3l.1.2.3-.3-.4-.1v.2z" class="f"/><path d="M41.3 46.2l.3-.2-.4-.1-.1.2.2.1z" class="c d"/><path d="M41.3 46.3l-.2-.2.1-.2.4.1-.3.3zm-.1-.2l.1.1.2-.2-.3-.1v.2h0z" class="f"/><path d="M46.4 46.3l-.5-.3.5-.2v.3.2z" class="c j"/><path d="M46.2 46.3l-.4-.4.6-.2v.3l-.2.3zm-.3-.3l.3.3.1-.2v-.2l-.4.1z" class="f"/><g class="c"><use class="j" href="#I"/><use class="d" href="#I"/></g><path d="M46.4 46.3l-.5-.3.4-.1.1.2v.2zM46 46l.2.2.1-.1-.1-.1H46z" class="f"/><g class="c"><g class="g"><path d="M43.3 41.9H43h-.6-.4-.5-.3c-.1 0-.2 0-.3.1-.1 0-.2.1-.2.1l-.2.2c0 .1-.1.2-.1.2 0 .3-.1.6 0 .8h.1v-.6-.3c0-.1 0-.2.1-.2 0-.1.1-.1.2-.2.1 0 .1-.1.2-.1s.2-.1.2-.1h.3.6.8.3c0 .2.1.2.1.1h0z"/><path d="M43.4 41.7s-.3-.1-.4-.1h-.3-.2l-.2.1-.3.3-.3.3c-.1.1-.1.2-.2.3v.2.2c0 .1.1.3.1.3l-.3.3h-.1l-.2-.2c0-.1-.1-.1-.1-.2v-.1-.2c0-.1 0-.1.1-.2 0 0 0-.1.1-.1.2-.3.4-.5.6-.8.1-.1.3-.2.4-.3s.3-.1.4-.1c.2 0 .4 0 .6.1.1 0 .3.1.4.1l-.1.1z"/></g><path d="M43.4 41.7s-.2-.1-.3-.1h-.3-.2-.2c-.2.1-.3.2-.5.4l-.3.3a.76.76 0 0 0-.2.4v.3.3.2l-.2.3-.1-.4c0-.1-.1-.1-.1-.2v-.1c0-.1.1-.2.1-.3.1-.2.1-.3.2-.4s.2-.3.3-.4l.3-.3c.1 0 .1-.1.2-.1.1-.1.2-.1.4-.1s.4 0 .6.1c.1 0 .2 0 .3.1h0 0z" class="i"/></g><path d="M41.2 43.6h0c0-.1-.1-.2-.1-.2 0-.1-.1-.1-.1-.2h0 0v-.1c0-.1.1-.2.1-.3.1-.2.1-.3.2-.4s.2-.3.3-.4l.3-.3c.1 0 .1-.1.2-.1.1-.1.3-.1.4-.1.2 0 .4 0 .6.1.1 0 .3.1.3.1h.1l-.1.1h0l-.3-.1h-.3 0-.2-.2c-.2.1-.3.2-.5.4l-.3.3c-.1.1-.2.2-.2.4v.3.3.2h0c0 0-.2 0-.2 0zm-.2-.5c0 .1.1.1.1.2l.1.1.2-.2v-.1-.3-.3h0c.1-.1.1-.3.2-.4l.3-.3c.2-.1.3-.3.5-.4h0 .2.2 0 .1-.4c-.1 0-.3.1-.4.1s-.1.1-.2.1l-.3.3c-.1.1-.2.3-.3.4a.76.76 0 0 0-.2.4c0 .2 0 .3-.1.4h0z" class="e"/><path d="M44.2 41.6s-.1.1 0 0c-.1.1-.2 0-.2 0s.1-.1.2 0c-.1-.1 0-.1 0 0h0" class="c d"/><path d="M44.1 41.7s-.1 0-.1-.1 0-.1.1-.1.1 0 .1.1 0 .1-.1.1h0m0-.1s-.1 0 0 0c-.1.1 0 .1 0 .1s.1-.1 0-.1h0z" class="e"/><path d="M43.3 41.6s0 .1 0 0c.1.1.2 0 .2 0s-.1-.1-.2 0c0-.1 0-.1 0 0h0" class="c d"/><path d="M43.4 41.7s-.1 0-.1-.1 0-.1.1-.1.1 0 .1.1-.1.1-.1.1h0m0-.2s-.1 0 0 0c-.1.1 0 .1 0 .1v-.1z" class="e"/><path d="M43.7 43s-.1.2-.2.2-.2-.2-.2-.2.1-.1.1-.2v-.3c0-.1-.1-.2-.1-.3v-.3c0-.1.1-.2.1-.3s.1-.1.1-.2h.3c.1 0 .1.1.1.2s.1.1.1.2v.2.2s0 .1-.1.1v.2c0 .1 0 .2.1.3 0 0 0 .1.1.1 0 0-.1.1-.1.2-.1.1-.3-.1-.3-.1h0z" class="c g"/><path d="M43.6 43.2c-.1 0-.2-.2-.2-.2h0 0s.1-.1.1-.2v-.3-.1-.1h0c0-.1-.1-.2 0-.3 0-.1.1-.2.1-.4 0-.1.1-.1.1-.2h.3c.1.1.1.1.1.2s.1.2.1.2v.2.2.1.1.2c0 .1 0 .2.1.3 0 0 0 .1.1.1h0 0s-.1.2-.2.2-.2-.1-.2-.1c-.2 0-.3.1-.4.1h0 0 0zm-.2-.2c0 .1.1.1.2.1h0c.1 0 .1-.1.2-.2h0 0c0 .1.1.2.2.1.1 0 .1-.1.1-.1v-.1c0-.1-.1-.2-.1-.3v-.2-.1-.1-.3-.2c0-.1-.1-.2-.1-.2h0-.3c-.1 0-.1.1-.1.1-.1.1-.1.2-.1.3v.3h0v.1.2.3.3z" class="e"/><path d="M43.7 43c-.1.1-.2.1-.2 0 .1-.2.1-.5 0-.7a.96.96 0 0 1 .2-.9c.3.2.4.6.2.9-.1.2-.1.5 0 .7-.1.2-.2 0-.2 0" fill="#636669" class="c"/><path d="M43.9 43.1h0s-.1 0-.1-.1l-.1.1c-.1 0-.1 0-.2-.1h0 0c.1-.2.1-.5 0-.7a.96.96 0 0 1 .2-.9h0c.3.2.4.6.2.9-.1.2-.1.5 0 .8h0 0s-.1 0 0 0m-.2-.1h0l.1.1s.1 0 .1-.1c-.1-.2-.1-.5 0-.7.2-.1.3-.4.2-.6s-.4-.3-.6-.2-.3.4-.2.6c0 .1.1.1.2.2.1.2.1.5 0 .7h.2c-.1 0 0 0 0 0h0 0z" fill="#262121"/><path d="M43.8 42.8s0 .1 0 0c-.1.1-.2 0-.2 0h.2" class="c d"/><path d="M43.7 43c-.1 0-.1 0-.1-.1s0-.1.1-.1.1 0 .1.1h0c0 0 0 .1-.1.1m0-.2c-.1.1 0 .1 0 .1.1 0 .1 0 0-.1h0z" class="e"/><path d="M41.6 45c0 .1 0 .2.1.3 0 .1.1.1.1.1h.2.1c.1 0 .1-.1.1-.1s.1-.1.1-.2l.2.2c.1 0 .1.1.2.1h.3c.1 0 .1-.1.2-.1.1-.1.1-.1.1-.2v-.3c0-.1-.1-.1-.1-.2l-.2-.2h-.1V44c0-.2.1-.3.2-.4l.3-.3.2-.2.2.2c.1.1.1.2.2.2.1.1.1.2.2.3 0 .1.1.2.1.3v.3h-.1c-.1 0-.1.1-.2.1 0 .1-.1.2-.1.2v.3c0 .1.1.1.2.2s.2.1.3.1.2 0 .3-.1c.1 0 .2-.1.2-.2 0 .1.1.1.2.2l.1.1h.3l.1-.1c.1-.1.1-.1.1-.2v-.2c0-.1-.1-.1-.1-.2l-.1-.1c.1-.2.1-.3.2-.4s.1-.2.2-.3l.2-.2c0 .1.1.2.1.3v.4c0 .1 0 .2-.1.3H46c-.1 0-.1.1-.1.1 0 .1-.1.1-.1.2v.3c0 .1.1.1.1.1h.2c.1 0 .1 0 .1-.1.1 0 .1-.1.1-.1 0-.1.1-.1.1-.2v-.6l.3-.5c.1-.1.2-.3.3-.4l.3-.3V43c-.1 0-.1.1-.2.1-.1.1-.2.2-.2.3-.1.1-.2.3-.3.4s-.1.2-.2.3-.1.2-.1.2v.4.2c0 .1-.1.1-.1.1h-.1s-.1 0-.1-.1v-.2c0-.1 0-.2.1-.3 0-.1.1-.1.1-.1h.1c0-.1 0-.2.1-.3v-.3-.4c0-.1-.1-.2-.1-.2s-.2.1-.2.2l-.2.2c-.1.1-.1.2-.2.4 0 .1-.1.3-.1.3.1 0 .1.1.1.1s.1.1.1.2v.2c0 .1 0 .1-.1.1l-.1.1h-.1c-.1 0-.1-.1-.1-.1l-.1-.1v-.2h-.1c0 .1 0 .1-.1.2 0 .1-.1.1-.1.1-.1 0-.1.1-.2.1h-.2c-.1 0-.1 0-.2-.1l-.1-.1v-.2c0-.1 0-.1.1-.2 0 0 .1-.1.2-.1h.1v-.4c0-.2-.1-.4-.3-.6l-.6-.6-.3.3-.3.3c-.1.2-.2.3-.2.5v.5h.1c.1 0 .1.1.2.1 0 .1.1.1.1.2s-.1.2-.2.3c-.1 0-.1.1-.2.1s-.2 0-.3-.1c-.1 0-.1-.1-.1-.1 0-.1-.1-.1-.1-.2h-.1v.1c0 .1-.1.1-.1.2l-.1.1h-.1s-.1 0-.1-.1l-.1-.1c0-.1 0-.1-.1-.2v-.2c0-.1.1-.1.2-.2 0 0-.1-.2-.1-.3s-.1-.2-.2-.3-.1-.2-.2-.3-.1-.1-.2-.1v.3.4c0 .1 0 .2.1.4v.1c.1 0 .1.1.2.1-.1.3 0 .4 0 .6v.1c0 .1 0 .1-.1.2h-.1-.1c-.1-.1-.1-.1-.1-.2v-.2-.3l-.3-.6c-.1-.1-.1-.3-.2-.4s-.1-.2-.2-.2c-.1-.1-.3-.2-.3-.2v.2l.2.1c.1.1.2.2.2.3.1.1.1.2.2.3l.2.4v.1.3c0 .1 0 .2.1.3 0 .1.1.1.1.1.1.1.1.1.2.1h.1c.1-.1.1-.1.1-.2v-.3c0-.1-.1-.2-.2-.2l-.1-.1-.1-.2v-.2-.3-.1l.1.1.1.1c.1.1.1.1.1.2s.1.1.1.2.1.1.1.2v.1l-.1.1-.1.1c.1-.1.1-.1.1.1" class="c g"/><path d="M41.4 45.5h0c-.1 0-.2-.1-.2-.1l-.1-.1c0-.1-.1-.2-.1-.3h0v-.3-.1c-.1-.2-.1-.3-.2-.4s-.1-.2-.2-.3-.1-.2-.2-.2l-.2-.3h0l-.1-.3.1.1c.1.1.2.1.3.2l.2.2c.1.1.2.2.2.4l.3.6h0 0v.3.2c0 .1.1.1.1.2h.1.1c0-.1.1-.1.1-.2v-.2c0-.1-.1-.1-.1-.1s-.1-.1-.2-.1h0 0v-.1c0-.1-.1-.2-.1-.4v-.4-.3h0 0c.1 0 .2.1.2.1l.3.3c.1.1.1.2.2.3 0 .1.1.3.1.3h0l-.2.2v.2.2s0 .1.1.1l.1.1h.1l.1-.1c0-.1.1-.1.1-.2v-.1h.1 0c0 .1.1.1.1.2s.1.1.2.1.2.1.3.1.1 0 .2-.1.1-.2.1-.3 0-.1-.1-.2c0-.1-.1-.1-.2-.1h-.1 0 0v-.5c0-.2.1-.3.2-.5.1-.1.1-.2.2-.3l.1-.1.3-.3h0 0l.6.6c.1.1.1.2.2.3 0 .1.1.2.1.3v.4h0 0-.1c-.1 0-.1 0-.1.1v.1.2l.1.1c.1 0 .1.1.2.1h.2c.1 0 .1 0 .2-.1l.1-.1c0-.1 0-.1.1-.2h0 .2 0v.2s0 .1.1.1l.1.1h.1c.1 0 .2-.1.2-.2v-.2c0-.1 0-.1-.1-.1l-.1-.1h0 0s.1-.2.1-.3h0c0-.1.1-.2.2-.3s.1-.2.2-.3l.2-.2h0 0l.1.2v.4.3h0l.1-.1s.1-.2.2-.3.2-.3.3-.4h0c.1-.1.1-.2.2-.2s.1-.1.2-.1h.1v.2h0l-.3.3c-.1.1-.2.2-.3.4h0c-.1.1-.3.4-.3.5v.6c0 .1 0 .1-.1.2 0 .1-.1.1-.1.1s-.1.1-.2.1h-.2c-.1 0-.1-.1-.1-.2v-.1l-.1.1-.1.1h-.3c-.1 0-.1 0-.1-.1-.1 0-.1-.1-.2-.2l-.2.2c-.1.1-.2.1-.3.1s-.2-.1-.3-.1-.1-.1-.2-.2c0-.1-.1-.2-.1-.3s0-.2.1-.3.1-.1.2-.1h.1v-.3c0-.1 0-.2-.1-.3s-.1-.2-.2-.3-.1-.2-.2-.2l-.3-.4-.2.2-.1.1s-.1.2-.2.2c-.1.1-.1.3-.2.4v.3h.1c.1 0 .2.1.2.2.1.1.1.1.1.2v.3c0 .1-.1.1-.1.2-.1.1-.1.1-.2.1h-.3c-.1 0-.2 0-.2-.1-.1 0-.1-.1-.1-.1l-.1.1c0 .1-.1.1-.1.1h-.1-.2c-.1 0-.1-.1-.2-.1 0 0 0-.1-.1-.1h0c0 .1-.1.2-.1.2h-.1m-1.3-2l.2.1c.1.1.2.2.2.3.1.1.1.2.2.3s.1.2.2.4v.1h0v.3h0c0 .1 0 .2.1.3l.1.1s.1.1.2.1h.1c.1-.1.1-.1.1-.2v-.3c0-.1-.1-.1-.2-.2l-.1-.1h0 0c0-.1 0-.2-.1-.2V44v-.3-.2h0 0l.1.1.1.1s.1.1.1.2c.1.1.1.1.1.2l.1.2v.1.1h0l-.1.1s0 .1-.1.1v.2c0 .1 0 .2.1.3l.1.1h.1.1l.1-.1.1-.1h0 0c0 .1.1.1.2.1s.1.1.2.1h.3c.1 0 .1-.1.2-.1s.1-.1.1-.2v-.2c0-.1 0-.1-.1-.2s-.1-.1-.2-.1h-.1 0 0v-.4c0-.2.1-.3.2-.4s.1-.2.2-.3l.1-.1.2-.2h0 0l.2.2c.1.1.1.2.2.3s.1.2.2.4c0 .1.1.2.1.3v.3h0 0-.1c-.1 0-.1.1-.2.1 0 .1-.1.1-.1.2v.2c0 .1.1.1.1.2.1 0 .2.1.2.1.1 0 .2 0 .3-.1.1 0 .2-.1.2-.2h0 0c0 .1.1.1.2.2l.1.1h.2l.1-.1c0-.1.1-.1.1-.2v-.2c0-.1 0-.1-.1-.2h0c0-.1-.1-.1-.1-.1h0 0c.1-.2.1-.3.2-.5.1-.1.1-.2.2-.3l.2-.2h0 0c0 .1.1.2.1.3v.2h0v-.4c0-.1 0-.1-.1-.2v.1c-.1.1-.2.1-.2.2-.1.1-.1.2-.1.3h0c0 .1-.1.2-.1.2.1 0 .1.1.1.1 0 .1.1.1.1.2v.3c0 .1-.1.1-.1.2-.1.1-.2.1-.3.1s-.1-.1-.2-.1c-.1-.1-.1-.2-.1-.4h0c0 .1 0 .1-.1.2 0 .1-.1.1-.1.1-.1 0-.1.1-.2.1h-.2c-.1 0-.1-.1-.2-.1l-.1-.1v-.2c0-.1 0-.1.1-.2 0-.1.1-.1.2-.1h.1V44c0-.1-.1-.2-.1-.3s-.1-.2-.2-.3c-.2-.2-.3-.4-.5-.6 0 0-.2.2-.2.3l-.1.1c-.1.1-.1.2-.2.2-.1.2-.2.3-.2.5v.5h.1c.1 0 .1.1.2.1 0 .1.1.1.1.2s-.1.2-.2.3-.1.1-.2.1-.2 0-.3-.1c-.1 0-.1-.1-.2-.1 0-.1-.1-.1-.1-.2h0v.1c0 .1-.1.2-.1.2l-.1.1h-.2c-.1 0-.1 0-.1-.1l-.1-.1c0-.1-.1-.1-.1-.2v-.2c0-.1.1-.1.2-.2 0-.1-.1-.2-.1-.3s-.1-.2-.2-.3l-.3-.3c-.1 0-.1-.1-.2-.1v.3.1.3c0 .1 0 .2.1.4v.1c.1 0 .1.1.2.1s.1.1.1.2v.2c0 .1 0 .1-.1.2l-.1.1h-.2c-.1-.1-.1-.1-.1-.2v-.2-.3c0-.1-.2-.4-.3-.6-.1-.1-.2-.3-.3-.4l-.2-.2c.4 0 .4-.1.3-.2h0 0 0zm5.9 1.4h0s-.1 0-.1.1-.1.1-.1.2h0v.2c0 .1 0 .1.1.1h.2.1l.1-.1c0-.1 0-.1.1-.2v-.6h0 0l.3-.5h0c.2-.2.4-.5.6-.6v-.1l-.1.1-.2.2v.1c-.1.1-.2.3-.3.4s-.1.2-.2.3c0 .1-.1.2-.1.2v.4.2c0 .1-.1.1-.1.1h-.1-.2s-.1-.1-.1-.2 0-.2.1-.3c0-.1.1-.1.1-.1l-.1.1zm.4-.1h0 0 0c0 .1-.1.1-.1.1l-.1.1c0 .1-.1.2-.1.3v.1l.1.1h.1l.1-.1v-.2c.1-.2.1-.3 0-.4zm-5.2-.1c.1 0 .1 0 .1.1.1 0 .1.1.2.2v-.1c0-.1 0-.1.1-.1l.1-.1v-.1-.1s0-.1-.1-.2c0-.1-.1-.1-.1-.2s-.1-.1-.1-.2l-.1-.1h-.1v.1.3.2c-.1.3 0 .3 0 .3zm4.4 0l.1.1h0c0 .1.1.1.1.2v-.1l.1-.1h0 .1c0-.1.1-.2.1-.3v-.4c0-.1 0-.2-.1-.2l-.1.1c-.1.1-.1.2-.2.3 0 .1 0 .3-.1.4zm.7 0v.2h0 0v-.2h0 0z" class="h"/><path d="M44.1 41.3c0 .2-.2.4-.4.4s-.4-.2-.4-.4.2-.4.4-.4h0c.2 0 .4.2.4.4" class="c j"/><path d="M43.7 41.7c-.2 0-.4-.2-.4-.4s.2-.4.4-.4.4.2.4.4c0 .3-.1.4-.4.4m0-.7c-.2 0-.4.2-.4.4s.2.4.4.4.4-.2.4-.4h0c0-.3-.2-.4-.4-.4z" class="e"/><path d="M43.6 40.9v.3h-.3v.2h.8v-.2h-.3v-.3h-.2z" fill="#dedede" class="c"/><path d="M44.2 41.5h-.9v-.3h.3v-.3h.2v.3h.3l.1.3zm-.9-.1h.8v-.2h-.3v-.3h-.1v.3h-.3l-.1.2z" class="e"/><path d="M46.7 44.2c0-.1.1-.1.1-.2s.1-.1.1-.1h.1v.1c0 .1 0 .1-.1.2h-.2c.1.1.1.1 0 0 0 .1 0 .1 0 0" class="c d"/><path d="M46.7 44.4h0v-.1c0-.1.1-.1.1-.2s.1-.1.1-.2c.1-.1.1 0 .1 0v.1c0 .1 0 .1-.1.2 0 .1-.1.1-.1.2 0-.1 0 0-.1 0m0-.1h0 0l.2-.2c0-.1.1-.1.1-.2h0l-.1.1c-.1.1-.1.2-.2.3z" class="f"/><path d="M46.6 44.8s0-.1 0 0c0-.1 0-.1 0 0l.1.1v.1.1-.1c-.2-.1-.2-.2-.1-.2" class="c d"/><path d="M46.6 45.1c-.1-.1-.1-.1-.1-.2v-.1h0s0-.1.1-.1 0 0 .1.1v.1s0 .1-.1.2c0-.1 0 0 0 0h0m0-.3v.1-.1h0z" class="f"/><path d="M47.1 43.7l.1-.1h0 0v.1h-.1c0 .1 0 .1 0 0h0" class="c d"/><path d="M47.1 43.8h0s0-.1 0 0v-.2s0-.1.1-.1h.1v.1.1c-.1 0-.1.1-.2.1m.1-.2h0c0 .1-.1.1 0 0h0 0z" class="f"/><path d="M42 45.7h0l-.2.2h0l.2.2h0l.2-.2h0l-.2-.2z" class="c i"/><path d="M42.1 46.2h0l-.3-.2v-.1l.2-.2h.1l.2.2v.1l-.2.2zm-.1 0h0l.2-.2h0l-.2-.2h0l-.2.2h0l.2.2z" class="f"/><path d="M42 45.8h0l.2.1h0l-.1.1h0l-.1-.1h0v-.1z" class="c d"/><path d="M42.1 46.1h0l-.2-.1v-.1l.1-.2h.1l.1.2v.1l-.1.1zm-.1 0h0l.1-.1h0l-.1-.1h0l-.1.1h0l.1.1z" class="n"/><path d="M42.7 45.7h0l-.2.2h0l.2.2h0l.2-.2h0l-.2-.2z" class="c i"/><path d="M42.8 46.2h0l-.3-.2v-.1l.2-.2h.1l.2.2v.1l-.2.2h0zm0-.1h0l.2-.2h0l-.2-.2h0l-.2.2h0l.2.2h0z" class="f"/><path d="M42.7 45.7h0l.2.1h0l-.1.3h0l-.1-.1h0v-.3z" class="c d"/><path d="M42.8 46.1h0l-.2-.1v-.1l.1-.2h.1l.1.2v.1c0 0-.1.1-.1.1zm-.1-.1h0l.1-.1h0l-.1-.1h0l-.1.1h0l.1.1z" class="n"/><path d="M44.7 45.7h0l.2.2h0l-.2.2h0l-.2-.2h0l.2-.2z" class="c i"/><path d="M44.8 46.2h0l-.2-.2v-.1l.2-.2h0l.2.2v.1l-.2.2h0zm-.1-.1h0l.2-.2h0l-.1-.2h0l-.2.2h0l.1.2z" class="f"/><path d="M44.8 45.7h0l-.2.1h0l.1.1h0l.1-.1h0v-.1z" class="c d"/><path d="M44.8 46.1h0l-.2-.2v-.1l.1-.2h.1l.1.2v.1l-.1.2zm-.1-.1h0l.1-.1h0v-.1h0l-.1.1h0v.1z" class="n"/><path d="M45.5 45.7h0l.2.2h0l-.2.2h0l-.2-.2h0l.2-.2z" class="c i"/><path d="M45.5 46.2h0l-.2-.2v-.1l.2-.2h.1l.2.2v.1l-.3.2h0zm0 0h0l.2-.2h0l-.2-.2h0l-.2.2h0l.2.2z" class="f"/><path d="M45.5 45.8h0l-.2.1h0l.1.1h0l.1-.1h0v-.1z" class="c d"/><path d="M45.5 46.1h0l-.2-.2v-.1l.1-.2h.1l.1.2v.1l-.1.2zm0 0h0l.1-.1h0l-.1-.1h0l-.1.1h0l.1.1z" class="n"/><path d="M40.9 44.2c0-.1-.1-.1-.1-.2s-.1-.1-.1-.1h-.1v.1c0 .1 0 .1.1.2h.2c-.1.1-.1.1 0 0 0 .1 0 .1 0 0" class="c d"/><path d="M40.8 44.4s0-.1 0 0l-.2-.2c0-.1-.1-.1-.1-.2v-.1h.1c.1 0 .1.1.1.2s.1.1.1.2h0v.1h0m-.2-.5h0c0 .1 0 .1.1.2 0 .1.1.1.1.2h0c0-.1 0-.1-.1-.2 0-.1 0-.1-.1-.2h0z" class="f"/><path d="M41 44.8s0-.1 0 0c-.1-.1 0-.1 0 0l-.1.1v.1.1-.1c.1-.1.1-.2.1-.2" class="c d"/><path d="M41 45.1h0c-.1 0-.1-.1 0 0-.1-.1-.1-.1-.1-.2v-.1s0-.1.1-.1.1 0 .1.1v.1c-.1.1-.1.1-.1.2m0-.3v.1-.1h0 0 0z" class="f"/><path d="M43.7 43.5v-.2h.1v.1.1c0 .1 0 .1-.1 0 0 .1 0 .1 0 0" class="c d"/><path d="M43.8 43.6c-.1 0-.1 0 0 0l-.1-.1v-.1h.1.1v.1c0-.1 0 0-.1.1 0-.1 0-.1 0 0h0m0-.3s-.1 0 0 0c-.1 0-.1.1 0 0l-.1.1h.1 0 .1c-.1 0-.1 0-.1-.1 0 .1 0 0 0 0h0z" class="f"/><use class="c d" href="#J"/><path d="M40.3 43.3c-.1 0-.1-.1-.1-.1 0-.1.1-.1.1-.1.1 0 .1 0 .1.1l-.1.1m0-.3h0c-.1.1 0 .2 0 .2V43c0 .1 0 0 0 0h0 0z" class="e"/><use class="c d" href="#K"/><use class="e" href="#L"/><use x="-1.8" y="0.9" class="c d" href="#E"/><use class="e" href="#M"/><use class="c d" href="#N"/><use class="e" href="#O"/><use class="c d" href="#P"/><use class="e" href="#Q"/><path d="M40.5 42.1c0 .1.1.1.1.1s.1 0 .1-.1 0-.1-.1-.1-.1 0-.1.1" class="c d"/><path d="M40.6 42.2c-.1 0-.1-.1-.1-.1 0-.1.1-.1.1-.1.1 0 .1.1.1.1h0c0 .1-.1.1-.1.1m0-.2s-.1 0 0 0c-.1.1 0 .2 0 .2V42h0z" class="e"/><use x="0.5" y="-1" class="c d" href="#K"/><path d="M40.7 42.1c-.1 0-.1-.1-.1-.1 0-.1.1-.1.1-.1.1 0 .1.1.1.1h0c.1 0 0 .1-.1.1m0-.2s-.1 0 0 0c-.1.1 0 .2 0 .1.1 0 .1 0 0-.1h0 0z" class="e"/><use x="-2.4" y="0.1" class="c d" href="#D"/><use class="e" href="#R"/><use x="0.9" y="-1.1" class="c d" href="#K"/><use x="0.2" class="e" href="#R"/><use x="-0.7" class="c d" href="#E"/><use x="-0.7" class="e" href="#F"/><path d="M41.5 41.8c0 .1 0 .1.1.1s.1 0 .1-.1 0-.1-.1-.1h0c-.1 0-.1 0-.1.1" class="c d"/><use x="1.3" y="-0.9" class="e" href="#M"/><use x="0.2" class="c d" href="#E"/><use x="0.2" class="e" href="#F"/><use class="c d" href="#S"/><path d="M42.5 42c-.1 0-.1-.1-.1-.1 0-.1.1-.1.1-.1.1 0 .1.1.1.1s0 .1-.1.1m0-.3s-.1.1 0 0c-.1.1 0 .2 0 .2s.1 0 0-.2c.1.1 0 0 0 0h0z" class="e"/><use x="0.2" class="c d" href="#S"/><use class="e" href="#T"/><use x="2.7" y="-1.3" class="c d" href="#J"/><path d="M42.9 42c-.1 0-.1-.1-.1-.1 0-.1.1-.1.1-.1.1 0 .1.1.1.1h0c.1 0 0 .1-.1.1m0-.3s0 .1 0 0c-.1.1 0 .2 0 .2.1 0 .1 0 0-.2.1.1.1 0 0 0h0z" class="e"/><use class="c d" href="#U"/><path d="M43.1 41.9c-.1 0-.1-.1-.1-.1 0-.1.1-.1.1-.1.1 0 .1.1.1.1.1.1 0 .1-.1.1m0-.2s0 .1 0 0c-.1.1 0 .2 0 .2s.1-.1 0-.2c.1.1.1 0 0 0h0z" class="e"/><path d="M42.9 41.5c0 .1 0 .1.1.1s.1 0 .1-.1 0-.1-.1-.1h0s-.1 0-.1.1" class="c d"/><path d="M43 41.6c-.1 0-.1-.1-.1-.1 0-.1.1-.1.1-.1.1 0 .1.1.1.1h0c.1 0 0 .1-.1.1h0m0-.2c-.1.1 0 .2 0 .2s.1-.1 0-.2h0 0z" class="e"/><use x="2.6" y="-1.5" class="c d" href="#K"/><use class="e" href="#V"/><use x="-0.5" y="-0.4" class="c d" href="#U"/><path d="M42.6 41.5c-.1 0-.1-.1-.1-.1 0-.1.1-.1.1-.1.1 0 .1.1.1.1h0c.1.1 0 .1-.1.1m0-.2s0 .1 0 0c-.1.1 0 .2 0 .2s.1-.1 0-.2c.1.1.1 0 0 0h0z" class="e"/><use x="2.2" y="-1.5" class="c d" href="#K"/><use x="-0.4" class="e" href="#V"/><use x="-1.1" y="-0.3" class="c d" href="#D"/><use x="2" y="-1.4" class="e" href="#L"/><use class="c d" href="#W"/><use class="e" href="#X"/><path d="M41.9 41.7c0 .1 0 .1.1.1s.1 0 .1-.1 0-.1-.1-.1-.2.1-.1.1c-.1 0-.1 0 0 0" class="c d"/><use x="1" y="-0.1" class="e" href="#R"/><use x="1.4" y="-0.4" class="c d" href="#N"/><use x="1.4" y="-0.4" class="e" href="#O"/><use x="-0.4" y="0.2" class="c d" href="#E"/><path d="M41.7 42.1c-.1 0-.1-.1-.1-.1 0-.1.1-.1.1-.1.1 0 .1 0 .1.1 0 0 0 .1-.1.1m0-.2h0c-.1.1 0 .2 0 .2 0-.1.1-.1 0-.2h0 0 0z" class="e"/><use x="-0.5" y="0.5" class="c d" href="#W"/><path d="M41.6 42.3c-.1 0-.1-.1-.1-.1 0-.1.1-.1.1-.1.1 0 .1.1.1.1h0c0 0 0 .1-.1.1m0-.2s-.1 0 0 0c-.1.1 0 .2 0 .2v-.2h0z" class="e"/><use x="1.1" y="-0.2" class="c d" href="#P"/><path d="M41.5 42.4c-.1 0-.1-.1-.1-.1 0-.1.1-.1.1-.1.1 0 .1.1.1.1h0c0 .1-.1.1-.1.1m0-.2s-.1 0 0 0c-.1.1 0 .2 0 .2v-.2h0z" class="e"/><use x="1.1" y="-0.7" class="c d" href="#J"/><use x="1" class="e" href="#Q"/><use x="-1.2" y="0.8" class="c d" href="#S"/><path d="M41.3 42.8c-.1 0-.1-.1-.1-.1 0-.1.1-.1.1-.1.1 0 .1.1.1.1h0l-.1.1m0-.3s-.1.1 0 0c-.1.1 0 .2 0 .2s.1 0 0-.2c.1.1 0 0 0 0h0z" class="e"/><use x="-2.1" y="1" class="c d" href="#D"/><use x="0.8" y="0.5" class="e" href="#O"/><use x="-0.9" y="1.2" class="c d" href="#E"/><use x="-0.9" y="1.3" class="e" href="#X"/><use x="-0.9" y="1.5" class="c d" href="#W"/><path d="M41.2 43.3c-.1 0-.1-.1-.1-.1 0-.1.1-.1.1-.1.1 0 .1.1.1.1h0c0 0 0 .1-.1.1m0-.2s-.1 0 0 0c-.1.1 0 .2 0 .1 0 0 .1 0 0-.1h0 0z" class="e"/><path d="M41.1 43.4c0 .1.1.1.1.1s.1 0 .1-.1 0-.1-.1-.1c0-.1-.1 0-.1.1" class="c d"/><use x="0.8" y="1.1" class="e" href="#O"/><path d="M43.2 41.5s0 .1 0 0c.1.1.2 0 .2 0s-.1-.1-.2 0c0-.1 0 0 0 0h0" class="c d"/><path d="M43.2 41.6s-.1 0-.1-.1 0-.1.1-.1.1 0 .1.1 0 .1-.1.1h0m0-.1c-.1.1 0 .1 0 .1s.1 0 0-.1h0z" class="e"/><use class="c d" href="#Y"/><path d="M47.3 43.3c-.1 0-.1-.1-.1-.1 0-.1.1-.1.1-.1.1 0 .1.1.1.1.1 0 0 .1-.1.1m0-.2c-.1.1 0 .2 0 .1.1 0 .1 0 0-.1h0 0z" class="e"/><use y="-0.2" class="c d" href="#Y"/><use x="4.6" y="1.1" class="e" href="#T"/><use x="3.1" y="0.9" class="c d" href="#C"/><use class="e" href="#Z"/><use x="3" y="0.5" class="c d" href="#C"/><path d="M47.2 42.4c-.1 0-.1-.1-.1-.1l.1-.1c.1 0 .1.1.1.1l-.1.1m0-.2s-.1 0 0 0c-.1.1 0 .2 0 .2v-.2h0z" class="e"/><use x="3.1" y="0.7" class="c d" href="#C"/><path d="M47.2 42.6c-.1 0-.1-.1-.1-.1 0-.1.1-.1.1-.1.1 0 .1.1.1.1.1.1 0 .1-.1.1h0m0-.2c-.1.1 0 .2 0 .2s.1-.1 0-.2h0 0z" class="e"/><use x="2.8" y="0.3" class="c d" href="#C"/><use x="-0.3" y="-0.6" class="e" href="#Z"/><use x="2.6" y="0.2" class="c d" href="#C"/><path d="M46.8 42.1c-.1 0-.1-.1-.1-.1 0-.1.1-.1.1-.1.1 0 .1.1.1.1.1 0 0 .1-.1.1m0-.2c-.1.1 0 .2 0 .2s.1-.1 0-.2h0 0z" class="e"/><use x="2.4" y="0.1" class="c d" href="#C"/><path d="M46.6 42c-.1 0-.1-.1-.1-.1l.1-.1c.1 0 .1.1.1.1.1.1 0 .1-.1.1m0-.2s-.1 0 0 0c-.1.1 0 .2 0 .2s.1-.1 0-.2h0 0z" class="e"/><use x="1" class="c d" href="#G"/><path d="M46.4 42c-.1 0-.1-.1-.1-.1l.1-.1c.1 0 .1.1.1.1.1 0 0 .1-.1.1m0-.2s-.2 0 0 0c-.1.1 0 .2 0 .2s.1-.1 0-.2h0 0z" class="e"/><path d="M46.2 41.8c0 .1-.1.1-.1.1s-.1 0-.1-.1 0-.1.1-.1.1.1.1.1" class="c d"/><use x="0.7" class="e" href="#H"/><path d="M46 41.8c0 .1 0 .1-.1.1s-.1 0-.1-.1 0-.1.1-.1c0 0 .1 0 .1.1" class="c d"/><path d="M45.9 41.9c-.1 0-.1-.1-.1-.1l.1-.1c.1 0 .1.1.1.1 0 .1 0 .1-.1.1m0-.2s-.1.1 0 0c-.1.1 0 .2 0 .2v-.2c0 .1 0 0 0 0h0z" class="e"/><use class="c d" href="#a"/><use x="-0.2" class="e" href="#H"/><use x="-2.3" y="-1.3" class="c d" href="#Y"/><use x="-0.4" class="e" href="#H"/><use x="-2.5" y="-1.3" class="c d" href="#Y"/><path d="M44.8 42c-.1 0-.1-.1-.1-.1l.1-.1c.1 0 .1.1.1.1s0 .1-.1.1m0-.3s-.1.1 0 0c-.1.1 0 .2 0 .2v-.2c0 .1 0 0 0 0h0z" class="e"/><use x="-2.7" y="-1.3" class="c d" href="#Y"/><use class="e" href="#b"/><path d="M44.5 41.8c0 .1 0 .1-.1.1s-.1 0-.1-.1 0-.1.1-.1l.1.1" class="c d"/><path d="M44.4 41.9c-.1 0-.1-.1-.1-.1l.1-.1c.1 0 .1.1.1.1 0 .1-.1.1-.1.1m0-.2s-.1.1 0 0c-.1.1 0 .2 0 .2v-.2c0 .1 0 0 0 0h0z" class="e"/><path d="M44.5 41.5c0 .1-.1.1-.1.1s-.1 0-.1-.1 0-.1.1-.1.1 0 .1.1" class="c d"/><path d="M44.4 41.6c-.1 0-.1-.1-.1-.1 0-.1.1-.1.1-.1.1 0 .1.1.1.1.1 0 0 .1-.1.1m0-.2c-.1.1 0 .2 0 .2.1-.1.1-.1 0-.2h0 0z" class="e"/><use x="-2.7" y="-1.7" class="c d" href="#Y"/><use class="e" href="#c"/><use x="-2.5" y="-1.7" class="c d" href="#Y"/><path d="M44.8 41.6c-.1 0-.1-.1-.1-.1 0-.1.1-.1.1-.1.1 0 .1.1.1.1.1 0 0 0-.1.1h0m0-.3s0 .1 0 0c-.1.1 0 .2 0 .2s.1 0 0-.2c.1.1.1 0 0 0h0z" class="e"/><use x="-2.3" y="-1.7" class="c d" href="#Y"/><use x="0.4" class="e" href="#c"/><use x="-2.1" y="-1.6" class="c d" href="#Y"/><path d="M45.2 41.7c-.1 0-.1-.1-.1-.1l.1-.1c.1 0 .1.1.1.1.1 0 0 .1-.1.1m0-.3s0 .1 0 0c-.1.1 0 .2 0 .2s.1 0 0-.2c.1.1.1 0 0 0h0z" class="e"/><use x="-1.9" y="-1.5" class="c d" href="#Y"/><path d="M45.4 41.8c-.1 0-.1-.1-.1-.1l.1-.1c.1 0 .1.1.1.1s0 .1-.1.1m0-.2s-.1 0 0 0c-.1.1 0 .2 0 .2s.1-.1 0-.2h0 0z" class="e"/><use x="-1.8" y="-1.4" class="c d" href="#Y"/><path d="M45.5 41.9c-.1 0-.1-.1-.1-.1l.1-.1c.1 0 .1.1.1.1.1 0 0 .1-.1.1m0-.2c-.1.1 0 .2 0 .2s.1-.1 0-.2h0 0z" class="e"/><use x="1.5" y="0.1" class="c d" href="#C"/><use x="1.1" class="e" href="#b"/><path d="M45.9 42c0 .1 0 .1-.1.1s-.1 0-.1-.1 0-.1.1-.1c0 0 .1 0 .1.1h0" class="c d"/><path d="M45.8 42.1c-.1 0-.1-.1-.1-.1l.1-.1c.1 0 .1.1.1.1 0 .1 0 .1-.1.1m0-.2s-.1.1 0 0c-.1.1 0 .2 0 .1 0 .1.1 0 0-.1.1.1 0 0 0 0h0z" class="e"/><use x="-1.4" y="-1" class="c d" href="#Y"/><path d="M45.9 42.3c-.1 0-.1-.1-.1-.1 0-.1.1-.1.1-.1.1 0 .1.1.1.1.1 0 0 .1-.1.1m0-.2s-.1 0 0 0c-.1.1 0 .2 0 .2s.1-.1 0-.2h0 0z" class="e"/><use x="0.8" y="0.5" class="c d" href="#a"/><path d="M46 42.4c-.1 0-.1-.1-.1-.1 0-.1.1-.1.1-.1.1 0 .1.1.1.1.1.1 0 .1-.1.1m0-.2c-.1.1 0 .2 0 .2s.1-.1 0-.2h0 0z" class="e"/><path d="M46.2 42.5c0 .1 0 .1-.1.1s-.1 0-.1-.1 0-.1.1-.1c.1-.1.1 0 .1.1" class="c d"/><path d="M46.1 42.6c-.1 0-.1-.1-.1-.1l.1-.1c.1 0 .1.1.1.1.2 0 0 .1-.1.1m0-.2c-.1.1 0 .2 0 .2s.1-.1 0-.2h0 0z" class="e"/><use x="-1" y="-0.5" class="c d" href="#Y"/><path d="M46.2 42.8c-.1 0-.1-.1-.1-.1 0-.1.1-.1.1-.1.1 0 .1.1.1.1s.1.1-.1.1m0-.3s-.1.1 0 0c-.1.1 0 .2 0 .2s.2 0 0-.2c.2.1 0 0 0 0h0z" class="e"/><path d="M46.5 42.8c0 .1-.1.1-.1.1s-.1 0-.1-.1 0-.1.1-.1c0 0 .1 0 .1.1" class="c d"/><path d="M46.4 42.9c-.1 0-.1-.1-.1-.1l.1-.1c.1 0 .1.1.1.1 0 .1 0 .1-.1.1m0-.2s-.2 0 0 0c-.1.1 0 .2 0 .2v-.2h0z" class="e"/><use x="2.2" y="1.2" class="c d" href="#C"/><path d="M46.4 43.1c-.1 0-.1-.1-.1-.1l.1-.1c.1 0 .1.1.1.1 0 .1 0 .1-.1.1m0-.2s-.2 0 0 0c-.1.1 0 .2 0 .2s.1-.1 0-.2h0 0z" class="e"/><path d="M46.5 43.2c0 .1 0 .1-.1.1s-.1 0-.1-.1 0-.1.1-.1c.1-.1.1 0 .1.1 0-.1 0 0 0 0" class="c d"/><path d="M46.4 43.3c-.1 0-.1-.1-.1-.1 0-.1.1-.1.1-.1.1 0 .1.1.1.1s0 .1-.1.1m0-.2s-.2 0 0 0c-.1.1 0 .2 0 .1.1 0 .1 0 0-.1h0 0z" class="e"/><use x="2.2" y="1.6" class="c d" href="#C"/><path d="M46.4 43.5c-.1 0-.1-.1-.1-.1 0-.1.1-.1.1-.1.1 0 .1.1.1.1l-.1.1m0-.2s-.2 0 0 0c-.1.1 0 .2 0 .2v-.2h0z" class="e"/><path d="M44.3 41.5s0 .1 0 0c-.1.1-.2 0-.2 0h.2" class="c d"/><path d="M44.2 41.6s-.1 0-.1-.1 0-.1.1-.1.1 0 .1.1c.1.1 0 .1-.1.1m0-.1c-.1.1 0 .1 0 .1.1 0 .1 0 0-.1h0 0z" class="e"/><path d="M43.8 41.8s0 .1 0 0c-.1.1-.2 0-.2 0s.1-.1.2 0c0-.1 0 0 0 0h0" class="c d"/><path d="M43.7 41.9c-.1 0-.1 0-.1-.1s0-.1.1-.1.1 0 .1.1h0c0 .1 0 .1-.1.1m0-.2c-.1.1 0 .1 0 .1s.1 0 0-.1c.1.1 0 0 0 0z" class="e"/><path d="M42.3 44.9s-.1-.1-.1-.2 0-.1.1-.1h.1.1l.1.1c0 .1 0 .1-.1.2l-.1.1s-.1 0-.1-.1" class="c d"/><path d="M42.4 45c-.1 0-.1 0-.2-.1-.1 0-.1-.1-.1-.2s0-.1.1-.2c0 0 .1-.1.2-.1s.1 0 .1.1c0 0 .1.1.1.2s0 .1-.1.2c0 .1 0 .1-.1.1h0m-.1-.1h.1.1l.1-.1c0-.1 0-.1-.1-.1h-.2l-.1.1.1.1z" class="f"/><path d="M43.5 44c.1-.3.3-.4.4 0 .2.5-.5.6-.4 0" class="c d"/><path d="M43.7 44.4h-.1c-.1 0-.2-.1-.1-.4h0c0-.2.1-.3.2-.3h0c.1 0 .2.1.2.3.1.2 0 .3-.1.5 0-.1-.1-.1-.1-.1m-.2-.4c0 .2 0 .3.1.4h.2c.1-.1.1-.3.1-.4s-.1-.2-.2-.2h0c-.1 0-.1.1-.2.2z" class="f"/><path d="M44.9 45s-.1-.1-.1-.2 0-.1.1-.1h.1.1l.1.1c0 .1 0 .1-.1.2l-.1.1c0-.1 0-.1-.1-.1" class="c d"/><path d="M45.1 45c-.1 0-.1 0-.2-.1-.1 0-.1-.1-.1-.2s0-.1.1-.2.3-.1.3 0c0 0 0 .1.1.1 0 .1 0 .1-.1.2 0 .2-.1.3-.1.2h0m0-.4H45l-.1.1c0 .1 0 .1.1.1.1.1.2.1.3 0l.1-.1s0-.1-.1-.1c-.1.1-.2 0-.2 0h0z" class="f"/><path d="M45.9 44.3c.1-.4.3-.5.3 0-.1.3-.3.3-.3 0" class="c d"/><path d="M46 44.5h0c-.1 0-.1-.1-.1-.3h0c.1-.2.2-.4.3-.3.1 0 .1.1.1.3h0c-.1.2-.2.3-.3.3m-.1-.2c0 .1.1.2.1.2h0l.2-.2c.1-.1 0-.3-.1-.3h0c-.1 0-.2.1-.2.3h0z" class="f"/><path d="M41.3 44.3c0-.6.2-.3.3 0 0 .4-.2.2-.3 0" class="c d"/><path d="M41.5 44.6c-.1 0-.2-.1-.2-.3h0c0-.2 0-.3.1-.4.1 0 .2.2.3.3h0c0 .3-.1.4-.2.4h0m-.2-.3c0 .1.1.2.2.2s.1-.1.1-.2-.2-.3-.2-.3c-.1 0-.1.1-.1.3z" class="f"/><path d="M43.6 44.9s0-.1-.1-.1c0 0 0-.1.1-.1h.2l.1.1c0 .1-.1.2-.1.2-.1 0-.1 0-.2-.1" class="c d"/><path d="M43.8 45h-.1l-.1-.1c0-.1 0-.1.1-.1h.1.1l.1.1c0 .1 0 .1-.1.1 0-.1-.1 0-.1 0h0m0-.4c-.1.1-.1.1 0 0l-.1.1v.1h.2v-.1l-.1-.1c0 .1 0 0 0 0z" class="f"/><path d="M43.3 44.3c-.1 0-.1 0 0 0v-.2h.1v.1.1c0 .1 0 .1-.1 0 0 .1 0 .1 0 0" class="c d"/><path d="M43.3 44.4l-.1-.1v-.1h.1.1v.1c.1-.1 0 0-.1.1.1-.1.1-.1 0 0h0m0-.3s-.1 0 0 0l-.1.1h.1 0 .1l-.1-.1h0 0z" class="f"/><path d="M44.1 44.3s0-.1 0 0v-.2h.1v.1.1h-.1" class="c d"/><path d="M44.2 44.3s-.1 0 0 0c-.1-.1-.1-.1-.1-.2h.2v.1c0 0 0 .1-.1.1h0 0m0-.2c-.1 0-.1.1 0 0l-.1.1h.1 0 .1c0 0 0 0-.1-.1 0 .1 0 0 0 0h0z" class="f"/><use class="c d" href="#d"/><path d="M43.7 42.6c-.1 0-.1-.1-.1-.1l.1-.1c.1 0 .1 0 .1.1s0 .1-.1.1h0m0-.2s0 .1 0 0c-.1.1 0 .1 0 .1s.1 0 0-.1c.1.1.1 0 0 0h0z" class="e"/><use class="c d" href="#e"/><path d="M43.7 42.8c-.1 0-.1-.1-.1-.1l.1-.1c.1 0 .1.1.1.1s0 .1-.1.1h0m0-.2s0 .1 0 0c-.1.1 0 .1 0 .1s.1 0 0-.1h0 0z" class="e"/><use y="-0.7" class="c d" href="#e"/><path d="M43.7 42.1c-.1 0-.1-.1-.1-.1l.1-.1c.1 0 .1.1.1.1s0 .1-.1.1h0m0-.2c-.1.1 0 .1 0 .1s.1 0 0-.1h0 0z" class="e"/><use y="-0.4" class="c d" href="#d"/><use class="e" href="#f"/><use y="-0.2" class="c d" href="#d"/><use y="0.2" class="e" href="#f"/><path d="M43.8 40.1h.4v-.2h.1v.2h.2v.1h-.2v.2h-.1v-.2h-.4v-.1z" class="c g"/><path d="M44.3 40.5h-.2v-.2h-.3v-.2h.3v-.2h.2v.2h.2v.2h-.2v.2zm-.1-.1h.1v-.2h.2v-.1h-.2v-.2h-.1v.2h-.4v.1h.3v.2h.1z" class="e"/><path d="M43.5 39.6h.2v-.2h.1v.2h.2v.1h-.2v.4h-.2v-.4h-.2v-.1h.1z" class="c g"/><path d="M43.8 40.1h-.2v-.3h-.2v-.2h.2v-.2h.2v.2h.2v.2h-.2v.3zm-.1 0h.1v-.3h.2v-.1h-.2v-.3h-.1v.2h-.2v.1h.2v.4z" class="e"/><path d="M43 40.1h.2v-.2h.1v.2h.3v.2h-.3v.1h-.1v-.2H43v-.1z" class="c g"/><path d="M43.4 40.5h-.2v-.2H43v-.2h.2v-.2h.2v.2h.3v.2h-.3v.2zm-.2-.1h.1v-.2h.3v-.1h-.3v-.2h-.1v.2H43v.1h.2v.2z" class="e"/><path d="M43.5 40.5h.2v-.4h.1v.4h.2v.1h-.2v.2h-.1v-.2h-.2v-.1z" class="c g"/><g class="e"><path d="M43.8 40.9h-.2v-.2h-.2v-.2h.2v-.3h.2v.3h.2v.2h-.2v.2zm-.1 0h.1v-.2h.2v-.1h-.2v-.3h-.1v.3h-.2v.1h.2v.2z"/><path d="M43.6 40h0 0 .3 0 0v.3h0 0-.2 0-.1V40z" class="c"/></g></svg>