<svg xmlns="http://www.w3.org/2000/svg" xmlns:xlink="http://www.w3.org/1999/xlink" version="1.1" id="Layer_1" x="0px" y="0px" viewBox="0 0 620 160" style="enable-background:new 0 0 620 160;" xml:space="preserve">
<style type="text/css">
	.st0{fill-rule:evenodd;clip-rule:evenodd;fill:#FFFFFF;}
	.st1{fill:none;stroke:#292B6E;stroke-width:5.7745;stroke-miterlimit:22.93;}
	.st2{fill-rule:evenodd;clip-rule:evenodd;fill:#292B6E;}
	.st3{fill:none;stroke:#1F1A17;stroke-width:3.2915;stroke-miterlimit:22.93;}
	.st4{fill:#FFFFFF;}
	.st5{fill:#292B6E;}
</style>
<g id="Group_33677" transform="translate(0.5 0.5)">
	<path id="Path_14231" class="st0" d="M48.4,5.5h522.2c23.2,0.2,41.9,19.1,41.9,42.3v63.4c0,23.2-18.7,42.1-41.9,42.3H48.4   c-23.2-0.2-41.9-19.1-41.9-42.3V47.8C6.5,24.6,25.2,5.7,48.4,5.5z"/>
	<path id="Path_14232" class="st1" d="M48.4,5.5h522.2c23.2,0.2,41.9,19.1,41.9,42.3v63.4c0,23.2-18.7,42.1-41.9,42.3H48.4   c-23.2-0.2-41.9-19.1-41.9-42.3V47.8C6.5,24.6,25.2,5.7,48.4,5.5z"/>
	<path id="Path_14233" class="st2" d="M277.9,108.2h98.2c7.3-0.3,13.4,5.3,13.7,12.6v6.4c-0.4,7.2-6.5,12.8-13.7,12.5h-98.2   c-7.3,0.3-13.4-5.3-13.7-12.6v-6.4C264.5,113.5,270.6,107.9,277.9,108.2z"/>
	<path id="Path_14234" class="st3" d="M277.9,108.2h98.2c7.3-0.3,13.4,5.3,13.7,12.6v6.4c-0.4,7.2-6.5,12.8-13.7,12.5h-98.2   c-7.3,0.3-13.4-5.3-13.7-12.6v-6.4C264.5,113.5,270.6,107.9,277.9,108.2z"/>
	<path id="Path_14235" class="st4" d="M370.5,115.7h5v16.4h-5V115.7z M361.7,115.7h5v16.4h-5V115.7z M346.3,115.7h5V128h7.8v4h-12.9   V115.7L346.3,115.7z M337.6,125.8l-1.8-5.9l-1.8,5.9H337.6L337.6,125.8z M338.7,129.4h-5.7l-0.8,2.7H327l6.1-16.4h5.5l6.1,16.4   h-5.3L338.7,129.4L338.7,129.4z M312.7,115.7h15.3v4h-5.2v12.3h-5v-12.3h-5.1L312.7,115.7z M297.4,115.7h13.5v3.5h-8.4v2.6h7.8v3.3   h-7.8v3.2h8.7v3.7h-13.7L297.4,115.7L297.4,115.7z M284.8,119.4v9h1.2c0.8,0,1.5-0.1,2.2-0.3c0.5-0.3,0.8-0.7,1-1.2   c0.3-0.9,0.4-1.9,0.4-2.8c0.1-1.2-0.2-2.5-0.8-3.6c-0.7-0.7-1.8-1.1-2.8-1L284.8,119.4L284.8,119.4z M279.8,115.7h7.5   c1.2,0,2.4,0.1,3.6,0.6c0.9,0.4,1.7,1,2.2,1.7c0.6,0.8,1,1.7,1.3,2.6c0.3,1,0.4,2.1,0.4,3.2c0.1,1.4-0.1,2.8-0.6,4.1   c-0.4,0.9-0.9,1.7-1.7,2.4c-0.6,0.6-1.4,1.1-2.3,1.3c-1,0.3-2,0.4-3,0.4h-7.5L279.8,115.7z"/>
	<path id="Path_14236" class="st5" d="M517.2,28.6h19.9v5.3h-12.5v3.9h11.5v5.1h-11.5v4.9h12.8v5.6h-20.3L517.2,28.6L517.2,28.6z    M489.3,28.6h6.9l9.1,13.7V28.6h7v24.8h-7l-9-13.6v13.6h-7V28.6z M476.5,28.6h7.4v24.8h-7.4V28.6z M453.8,28.6h7.4v18.7h11.6v6.1   h-19L453.8,28.6L453.8,28.6z M425.9,28.6h6.9l9.1,13.7V28.6h7v24.8h-7l-9-13.6v13.6h-7L425.9,28.6z M404.4,41   c-0.2,1.9,0.3,3.8,1.4,5.4c0.9,1.1,2.3,1.7,3.7,1.6c1.4,0.1,2.8-0.5,3.7-1.6c1-1.7,1.5-3.8,1.3-5.8c0.2-1.8-0.3-3.6-1.4-5.1   c-0.9-1.1-2.3-1.7-3.7-1.6c-1.4-0.1-2.7,0.5-3.6,1.6C404.7,37.2,404.2,39.1,404.4,41L404.4,41z M397,41c-0.2-3.5,1-6.9,3.3-9.5   c2.4-2.4,5.8-3.6,9.1-3.4c3.4-0.2,6.7,1,9.2,3.3c2.3,2.5,3.5,5.9,3.2,9.3c0.1,2.5-0.4,4.9-1.4,7.1c-0.9,1.8-2.3,3.3-4.1,4.3   c-2.1,1.1-4.4,1.6-6.7,1.6c-2.3,0.1-4.6-0.4-6.7-1.3c-1.8-0.9-3.3-2.4-4.3-4.2C397.5,46,396.9,43.5,397,41L397,41z M373.8,43.9   l-2.7-8.9l-2.6,8.9H373.8z M375.4,49.3h-8.5l-1.2,4.1h-7.6l9-24.8h8.1l9,24.8h-7.8L375.4,49.3L375.4,49.3z M336.4,28.6h19.9v5.3   h-12.5v3.9h11.5v5.1h-11.5v4.9h12.8v5.6h-20.3V28.6L336.4,28.6z M317.8,38.6h3.1c0.7,0,1.3-0.2,2-0.3c0.5-0.1,0.9-0.4,1.2-0.8   c0.3-0.4,0.5-0.9,0.5-1.4c0-0.7-0.2-1.4-0.7-1.8c-0.8-0.5-1.8-0.7-2.8-0.6h-3.3L317.8,38.6L317.8,38.6z M310.4,53.4V28.6h12.4   c1.8-0.1,3.5,0.1,5.3,0.6c1.2,0.4,2.2,1.2,2.9,2.3c0.8,1.2,1.2,2.6,1.1,4c0,1.2-0.3,2.5-0.8,3.6c-0.6,1-1.4,1.8-2.3,2.4   c-0.8,0.5-1.7,0.8-2.6,1c0.7,0.2,1.3,0.5,1.9,0.9c0.4,0.4,0.8,0.8,1.2,1.3c0.4,0.5,0.7,1,1,1.5l3.6,7.2h-8.4l-4-7.6   c-0.3-0.7-0.8-1.4-1.4-1.9c-0.5-0.4-1.2-0.6-1.8-0.6h-0.7v10.1L310.4,53.4L310.4,53.4z M297.4,43.9l-2.7-8.9l-2.6,8.9H297.4z    M298.9,49.3h-8.5l-1.2,4.1h-7.6l9-24.8h8.1l9,24.8h-7.8L298.9,49.3L298.9,49.3z M256.6,28.6h6.9l9.1,13.7V28.6h7v24.8h-7l-9-13.6   v13.6h-7L256.6,28.6z M235.1,41c-0.2,1.9,0.3,3.8,1.4,5.4c0.9,1.1,2.3,1.7,3.7,1.6c1.4,0.1,2.8-0.5,3.7-1.6c1-1.7,1.5-3.8,1.3-5.8   c0.2-1.8-0.3-3.6-1.4-5.1c-0.9-1.1-2.3-1.7-3.7-1.6c-1.4-0.1-2.7,0.5-3.6,1.6C235.4,37.2,234.9,39.1,235.1,41L235.1,41z M227.6,41   c-0.2-3.5,1-6.9,3.3-9.5c2.4-2.4,5.7-3.6,9.1-3.4c3.4-0.2,6.7,1,9.2,3.3c2.3,2.5,3.5,5.9,3.2,9.3c0.1,2.5-0.4,4.9-1.4,7.1   c-0.9,1.8-2.3,3.3-4.1,4.3c-2,1.1-4.4,1.6-6.7,1.6c-2.3,0.1-4.6-0.4-6.7-1.3c-1.8-0.9-3.3-2.4-4.3-4.2   C228.1,46,227.5,43.5,227.6,41L227.6,41z M215.8,28.6h7.4v24.8h-7.4L215.8,28.6z M197.2,56.1l0.5-2c0.9-0.3,1.9-0.4,2.9-0.4   c1.4-0.1,2.7,0.2,3.9,1c0.7,0.6,1.1,1.4,1.1,2.3c0,0.6-0.2,1.2-0.5,1.7c-0.4,0.6-1,1.1-1.7,1.4c-1.1,0.4-2.2,0.6-3.3,0.5   c-1.5,0-2.9-0.2-4.4-0.4v-2.1c1.2,0.2,2.4,0.4,3.6,0.3c0.7,0.1,1.3-0.1,1.9-0.4c0.3-0.2,0.5-0.6,0.5-1c0-0.3-0.2-0.6-0.4-0.8   c-0.4-0.3-0.8-0.4-1.3-0.3C199.1,55.9,198.2,56,197.2,56.1L197.2,56.1z M189.6,28.5h22.6v6.1h-7.6v18.7h-7.4V34.7h-7.6L189.6,28.5z    M178.9,28.5h7.4v14.8c0,1.4-0.2,2.8-0.7,4.2c-0.4,1.3-1.1,2.5-2.1,3.4c-0.8,0.9-1.8,1.6-3,2.1c-1.7,0.6-3.4,0.9-5.2,0.8   c-1.3,0-2.6-0.1-3.8-0.2c-1.2-0.1-2.4-0.5-3.5-1c-1-0.5-1.8-1.3-2.5-2.1c-0.7-0.8-1.3-1.8-1.6-2.9c-0.4-1.4-0.7-2.8-0.7-4.2V28.5   h7.4v15.2c-0.1,1.2,0.3,2.3,1.1,3.2c1.7,1.5,4.3,1.5,6,0c0.8-0.9,1.2-2,1.1-3.2L178.9,28.5L178.9,28.5z M141.8,28.5h7.4v18.7h11.6   v6.1h-19V28.5z M120.3,41c-0.2,1.9,0.3,3.8,1.4,5.4c0.9,1.1,2.3,1.7,3.7,1.6c1.4,0.1,2.8-0.5,3.7-1.6c1-1.7,1.5-3.8,1.3-5.8   c0.2-1.8-0.3-3.6-1.4-5.1c-0.9-1.1-2.3-1.7-3.7-1.6c-1.4-0.1-2.7,0.5-3.6,1.6C120.6,37.2,120.1,39.1,120.3,41L120.3,41z M112.9,41   c-0.2-3.5,1-6.9,3.3-9.5c2.4-2.4,5.7-3.6,9.1-3.4c3.4-0.2,6.7,1,9.2,3.3c2.3,2.5,3.5,5.9,3.2,9.3c0.1,2.5-0.4,4.9-1.4,7.1   c-0.9,1.8-2.3,3.3-4.1,4.3c-2,1.1-4.4,1.6-6.7,1.6c-2.3,0.1-4.6-0.4-6.7-1.3c-1.8-0.9-3.3-2.4-4.3-4.2   C113.3,46,112.8,43.5,112.9,41L112.9,41z M88.3,45.2l7.1-0.5c0.1,1,0.4,1.9,0.9,2.7c0.8,1,2,1.6,3.3,1.5c0.9,0.1,1.8-0.2,2.4-0.8   c0.5-0.4,0.9-1.1,0.9-1.8c0-0.7-0.3-1.3-0.8-1.7c-1.1-0.8-2.4-1.2-3.8-1.4c-2.5-0.4-4.9-1.5-7-3c-1.4-1.2-2.1-3-2.1-4.8   c0-1.3,0.4-2.5,1.1-3.6c0.8-1.2,1.9-2.1,3.2-2.7c1.9-0.7,3.9-1.1,5.9-1c2.5-0.2,4.9,0.5,7,1.8c1.7,1.4,2.8,3.4,2.9,5.6l-7,0.4   c-0.1-0.9-0.5-1.8-1.2-2.4c-0.7-0.5-1.6-0.8-2.5-0.8c-0.7-0.1-1.4,0.2-1.9,0.6c-0.4,0.3-0.7,0.8-0.7,1.4c0,0.4,0.2,0.8,0.5,1.1   c0.8,0.5,1.6,0.8,2.5,0.9c2.4,0.4,4.7,1.2,7,2.2c1.3,0.6,2.3,1.6,3.1,2.7c0.6,1.1,1,2.4,1,3.7c0,3.2-1.9,6.2-4.9,7.5   c-1.8,0.7-3.8,1.1-5.8,1c-3,0.3-6.1-0.5-8.5-2.4C89.4,49.7,88.4,47.5,88.3,45.2L88.3,45.2z"/>
	<path id="Path_14237" class="st5" d="M434.3,78.8h3.1c0.7-0.1,1.3-0.2,2-0.3c0.5-0.1,0.9-0.4,1.2-0.8c0.7-1,0.6-2.4-0.3-3.2   c-0.8-0.5-1.8-0.7-2.8-0.6h-3.3L434.3,78.8L434.3,78.8z M426.9,93.4V68.9h12.4c1.8-0.1,3.5,0.1,5.3,0.6c1.2,0.4,2.2,1.2,2.9,2.2   c0.8,1.2,1.2,2.6,1.1,4c0.1,2.4-1.1,4.7-3.2,5.9c-0.8,0.5-1.7,0.8-2.6,1c0.7,0.2,1.3,0.5,1.9,0.9c0.4,0.4,0.8,0.8,1.2,1.3   c0.4,0.5,0.7,1,1,1.5l3.6,7.1h-8.4l-4-7.5c-0.3-0.7-0.8-1.3-1.3-1.9c-0.5-0.4-1.2-0.6-1.8-0.6h-0.7v9.9L426.9,93.4z M405.3,81.2   c-0.2,1.9,0.3,3.8,1.4,5.3c1.9,2,5.1,2.1,7.1,0.2c0.1-0.1,0.2-0.2,0.2-0.2c1-1.7,1.5-3.7,1.3-5.7c0.2-1.8-0.3-3.6-1.4-5.1   c-0.9-1.1-2.3-1.7-3.7-1.6c-1.4-0.1-2.7,0.5-3.6,1.6C405.6,77.4,405.1,79.3,405.3,81.2L405.3,81.2z M397.8,81.2   c-0.2-3.4,1-6.8,3.3-9.3c2.5-2.3,5.8-3.5,9.1-3.3c6.2-0.7,11.8,3.9,12.5,10.1c0.1,0.8,0.1,1.6,0,2.4c0.1,2.4-0.4,4.8-1.4,7   c-0.9,1.8-2.3,3.3-4.1,4.3c-2.1,1.1-4.4,1.6-6.7,1.5c-2.3,0.1-4.6-0.4-6.7-1.3c-1.8-0.9-3.3-2.4-4.3-4.2   C398.3,86.1,397.7,83.7,397.8,81.2L397.8,81.2z M376.9,68.9h7.4v18.4H396v6h-19.1L376.9,68.9L376.9,68.9z M364.2,68.9h7.4v24.5   h-7.4V68.9z M351.1,68.9h7.4v24.5h-7.4V68.9z M334.9,84.5v-5.1h11.5v10.4c-1.8,1.3-3.7,2.4-5.8,3.1c-1.9,0.6-4,0.9-6,0.8   c-2.4,0.1-4.8-0.4-7-1.5c-1.8-1-3.3-2.6-4.2-4.4c-1-2.1-1.5-4.4-1.5-6.7c-0.1-2.4,0.5-4.8,1.6-7c1.1-2,2.7-3.5,4.8-4.5   c2.1-0.9,4.3-1.3,6.6-1.2c2-0.1,4,0.2,6,0.7c1.3,0.5,2.4,1.3,3.3,2.3c0.9,1.1,1.6,2.5,2,3.9l-7.2,1.3c-0.3-0.9-0.8-1.6-1.5-2.1   c-0.8-0.5-1.7-0.8-2.7-0.7c-1.5-0.1-2.9,0.6-3.9,1.7c-1.1,1.6-1.6,3.5-1.5,5.5c-0.2,2,0.3,4,1.5,5.7c1,1.2,2.5,1.8,4.1,1.7   c0.8,0,1.6-0.1,2.4-0.4c0.9-0.3,1.8-0.7,2.6-1.2v-2.3h-5L334.9,84.5z M310,68.9h7.4v24.5H310V68.9z M283.8,68.9h22.6v6h-7.6v18.4   h-7.4V75h-7.6L283.8,68.9z M272.7,68.9h7.4v24.5h-7.4V68.9z M250,68.9h7.4v18.4H269v6H250L250,68.9L250,68.9z M225.9,84.1l-2.7-8.8   l-2.6,8.8H225.9L225.9,84.1z M227.5,89.4H219l-1.2,4h-7.6l9-24.5h8.1l9,24.5h-7.8L227.5,89.4z"/>
</g>
</svg>